<mxfile host="app.diagrams.net" modified="2023-06-14T02:12:33.160Z" agent="Mozilla/5.0 (Macintosh; Intel Mac OS X 10_15_7) AppleWebKit/537.36 (KHTML, like Gecko) Chrome/114.0.0.0 Safari/537.36" etag="aZXOV_w6nZFd9rkhHOrg" version="21.3.8" type="github">
  <diagram name="第 1 页" id="Z7wStv3_-I_98YSqmGdi">
    <mxGraphModel dx="1875" dy="2045" grid="1" gridSize="10" guides="1" tooltips="1" connect="1" arrows="1" fold="1" page="1" pageScale="1" pageWidth="827" pageHeight="1169" math="0" shadow="0">
      <root>
        <mxCell id="0" />
        <mxCell id="1" parent="0" />
        <mxCell id="OipEP8MaM-20ByhYYCx5-84" value="" style="rounded=1;whiteSpace=wrap;html=1;fontFamily=Helvetica;fontSize=11;fontColor=default;fillColor=none;" vertex="1" parent="1">
          <mxGeometry x="840" y="-40" width="680" height="560" as="geometry" />
        </mxCell>
        <mxCell id="OipEP8MaM-20ByhYYCx5-37" value="" style="rounded=1;whiteSpace=wrap;html=1;fillColor=none;labelBackgroundColor=none;" vertex="1" parent="1">
          <mxGeometry y="-40" width="680" height="560" as="geometry" />
        </mxCell>
        <mxCell id="OipEP8MaM-20ByhYYCx5-87" style="edgeStyle=orthogonalEdgeStyle;shape=connector;rounded=0;orthogonalLoop=1;jettySize=auto;html=1;exitX=1;exitY=0.5;exitDx=0;exitDy=0;entryX=0;entryY=0.5;entryDx=0;entryDy=0;labelBackgroundColor=none;strokeColor=default;fontFamily=Helvetica;fontSize=11;fontColor=default;startArrow=classic;startFill=1;endArrow=classic;endFill=1;" edge="1" parent="1" source="OipEP8MaM-20ByhYYCx5-10" target="OipEP8MaM-20ByhYYCx5-40">
          <mxGeometry relative="1" as="geometry" />
        </mxCell>
        <mxCell id="OipEP8MaM-20ByhYYCx5-88" value="tcp9887" style="edgeLabel;html=1;align=center;verticalAlign=middle;resizable=0;points=[];fontSize=11;fontFamily=Helvetica;fontColor=default;" vertex="1" connectable="0" parent="OipEP8MaM-20ByhYYCx5-87">
          <mxGeometry x="0.0333" y="-3" relative="1" as="geometry">
            <mxPoint x="-4" y="-3" as="offset" />
          </mxGeometry>
        </mxCell>
        <mxCell id="OipEP8MaM-20ByhYYCx5-10" value="" style="rounded=1;whiteSpace=wrap;html=1;fillColor=none;labelBackgroundColor=none;" vertex="1" parent="1">
          <mxGeometry x="320" y="280" width="320" height="150" as="geometry" />
        </mxCell>
        <mxCell id="OipEP8MaM-20ByhYYCx5-27" style="edgeStyle=orthogonalEdgeStyle;rounded=0;orthogonalLoop=1;jettySize=auto;html=1;exitX=1;exitY=0.25;exitDx=0;exitDy=0;entryX=-0.003;entryY=0.413;entryDx=0;entryDy=0;entryPerimeter=0;startArrow=classic;startFill=1;endArrow=none;endFill=0;labelBackgroundColor=none;fontColor=default;verticalAlign=middle;align=center;" edge="1" parent="1" source="OipEP8MaM-20ByhYYCx5-2" target="OipEP8MaM-20ByhYYCx5-10">
          <mxGeometry relative="1" as="geometry">
            <Array as="points">
              <mxPoint x="240" y="343" />
            </Array>
          </mxGeometry>
        </mxCell>
        <mxCell id="OipEP8MaM-20ByhYYCx5-76" value="tcp8089" style="edgeLabel;html=1;align=center;verticalAlign=middle;resizable=0;points=[];fontSize=11;fontFamily=Helvetica;fontColor=default;" vertex="1" connectable="0" parent="OipEP8MaM-20ByhYYCx5-27">
          <mxGeometry x="-0.0443" y="1" relative="1" as="geometry">
            <mxPoint y="1" as="offset" />
          </mxGeometry>
        </mxCell>
        <mxCell id="OipEP8MaM-20ByhYYCx5-28" style="edgeStyle=orthogonalEdgeStyle;rounded=0;orthogonalLoop=1;jettySize=auto;html=1;exitX=1;exitY=0.75;exitDx=0;exitDy=0;entryX=0;entryY=0.713;entryDx=0;entryDy=0;entryPerimeter=0;labelBackgroundColor=none;fontColor=default;" edge="1" parent="1" source="OipEP8MaM-20ByhYYCx5-2" target="OipEP8MaM-20ByhYYCx5-10">
          <mxGeometry relative="1" as="geometry" />
        </mxCell>
        <mxCell id="OipEP8MaM-20ByhYYCx5-77" value="tcp8089/9997" style="edgeLabel;html=1;align=center;verticalAlign=middle;resizable=0;points=[];fontSize=11;fontFamily=Helvetica;fontColor=default;" vertex="1" connectable="0" parent="OipEP8MaM-20ByhYYCx5-28">
          <mxGeometry x="-0.0405" y="2" relative="1" as="geometry">
            <mxPoint y="1" as="offset" />
          </mxGeometry>
        </mxCell>
        <mxCell id="OipEP8MaM-20ByhYYCx5-34" style="edgeStyle=orthogonalEdgeStyle;rounded=0;orthogonalLoop=1;jettySize=auto;html=1;entryX=0;entryY=0.5;entryDx=0;entryDy=0;exitX=0.5;exitY=0;exitDx=0;exitDy=0;startArrow=classic;startFill=1;labelBackgroundColor=none;fontColor=default;" edge="1" parent="1" source="OipEP8MaM-20ByhYYCx5-2" target="OipEP8MaM-20ByhYYCx5-4">
          <mxGeometry relative="1" as="geometry" />
        </mxCell>
        <mxCell id="OipEP8MaM-20ByhYYCx5-78" value="tcp8089" style="edgeLabel;html=1;align=center;verticalAlign=middle;resizable=0;points=[];fontSize=11;fontFamily=Helvetica;fontColor=default;" vertex="1" connectable="0" parent="OipEP8MaM-20ByhYYCx5-34">
          <mxGeometry x="0.1423" y="-1" relative="1" as="geometry">
            <mxPoint y="-1" as="offset" />
          </mxGeometry>
        </mxCell>
        <mxCell id="OipEP8MaM-20ByhYYCx5-2" value="" style="shape=image;verticalLabelPosition=bottom;verticalAlign=top;imageAspect=0;image=data:image/png,iVBORw0KGgoAAAANSUhEUgAAAVAAAAG0CAYAAABkPX9NAAAACXBIWXMAAA7DAAAOwwHHb6hkAAAAGXRFWHRTb2Z0d2FyZQB3d3cuaW5rc2NhcGUub3Jnm+48GgAAIABJREFUeJzt3Xm4JUV98PHvXGYGZhhwZBMFF1BE4oJojAsiICpREXcSoyhqYtxF87rEPS5xfVU0McZojEtcEVQw7uD2CqLgyuqCigjKDsMsDDM3f9S9L+f2Pfferjpdfep0fz/Pc55n+kx3VXVPz+/8qru6axn57AI8F3gBsDZjPZK0kNOANwEnA9NNF76s6QKBXYHnAC8EdsxQviTF+gnwRuB4GgykTQbQWwIvAZ4BrG6wXElqylnA64HP00AgbSKArgaeB7wcM05Jk+EM4B+A745SyKgB9GHA+4E9RixHkto2Dfwn8CLg2pQCUgPoKuDtwLNGKEOSSvAb4BjgW7EbbpNQ2W2BU4AjMHhKmnxrgScB1wGnx2wYG0DvA3wD2DtyO0kq2RTwl8DtgC8BW+psFJNBHg6cSOi+S1JXfRF4PLBhqRXrBtAHA18AthuhUZI0KU4FHgFcv9hKdQLowYSU1sxTUp98GTgS2LzQCksF0H0IF1V3arBRTdkAbGz476o2Aesj25WirXpyWQ1sO+5GjGB7YOW4GzFjR9Ju7jZtGeU8gr0c2GFMdX8MeDILDLpfLIDuRHiO9I4NNeRKwvOoZwJXDHy2EiL8upn11nFTxI8JdpIE8EDg3cCdGyrvVcAbYjeafdRplM9W4KuEawnLR9wJSaprOeFFRlcxehzbAjwkpvJnNFDpt4E/j99vSWrMbsAHCMncKPHsMmD3OhXentCNTq3oeuBvR9ljSWrYg4HfMVoQPb5ORaN03X9Dc9cdJKlJNyOMKBoliD52sQoePELBZwN7NrSjkpTDckKXPjXO/ZpFRmz8KLHQi4FbN7mXkpTRKEH0OcMKPCyxsI3APZvfP0nKZjnwP6TFvD8w5KnMkxILe0me/ZOkrG4G/Ja0uPd3gwXdgjDWKbaQMyjjqQlJSvEg0oY4nUd4gxMQhh2lROH7Z945Scot9XroY2YL+HjCxidm3y1Jym830p5YOm22gNMjN9wK7J99tySpHS8gLQsF4NLIjT7Vwg5JUluWE+aOjw6gq4i7iLoFuGs7+yRJrXkgCQH0DpEbfKKtvZGklt1AZAC9e8TKW4D9WtsVSWpXVACdAtZEFL4BOLfJ1krSpIoNoJKkGVOE+WDqipkGWZI6zQxUkhKZgUpSIjNQSUo0RZjTuy4zUEmaMQWsGHcjJGkSTRE3X7sZqCTNiA2gkqQZZqCSlMhroJKUyAxUkhJ5DVSSEhlAJSmRXXhJSuRNJElKZAYqSYm8BipJicxAJSmRGagkJZoCtolY3wxUkmZMYVCUpCSxAdRgK0kzzEAlKZEBVJISTc18JEmRUjJQM1ZJwi68JCUzA5WkRGagkpTIDFSSEpmBSlIiM1BJSmQGKkmJzEAlKZEZqCQlMgOVpERmoJKUyAAqSYnswktSIjNQSUpkBipJicxAJSmRGagkJVqesI0BNN2fAYcCtwauB74LnDrWFpXrnsBBwO7AtcDXgTPG2qIyLQMOBO4H7ARcDnwZ+Pk4G9Un5wLTEZ/V42nmRNsP+AbDj+c3CCe+gnsDP2D4sfoEsN34mlacw4HzmH+ctgL/QlqC1Hc3EBcPh/4DLPbZvrVd6YYDgWtY/Jh+fWytK8sjgI0sfqw+PLbWleXZwBYWP1ZvHlvrJld0AD0/cgMDaH0rgIuod1wfMqY2lmIVcBVLH6ctwG3G1MZS3JOlg+c0cCPhcpHqiwqg3kTK68HAnjXXPTJnQybAQ4C1NdabAg7J25TiPZt605FvAxyduS295jCmvP48Yt3DsrViMtw1Yt17ZGvFZHhAxLoHZ2uFHMaU2b4R696Bfl/03yti3QOytaJ8K4DbRaz/F5naIcxAc9slYt3l1O/ud1HMdc2YYNs1a4n7oV1L3HmoCFPUu5aiNLtFrn+7HI2YEDeLWHfXbK0o35qEbbyRlElK8DRjrW+HyPV3z9KKyRATGLaLXL9LUkbB3KrxVggwA81tZeT6O2ZpxWSI3fe+ZqGxP8oQl90rgtdA8zKA1hebUfY1gKZk3gbQTOzC57Uicv0+n+irItfv67FKeZS1r8cqO4cx5RUbQPucgcYO4errM/EpSU9fj1V2XgPNK7YLH5uFdcUy4s/DvgaFlP+v2zTeCgFeA80tNgONDbhdkfIAQZ9/bGL1+QGNrOzC57Oc+GyhrwE0JUMygNZnAM3EDDSf2OwTDKAx7MLXZxc+EwNoPinB0ABanxlofWagmaT8mnnTqZ6UDHTbxlsxGcxA60sJoCnnomowA80nJSj0NQNNyZD6eqzMQAviTaR8Uo5TX7P7lB+bvl7XSzmv+nqssjMDLYsBNO82XZByjpiBZuJA+nz8YarPAFpfX/e7SGagZenrj1lKhtTXQNLX/S6S10DzSTlOfT22KUGhr91SA2hBzEDL0td/C7vw9fW1l1IkM9B8zEDrM4DW19f9LpIZaFn6+m9hAK2vr/tdJF+onI/jQOvzGmh9fd3vItmFL0tfj60BtL6UdwD09bzKLmUc6HSOhnSQ10DrsydUX0oA9f9sJmagZfHY1tfXY9XXt1AVyV/+fLwGmldfz0O78AUxgJbFY6ulrB53A3STlC6811Pq8RpofX3d7xS7JGzj/9lMzEDL4rGtr6/HardxN0A38ZpbPmagysEAWpAp4tN7/5Pn4w9afX08D1cCt0rYzik9MrELn48ZaF59O1Z3Ad5P2rxZfwV8BNiz0RbJZ+EL09d/C39sFvdy4CzgKYnbLwOOBs4DXkF/n+JqnBloWTy2GrQc+CDwRprphm8PvAH4DmmXAlThL5EmVdd/bNYAnwYeOuTvtgCnA18FvgdcAlwObAV2Jdxo+gvgcOBA5nf77wOcNlP2ORna3isbCTeS6n5uPZ5mTpy9iDuu08D5Y2np+N2X+GN14lha2o6VwNeYv8+bCNcy94koaxfgtcBVQ8r7E3DnphrdETcQdx5GB9DbtLYrk80AWl9KAP3cWFqa3xTwCebv71nAviOUuwtw0pBy/wDcdoRyuyZ7APVg12MArc8AepO3M39fP0za3feqZcCLCV39wfJ/CuzQQPldYAAthAG0vpQA+vmxtDSvpzF/Pz9G8+OD/2FIPf/ZcB2TygBaCANofSkB9AtjaWk+dwDWMXcfTyPfjd53Mv+YHpmprkkSFUAdxqQSeE7BWwnDjGatJ4z7vDFTfS8HflX57jiccymKjw5qUnUp6N4eeFTlu+OACzLWuQF4buW72wGPyFhn55iBSuP318z9f7UeeFcL9X4ZOLvy3VEt1NsZZqCaVF36IT+0snwiYYxmG/6jsvxnLdXbCWagKkGfz6llwL0q353cYv0nVJbvSL//PaKYgWpSdeU/+W7AjpXvvtFi/RcBlw4sr6KZMae94KycmlRdOQ+rj0ZfCVzWchvOrCxv13L9E8sMVBqv7SvLF46hDZdUls1Aa/IaqErQ5/eBrqwsbx5DG9ZXln1LW01moNJ4bagsjyN4VbPgG8bQholkBqpJ1ZXz8JrK8i3H0IbdK8ubxtCGiWQGKo3XbyrLewA3b7kN+1eWN7Zc/8QygKoEfb4Geh3w+8p392mx/r2YO9ncFdiFr81J5aTxO72y/Nct1l19dPO8FuueeM4Lr0nVpfPwS5XlR9NON36K8A7SQT9uod7O8CaSJlWXzsMTmDuUaAfC6+Zyewrh0c1BH2ih3s7wGqhK0KVgmOJq5r996XnAfhnr3IUwXfKgUzADjWIGqknVtfPwn5k7I8G2hHmf1maoa4owu+fgkKn1wDMz1NVpZqBSGa4H/oa5Xfk7Ap+l2QnfpoAPMn+++ZcCv2iwnt7YRNxcNDm7FV3inEj1PYD4Y/X1sbQ0v0cQpvEY3Nef0Mx04msJ7xqtHsv/aqDsroieVC52AwNoPQbQ+gygc/098/f3MkIXO3XOoiMJLyqplvs15j+P32fZA6hvrK7HAFqfAXS+1zJ8v38CPB5YUaOMKeAI4NsLlHUqsLrhdk+6qHjoW1ekMr0WuAp4B3PvVdwN+DRhyo+TCXfOzye8FHklsAbYFziEEDwX6vp/Dngi89/EpEhmoHmYgdZnBrqwxxHe2BR7fBb63Ai8HqcvXojzwksdcjwhmzy3gbLOAA4EXgVsaaC83nMYk1S+7xPemPSCxO0vA55MeEnJ95tqlBxIL02KzYTrlim+DXyUmbvGao5vY5Imx1WJ221ttBX6/3wbUx77AB9K2G5vwt3XOkNU1D/r8NplUbwG2qzlwIsJY/UOTtz+NcAPgAMabJe6YRq4NnE7ZeA10ObsC5wGvBVYNWJZ+xMu9r8OZ0jUXNVJ6OowgGbif85mPBF4H2EQ8zAbCVnlLwh3RCG8bWdv4B7MnVJh1grCcJODgL8iDJyWUqY99hpoRrED6asTUPXdiwgnaPU4bQW+ADwS2G6JMu4MvAm4fEg504RpFqozJ3aJA+nru4D4Y/XfY2npZMr+LLwB9CbPZ/gx+g5wz4TyVhOugV4/pMyfAzcbvclFMoDW93Pij9XHxtLSyRQdQDdHbnD31nalbIcy/9jdSHiv4qg35/YBfsT8Y/9ZunkN2gBa31nEH6uPjqWlkyn7o5wKE359grnXkDcRZjh8C6Nfc/oFcD/gfyrfPwZ4xohla7KlTDk83XgrBDiMKdXrgFsMLE8TZjc8ocE6NhAC5qmV798E7NpgPZosBtCCOIwp3u2ZP3fMO4GPZ6hrE/AE4JKB725OGGyvfjKAFsQMNN7zmdt1/yXwyoz1/ZFwXXXQU4HdMtapchlAC2IGGmdb4JjKd/9E2uDmGP8NnDOwvApnUOwrA2hBzEDjHAzsOLD8e8LNpNy2Ah+ofPeEFupVeQygBTEDjXN4ZfkztPdyh+Mry3ciDMBXv6Q8iWQAzcQMNE51DOzXWqz7IsL11kEHtli/ymAGWhAz0DjV+aDObLn+H1eW79Vy/Ro/M9CCpLxQuc//GDsP/HkT7b/g41eV5YVmXFR3pTyk0ef/s1mlvFC5r93+Vcx90fE1Y2jD5ZXlnYeupS4zgBbEDLS+GyvLK8fQhmr3LaU7p8lmAC2IU3rUtxlYP7C8I+2/T3XbyvJlQ9dSl6WM+jCAZuKkcnF+P/DnKWC/luuvvni5ibnCNVnMQAviXfg4P60s37fl+u9aWXaO7/4xgBbEABrnjMryY1usexVzA/Zm4Fst1q8yGEAL0tc76qlOriwfBtyupbofx9xroF8FrmipbpXDa6AFMQONcy5w9sDyNoQpOHJbBryg8t2HW6hX5TEDLYgZaLx3V5aPJrw9PqenMXeOpV/R7MubNTkMoAUxA433UeDigeVtZr5bm6m+fYC3Vb57M+29xERlsQtfEDPQeBuAF1e+25twfXR1w3XtApxEeAv9rLOADzVcjyaHGWhBzEDTfBL4UuW7A4GvEIJeE/YCvgvsO/DdjcCzMfvsMwNoQcxA00wDTwIurHx/f8JQp4NHLP9RhDGe+1a+fzWO/ew7A2hBzEDTXQkcAVxa+X4vwkyaHyJMQBfjDoTJ6U5k/sybnyVMmax+M4AWxAx0NOcAhzL3EU8IPzLHAOcRro0+EdhjgTJ2Ah5PCJDnMnyqjq8Af8Po881r8nkTqSBtvwyji84D7kG4E1+d8mM58PCZD4Rs9Q+E7HUtYW75Wy9R/nuBY/HNSwrMQAuynPguuV34+S4DHkaY8vgNwPYLrLf7zKdumc8FPj1y69QlBtCC2IVvzlbgXYQXfow6V9LJhPmXDJ6qSgmgXvrJxJtIzbuQ0JWvPnpZ16uBRxC6+lKVQ9gKYgaaxzRhAHyKC5psiDonpTtuFz4TA2h5zDC0mJRgaBc+E7vw5TGAqmlmoJmYgZbHbEGLsQtfEOdEKo8ZqBZjAC2IXfjyGEDVNANoJnbhy2MXXosxAy2IGWh5zEDVNANoJmag5TGAajFmoAUxAy2PXXgtxgBaEDPQ8piBqmkG0EzMQMtjBqrFmIEWxAy0PGagWowBtCBmoOUxA9ViDKAFMQMtT98y0AOBf0/Y7gHAm4GVzTankwygmZiBlqcvAXQ1IQB+G7hTwvYrgJcCPyBMqaKFGUAzMYCWpw9d+EMIc0m9lNF7QXcDTgNe2UBZk8ApPQripHLl6XIAXUZ44/6rgG0WWOdC4Ezg58DGme+2Be5CyDSHTRW9Eng9cH/C7KVXNtfkTjCAZrSVcIDrfh4ynmZOnL2IO66zn5Tu7CSYAt7P8H2+BvgXwjxQS7kT8A7gigXK+jFhquiuOob4c+pF42johLqBuGNrAM0kNYDuM47GtuC9DN/fT1F/ptJB2wOvA9YPKfMMYNXoTS7SMcSfUy8cR0MnlAG0EKkBdFgXddL9HfP3cwPwuAbK3o/Q3a+W/4EGyi7RU4g/p44dS0snU1QA9SZSebp2F35f4D2V764DHgYc30D55wL3Ab5Z+f7pNBOgSzPd0jaqoQ93LSdN124iHUe4CTRrC/BI4NQG61gHPJwwpGnQO4E1DdYzqQygmZiBlqdLGehhwOGV795As8Fz1nrgKODqge/2BP5PhrrGyQy0IGag5elSAK3evDidMNwol98MKf+5hBtOXWEALUjKpHJmoHl1pQu/J/DQyncvI/8PxL8Clw4s7ww8KXOdpTOAZmIGWp6uZKAPZ+75dRrwrRbq3QR8uPLdE1qoty1moAXxGmh5upKBVoe7faLFuk+oLB8E7NZi/aUxgGZiBlqermSg+1eWv9Ji3WcB1w4sTwH3brH+nMxAC2IGWp4uBNDtCA8SzFoH/LLF+m8Ezq58d68W6y+NATQTM9DydKELf3Pmnlt/oP39qgbsPVuuvyRdOKeKZAZani5koDtUlq8fQxuuqCzvPIY25GAXviApAdR/jLy6EEA3V5bH8TRQtQ2bxtCGHFISGDPQTMxAy9OFk/3ayvLutH/erK4sX9Zy/bmYgRbEa6BlmX0z1qS7krlBdAfgDi23oXrN85yW6y9JF86pIpmBlqUL2SeE/7DVu+AHtdyGu1WWT2+5/pIYQDMxgJalC9c/Z1UD1lEt1r03c4dR/Qn4SYv152QXviB24cvSlQwU4OTK8mG097LooyvLnyGMDe2rLp1XRTEDLUuXMtDvAJcMLC8nzJyZ22rg7yvffaiFektmBpqJGWhZuhRANwP/VvnuyeS/Fvpq4JYDy98gzPLZZ2agmZiBlqVrJ/q/MfcFx1PAB4G1meo7hPkzUL4xU13j4jXQgpiBlqVLGSjA5cBrKt/tQ7gmubLhuvYDPgusGPjuePK8/X7SGEAzMQMtS9cCKITpjL9X+e5BwBdo7k3x9yVccx2cD/4qnA99lgE0EzPQsnStCw/h7vfjmfuWeAhzJZ0G3HmEsqcIQfIU5j/r/rfARSOU3SVdPK+KYAAtSxczUAhvYzqC8ITSoLsCPwTezNzssY4HEbLO/0t4fd6gNzL/pcp9ZgaaUe1J5Gc+jxlPMyfOXsQf29+OpaXtuTshEx2279cB/0WYCmRYMF0FHAi8lvBY5kLH8N0Z21+Co/D/bE43EHds/cfIJCWA/nosLW3XLQld7sWOw1ZC9/vHwBnAhSx9Ym8Gjm1xP8YlJYA+eiwtnUxRAXR5QgXeRMqnq134QZcADyZMefw6QmZZtYzwMpC6L0E+F3ga/X7efTFeA83Ea6Bl6cuJvgV4O+GFH6PM1LkFeCtwDwyei/EaaCYOY8on5aTtQwY66JfAoYSnh1I8EXgpsLGxFnWTATQTM9Cy9C2AQvjPnZqFXthkQzqsLz2b1hlAy9LnNwalqE7boeHMQDOxC1+WPmago7hh3A0Yg5RgaAaaiRloPl4Dzc8MtB4z0EwMoGUxgMYxgNZjAM3ELnxZDKBx+tiFT2EXPhMz0LIYQOOYgdZjBpqJGWg+XgPNr48BNOW8MoBmYgZaFgNoHLvw9diFz8QMtCwG0Dh9zEBTmIFmYgaaj134/HzwoB4DaCZmoGUxgNZ3I3ZN6zKAZmIGWhYDaH197b77JFJBzEDzsQuflzeQ6jMDzcQMtCwG0Pr6moGmMIBmYgZaFgNofQbQ+uzCZ2IGmo9d+LzswtdnBpqJGWhZDKD19TUDTckmDaCZmIGWxQBaX18DaMo54nmViQE0H7vwefW1C59yjvjAQSZ24cviiV5fXzPQlC68P8yZmIGWxRO9vr4GUDPQgpiB5uMTI3n1NYCmBEMDaCYG0LL0NQNN+bHp6zVQu/AFsQtfFjOF+jaNuwFjkhIM+5qtZ2cGmk9KptDXLnxKBtrXoOAwpoKYgeaTctL2tVuaEkDNQOuzZ5OJATSflJPWAFpfX4+VAbQgBtB8Uk7avmZVZqD1GUAL4jXQfMxA6zMDrc8AWhAz0HxSbnL0NatKYQCtzwCaiRloPluIz6z6GhTswtfnONCCmIHmFfvL39egYBe+vthgmPJDrprMQPOKDaB9DQoG0PpiA6jd94zMQPMyA63HAFqfAbQgZqB5mYHWYwCtL6ULr0wMoHkZQOtJ2e++ZutmoAWxC5+XAbSeDQnbXNd4KyZD7DllAM3IDDQvr4HWYwCtb33k+n39UW6FGWheZqD1bEzY5trGWzEZ1hN3zXhdrobIDDS36yPXNwOtr68Z6FbislADaEYpAdRBufVdHbn+VVlaUb6NxJ9X1+RoyISI+WHu6w9NK8xA84r9Tx4bcLtiK/HZd58DQ0xW2efjlJ0BNK+YgHgd/b0GCnBl5Pp9DgyXRKzb12vFrfAmUl6/iVj38lyNmBC/i1j3GuKvL3dJzLG6OFsrZAaa2fkR6/4qWysmw9kR6/b9WMUE0IuytUJmoJl9h/qvHzs3Z0MmwJcj1j0zWysmw6kR616YrRUCwt3PmM+zx9PMifVJ6h3Xw8fVwEJsA5yOx6qOlYQf3KWO0/XA9mNq46S6gbh4aADNbA1wMosf049hbwBgN+A0Fj9W7xpb68qyN4sH0RuB546tdZMrewB9Tmu70h3LgKOB7xNO7GnC2MevA0eOsV0lWkH4j/9TwuWP2UzqJODgMbarRKuBlwMXcNP/z2sIvZ57jLFdk8wAWrjtgJ0IgUKLWw3cnNC91+LWEI6VPZnRRAXQ5WNqZJ9tJO3Z7z5aT/zLM/rKRzbHwGFMkpTIdF+SEhlAJSmRXXhJSmQGKkmJzEAlKZEZqCQlMgOVpERmoJKUyAxUkhKZgUpSIjNQSUpkBipJiQygkpTILrwkJTIDlaREZqCSlMgMVJISmYFKUiIzUElKZAYqSYnMQCUpkRmoJCUyA5WkRGagkpTIDFSSEhlAJSmRXXhJSmQGKkmJzEAlKZEZqCQlMgOVpEQpAXS7xlshSeO3koSYOB35+TWwvJn2SlIxnk58PIzeYBp4Qks7JElt2AY4n5YC6E/wWqik7jiKtFiYtNE08NBWdkuS8vshLQfQb7axV5KU2UNJj4PJG04DB7ewc5KUyzLgNMYUQL+P10IlTa5HM1oMHGnj6ZkGSNKkWQ6czZgD6LnAtpl3VJKa9lJGj38jFzANvCXzjkpSk/YB1jM/ll095LvGAugNwLuHfH8jcGDW3ZWkZqxk+I2jM4AXDfm+0QA6BXxsyN/9ElibcaclqQnvYX78+gWwG/DMIX/XaAAFWAGcPOTvTyFEd0kq0VOZH7f+CNxh5u+fPeTvGw+gAKuAbw1Z5+M4tElSeY4ANjM3Xl0P3HdgnefRUgCF0GX/0ZD13oZBVFI5DmP+TaPNwMMq6z2fFgMowC0I1w+q636A8IYTSRqnxwEbmRuftgBPGbLusbQcQAFuTbiJVF3/eGB14k5L0qheSBglNBiXtgLPWGD97HfhF7InwzPRc4H9I3dakkaxBvgk8+PRVuC5i2z34iHbtBJAIWSiFwzZbj3wLLwuKim/QxiezG0i3IVfzEuGbNdaAAXYiTCcadj2pwP3qVGGJMXaBfgPQpZZjT1XEALrUl42ZNtWAyiEcaLvW6CMrYSB+PvVLEuSFrMGeDVwLcNjzo+AO9Ys6x8XKKPVADrrScCVC5S1Ffgq8Aicn15SvJsDrwIuY3iM2Qy8kbiHe16xQFljCaAAt2L4U0uDn0sJw54eBWyfUIek/tgdeCsLZ5yzWWfK5cJXLVLmvM+ymT/UtZn0RzUfCbwBuMsS690AXANcB1xFGIJw3cDfX0PIXgE2EMZ3DXMtYazXMJuBdYu0YbFtq+1pwnUz5TZlqf3rqpvR3d7MKmC7cTcikynCv10dBwDHsPCxuIgQBD/KTXEixmuA18ZskDsDHTQFHM3wO2R+/Pjxk/r5I2EI0ipG808x9bb9a72V8MuwL3Ak4a68JKW6jHDnfC/CI+QbRiwvKiaOq7uzFTiJ8BD/Qdx0jVSS6vgTIXDejvBC9/UNlRsVE5c3VOkovjvz2Z9wbcNHPyUt5ifABwkD45sWnVTGXGcY9RqoJJXsLRR8DVSSSjYR10AlqUQGUElKZACVpEQGUElKFPXKTQOoJN3EDFSSEhlAJSmRAVSSEhlAJSmRAVSSEhlAJSmRAVSSEhlAJSmRAVSSEhlAJSmRAVSSEhlAJSmRAVSSEmV9G1NU4ZI0YbJmoAZQSV1mAJWkRAZQSUpkAJWkRFExcXlCBcsIk8qP03Lg/sC9gX2BPYC1M591wBnAccB542qgpIkUPTJpOvIzzqFPtwXeCVwxpF3Vz0bgWeNppqQJ9TXi4mF0AN2mtV25yQrgFcCGhPa+egztlTSZvkHmAJrS7R/FWuJ/Faqft7XcZkmT6RQ6FEBXAd9LaOOwzxtabLekyfQtMgfQla3tCnwkoX2LfY5tse2SJs+3yRxAt21pR/4yoW1LfbYAh7TUfkmT57tkDqDbtbQjpye0rc7n18D2Le2DpMkSdckwZUhSG4Pp9yeM8VzM74HXEDLKuwIPIlzn/O0S2+0FPHbE9knqpuzjQFc31dJFvHyR+rcA/0y4wTTMCuA5wLWLlHFixrZLmlxnkLkL30b399ML1L0ROKJmGbcBfrZAOWc13F5J3fBDMgfQHVr4yUIuAAAE/ElEQVTYidOG1LsVeHRkObsC5wwp6zdNNVRSp5xF5mugbTyJNKxdHye+630Z8BRCt3/Q9SmNktR52af0aGMc6OVDvnt9Ylk/AL5Q+e7ixLIkdVv2ANrGk0jVtyj9CDh/hPI+U1k+c4SyJHVX9gC6ImGbWF+vLI960+dXS5QvSZB5UjloJwM9hXD9ctYlI5a3aeDPfwS+OWJ5krqpExnoJuDdDdZ5x4E/v5f5N5UkCVoYSH+Xplq6hDWExy6ngc+NWNb7Zsq5AthpxLIkddcvyDwO9IDWdgUOBTYT7sqnPoO/Izc9lfSMhtolqZt+ReYAeq/WdiV4xky9T03c/riZ7U/ASfEkLe5CMgfQ+7W2Kzc5FvgTcKvI7Q4iXO/8f4RMVJIW81syB9CDW9uVuZ5MmK+k7g2lWwJ/AD5GuJ4qSUu5iMwB9EGt7cp8DyC8aWkpK4D3EF7KLEl1XUzmAHpka7uSbg3jnX5Z0mS6hIh4mDIofhK6w+vG3QBJEyn7QPo2XmcnSeOQPYBOQgYqSSnMQCUpUfYA6oyWkrrKDFSSEmUPoDdL2EaSJkH294HeMmEbSZoEUXO+pQTQPRK2kaRJEP3CodgnkTYDqxtqrCSVYg1wIxHxcIr4+YaWA/duqMGSVIqXkjBt+/OJz0I/3Ex7JakIewDXEx8L2YUwB1HMRuuJfzenJJXqw8QHz2tnNz4hYeOP5N8nScruAMKL12Nj4JtmC3hkwsZbGd/LlSWpCVPAacTHv3XArrOFrCDMlx5byEXAznn3T5KyeR7xcW8aeHu1oNclFnQyCXeuJGnMDgA2EB/z1gO7Vwu7BbAxobBp4F/z7J8kZbE78GvS4t1xCxX6gcQCp4HXNLt/kpTFzsDPSItz61hkBNLuwDWJBU8Db2lyLyWpYXsB55Ae4161VAX/OELh08CHgO0a2FFJatJDSbtZPvu5iBqPsW8LnDdCJdPADwiRXpLGbWfg3wlDL1Nj2lZCAK7lANJvKM1+rgdeBqxM3GlJGsVawvPtVzJaLJsG3hNb+QsaqHSaMFH9KwmD7u8G3BonppOUxzbAAwkZ53U0E8N+DKwaVtli775bBnwSOGrEHVrKNYT0+EbCDkMYm7VxyDqDBtcftJ7wbH/V1YSDMUoZVVfVWGepuhZSPQZLuW6mjlzWEV5lmNvmmbpGtYLu/FBvT3M9uVWk3aO4+QLfT7HwLBXLWXgKoMX+fbZl7rXG1TPfwdxjsWamnB0I2ebsZ1uacynh7XO/G/aXS708dDvgK8ADGmyQJE2CDcAhwBkLrbDUG+k3Ep6T/3lzbZKk4m0AHsUiwRPqTelxNXAY8KMGGiVJpdsEPB746lIr1p0T6U/AocB3RmiUJJXuKsJwpS/WWTnmJSCbgE8RxnfeNb5dklS0XxDu4J9Zd4PYtyhtJrx8+XLgQQnbS1KJTgKOAH4fs1HKtMYQ3r50EOGBfEmaVOuBZwJHEgbcRxklg7yY8Pam9cD9COOxJGlSfBF4NDVuFi0kehL5BdwGeDHwdBYYsS9JhfgZIV59ZdSCmgqgs24BHEsIpLsusa4ktWWakGm+A/ga859KTNJ0AJ21LfBYwrWFgzLVIUkL2US4q34BcArweSJvENWRK4AOugshkB4N7NhCfZLm20h4uiZGyvsPhr1zYjFbGJhffcDgux2unVkP5r4X4+qZv6t+LiPco6m+P6Nx/wvXLYnNdhfIgwAAAABJRU5ErkJggg==;labelBackgroundColor=none;" vertex="1" parent="1">
          <mxGeometry x="90" y="320" width="70" height="90" as="geometry" />
        </mxCell>
        <mxCell id="OipEP8MaM-20ByhYYCx5-6" style="edgeStyle=orthogonalEdgeStyle;rounded=0;orthogonalLoop=1;jettySize=auto;html=1;entryX=0;entryY=0.5;entryDx=0;entryDy=0;verticalAlign=middle;startArrow=classic;startFill=1;labelBackgroundColor=none;fontColor=default;" edge="1" parent="1" source="OipEP8MaM-20ByhYYCx5-3" target="OipEP8MaM-20ByhYYCx5-5">
          <mxGeometry relative="1" as="geometry" />
        </mxCell>
        <mxCell id="OipEP8MaM-20ByhYYCx5-8" value="tcp9887" style="edgeLabel;html=1;align=center;verticalAlign=middle;resizable=0;points=[];labelBackgroundColor=default;" vertex="1" connectable="0" parent="OipEP8MaM-20ByhYYCx5-6">
          <mxGeometry x="-0.175" y="-3" relative="1" as="geometry">
            <mxPoint x="7" y="-3" as="offset" />
          </mxGeometry>
        </mxCell>
        <mxCell id="OipEP8MaM-20ByhYYCx5-3" value="" style="shape=image;verticalLabelPosition=bottom;verticalAlign=top;imageAspect=0;image=data:image/png,iVBORw0KGgoAAAANSUhEUgAAAVAAAAG0CAYAAABkPX9NAAAACXBIWXMAAA7DAAAOwwHHb6hkAAAAGXRFWHRTb2Z0d2FyZQB3d3cuaW5rc2NhcGUub3Jnm+48GgAAIABJREFUeJzt3Xm4JWVh5/FvLzRNN4sNiICyCAoIOBMliY64MEKMQQkZlGeMcTCaEXdbRw1xewTNGMw4KhKNqEFFjQsqIrjiEDQYJghBlAZ0WBqVRfat6b3v/PHem3u4fe699b6n3qo69X4/z1MPTfepOvWeU/U7b9W71ALyWAA8HzgJODzTe0jSfC4HPgJ8Adhc98YX1Ly9JcCLCMF5cM3blqRU1wF/B5wBrKtro3UF6DbAXwDvBB5d0zYlqW43A38N/AOwcdSN1RGgfwx8ENi/hm1JUhOuB94CfGOUjYwSoCuAU4ETR9kBSWrR+cCrCDXTaKkBegTwRWD3xPUlqSvuAF4M/CB2xUWRr18AvA34DLBj7JtJUgctB/4M2ARcHLNiTA10MfAx4BUxbyBJY+TzwMup2MBUNUC3B74GPCdxpyRpXHwbOB54aL4XVgnQZcC3CPc9JakE/4cwGGjOPqML59nIMkIr1RH17JMkjYUjgS8T+rjPaq5GpEXAOXjZLqlMBwJ7AOelrHw6MFHTcinw7PRySFJlRwJXUl9+vTZ2B15Z0xtfAxxH/WPuJWkuiwnBdyej59gGIiZFOpTQ+jTKG94FvHqyEJLUlhXAR4EtjJZp1xN6I81pW+CqEd/oa8CuIxZakup0BHAjo2Xbx+d7k3eMsPFNwMrRyylJWexKGGmUmnFbgN+dbeN7A2sSN7wOeEGNBZWkHJYC55Ieoj+cbcNnJW5wM6GhSJLGwVLgn0gP0WNmbvBQQhCmbOxNWYooSfnsCFxLWub9ZObGUqu052MXJUnj6Ymk9zg6emojT03cwF3Y2i5pvP0lafl3ydQGLkzcwGtyl0ySMltC+qX8H5C44mrsJC+pH44lLQf/mcQV39hIsSQpvwWEYecpWRi9wnrC8ChJ6ovU+T+iVzi/oQJJUlN2IlQOo/JwvgmVh7m0jr2VpA65D7godqWUAL0lYR1J6rrvxq5ggEpScEXsCikBel/COpLUdT+LXSElQOd91KckjaF7YldICdC1CetIUtdNECZVqiwlQOd8TrIkjbFNMS+2BipJ0zbGvNgAlaRp2Wug6xPWkaRxkD1Ao6q4kjRGsgfoloR1JGkcZA3QqCZ+SRozBqgkJTJAJSmRASpJiQxQSUpkgEpSoqxj4Q1QSX02EfNiA1SSpmUNUDvRS+oza6CSlMgAlaREBqgkJTJAJSmRASpJiQxQSUpkgEpSIgNUkhIZoJKUyACVpEQGqCQlMkAlKZEBKkmJDFBJSuR0dpKUKCrjFkduPCqdpQiLgX2BvYGdgQWTf//g5HILcDOwro2dUzGiMs4AVRsWAAcBh08uTwEeB2xTYd1fAz8HfgZcCvwIuCvPbqpABqg66ZHAc4GjgaOAXRO3s9fkcvTk/28BrgIumlwMVI0iOuMmIpZv17ab6ruFwO8B7wb+ldAAGXOspS6bgSuBDwN/AqzIXVD1yreIO96iXvyt5sqhMbQ9cAxwBuF+ZROBOd+yCbgMOBk4jOl7q9Iw55MxQM9vrhwaE/sBK4ELgA20H5jzLasJAX88IfClQedhgCqjJcBzgI8RGnTaDsRRljWEE+ZVhNZ/6VwyBuh5zZVDHbKMcGl+FnAP7QdfruV64DRCI1eVHgHqHwNUtXg08Grge8B62g+3ppc7CT8YLwCWj/hZanycQ8YA/WZz5VALpu5nXkzoHtR2iHVlWUu4x7sS2DP509U4yBqg5zZXDjVgIaFl+mTgGtoPqnFYNjPdqv+E2A9cnfd1DFDNYTvCPb7TCMMj2w6kcV+m7ps+nfi5JdQ9X8MA1Qy7Ai8DvkFoeW47dPq63Ax8nDDiattK34y65mwivnOHcvbX/sCxk8vhwKJ2d2devwZ+CPwbcAVwLXAHsBR4PPAk4BnA04ADW9rH+ewJvHJyuR/4LqHS8W3g3hb3S9VFZ1zML+w5te2mcjgMeC9hoo22a2PzLb8FvgScSAjIGLsBfwqcyXj0Rd0AfB94LWEcv7rrK8R9twboGFsMHAl8BLiJ9oNiruUewi2ENwCHUu+QyidMbvc84IEOlHWuZQthboCTiP/hUH5ZA/TrzZVDs9iO6fHmt9F+IMy1DHZMX5LjwxhiEaEmfhLjMbx0FXAqoRHKcfrti7oHSuSLv9ZcOTRgF+AEwq9jl2tYU/0lT6I79yl3Jox7P4Pu9zpYjS36bTNAe2JfxmOSjtsII3aOB3bI8UHUaKrf60mEwQJNTbGXstxO+FyPwWGlTcoaoF9trhxFOoTpk7urI4EGO5KP+/RwjyQEf9fH+N/F9I+Uw0rzMkDHyGLg2YTLttW0f6LOtjxIuPp4KeF2Qh8tBo4A/pYww33bn/lsy33AFzFMc8kaoGc3V47eWgYcB3yWULNo+4ScbbkN+CTwfEJfzNLsQ+h29F3Cg+za/j6GLQ8RejacgDPv18UA7aCpkUDnEg76tk+82ZZrCS3CT8NGjEE7AC8EPkPo3N/29zRsmepr+ipg9yyfQhmyBuhXmivH2JtqOT+P7jYCDd7PPDjLp9A/gxOwXEb73+F83+sBOT6EHssaoF9urhxjaU/gdcA/EZ7F0/aJNGx5iBDq/x14VJ6PoSiPA94EXAhspP3vd9hyOfAOnD2qiqwB+qXmyjE2HsN0d6OunkB3Ea4eTqD7XY3G2XK6P3P/KpyKby4GaAP2Bd4MXEJ3uxvdRHi077Po/kQifbQNYZjt6cCvaP94GLb8FHg7oRatwADN5NGEPpo/of0Df7blF8DfEJ7HPs79M/tmAd2f6OVywvH92EyfwbjIGqBfbK4cnbCE0OXoW3T3nuaVwLsJE3RoPOxPuIL5Ed08ri4lTM7S1z6/c8kaoP/YXDlatQ3hfuENtH8wD1um7mMdlKn8ak6X5zlYT2hwPJ4w0KAEX8UAHclBhIBq++AdXDYBFwGvJzRaqZ+WE54CehbdG2RxMWX02shaA/1Cc+VoxZPpTuvpeuA7wCsIY7ZVlsWEaQD/nu5MW3gN/Q9RAzTRwbQ/yuQhwpyrLwEekbe4GiMLgWcS5kxou0X/CmD7vMVtVdZL+M83V45G7Ud4IFgbB+R9hFsjL8TJITS/BcBTCJOeXE87x+w59HeorwEaaSfg/9HsAXgn8A/A8/DpjRrNkwjdo66m2WP4LU0UrgVZA/RzzZWjMZ+imQPuZuCjhM7VpbRoqlkHA++kmb6m6wltBn2TNUDPaq4cjXgcefvh3UK4b+XsRmraocBfA9eR7/j+Gc0966opWQP0s82VoxHvof6D6m6mH8VgTVNdcAih33COfs2nNFeMRhigEa6gnoPoPkJoHo3Pr1F3LSTMuv9xwn34Oo79DYT7sH1hgFa0PaNdvq8nPObiOMqcsV3jbRvCVdI3Gf021k8b3vecsgboZxorRn6Hk3aw/IIwTnjX5ndZymJPQkv+/aSHaF8mr8kaoJ9urhzZvZT4g+QcnBpO/bUH6Q837EsjaVSA9qXQKfZPWOfThMclSH10K/D+xHX7UgONEhugE1n2oh17JaxzVe17IXXLD9regZZF/RCUXANNuYd5W+17IXXLdYQG0lh9yZKoSmLJNdDdIl9/L2GyD6nPJgiX8rH6cgmftQbalw8J4mfbTjmopHF0e8I6fcqGyvpS7U4RO/PR3Vn2QuqetQnrGKCFiZ3TcF2WvZC6J+VYN0ALs13k6w1QlcIArajUAF1KfIf4lJZJaRwZoBWV2oi0LGEda6AqRckBaj/QClIenWENVKWwEakia6DVGaAqhR3pK+pLoWMZoNLsUuZ76EvlKkqpAZpyCe8kIipFn0YcxnIkUgUpT8Is+aBSWbYkrNOXypiX8BWkPKso5aCSNF5sha8gZVJka6AqRcqx3per0ygGaHUGqEphgFZU6j1QL+Gl2RmgFZX63PKu1ryPAZ6f+T3OB86LeH0T+5SiL+WIFVvuFCU3IkUpNUC7WgM9DDgx83vcStwJ2MQ+pehLOWLFljuFNdCKvISvznugKoUBWlGR1W7SGpG8B6pSlBygdmOqwFZ4aXYlB2iUUi/hUwJUKkVKgPalMuZIpAoMUKlefalcRSk1QEvtfSBpbk4mUoE1UKlefcmGKKXWQEstt5RLkedUkYWm3HJLqpFBIqkORV7CxzamFPkhNehsYFXm97g68vVN7FOKvpQjVmy5m1JkZazU1uiu/hCsonsneRf3KUVfytFVXT2nsiryV0NS7QzQCor8kCTNq8hsKLUGWuSXLWXUl3PKyUQkNa4vARrFS3hJdSgyG0qtgRb5ZUsZFXlOlRqgkuplgFZQ5IckaV5FZkOpNdAiv2wpoyLPqVIDVFK9DNAKivyQJM2ryMpYkYWWVLsiK1elBmiRX7aUUZHnlJfwkupQZDaUWgOVVK++BGhUOZxQubrjgYPb3gmpAYckrNOXyljUc+GdULm6gzFApb5zNiZJjSvy6rTUAC3yy5YyKvKc8h5odWdPLlLfHT+5xOhLZcx7oJlcjQGqMqQ0IvWF90ArKLkmLeVQ5DllR3pJdSiyMlZkoSXVrsjKVakBWuSXLWVU5DnlJbykOhSZDaXWQCXVywAtSJFftpRRX84puzFJalxfAjSK90Al1aHIbCi1Blrkly1lVOQ5VWqASqqXAVpBkR+SpHkVmQ2l1kCL/LKljIo8p0oNUEn1KjJLvISXVIcis8EJlbslZSJbVZMyIXYXv4+uTuxdZDY4oXK3HEL3Tti+SJkQu4vfR1cn9i4yQIu8b0GhX7aUUZHnlPdAJSmRASpJibyEl6RpWWdjMngkDVNkNpRaA5VUr6jnqXeYNVBJSmSAVtCXX0upK/qSDc5IL0lNKLUGKknDRGVcqWPhu3oJfzawqu2d6KmrE9bp4veRUo4m9CUbojgWvltW0b0TtmR+H9V1tVISy0YkSWpCqQHal19LSfWyFV5S4/pSuYpSag1UkobxHmgFXsJLGpmX8JI0zRqoJCUyQCvwEl7SyLyEl1SHvlSurIFKUhNKDVAv4SUNY0d6SWpCqTVQSRrGe6AVeAkvaWRewkvSNCdUriClBvrfgMPr3hGpg/ZLWKcv2RCl1ABNsR9pB5ak8WErvCQ1odRGJEkaxnugFaTcA/0ccFbdOyJ10AmEe/4x+pINUXyoXHU3AD9oeyekBjw9YZ2+dA20H6ikxvUlGwzQCvryaympRbbCS9I0a6CS1IRSA9RLeEnD2JFekppQag1UkobxHmgFXsJL9epLNkTxEl6SplkDlaREBmgFW9reAaln+pINUbf3vISXVIe+tCtEZWKpNdDNbe+ApPFXaoB6CS9pGDvSV2ANVKpXXypXUUqdULmrAZoykW1uKRNJx5ajiffoCyf27pBSA7SrN7z3A45qeydm+HHCOrHlaOI9+iLls1J1XsJX0NUaqKR22Q+0AhuRJI2s1AC1BirVqy/ZEKXUALUGKtWrL+eU90ArsAYq1asvARrFGqikOvTlnLIRqYK+fNlSDinneV/OKS/hK0j5svvy4yHNJyUXDNC6N95hKfdAS/2xUXlKroFGKTVArYFKsys5QKPKHjuUsy+6WgM9C7i4gfeJcUPCOrHlaOI9+iLls4qVEqBdHR6dValj4btaA72BZk6Q3JooR18+qy5KqSz0pWug90Ar6GqASl1gDbSiUhtGUgK01M9K5fEeaEWl1kBTLjf6UnZpPiUHaJRSA9RLeGl2JQeoHekr6GorvNQFJXekj1JqDXRjwjqldvlSeUqugUYpNUDXJ6yzpPa9kLpp24R1+hKgWZ8L3xcpAZpyUEnjqOQAjWINtDoDVKVYmrDOptr3YgwYoNUZoCpFSoCmnFNdZCt8BQaoNDsDtCJroNUZoCpFyrHelwCNUmqAriF+7G7Kr7I0jkqugUYpNUA3Aw9GrvOIHDsiddCOCev0JUC9B1rRfZGv3y3LXkjds3vCOutq34t2eA+0otgA3QVYlGNHpA7ZFtg5Yb2U0X1jr+Qa6D2Rr19ECFGpzw4kvqJwC3akr6RPNdBfJ6yzb907IXXMkQnrXFX7XrQn6yV8n2qsqxPWeW7dOyF1yG7A/0hY75K6d2ScTEQsd7a0jzmcQFzZJwjD1b4DvAjYrvldlrLZH/gl8efEBPD0FvY3l+uJK3vUi+9urhzZ7Um4b5NywEwA9wKfBI7Cqe40npYCRwNnAA+Qdh78hn41rmYN0NiGl647j/QAHVzuIITpc4BtGi2BFGcF8BLgbNJDc3B5X7O7n90NZAzQ2K4/XfdEQqf6OkJ0sJZ+FnAMziGqbtgbOJFQYVhPfcf6OuDRDZajCTeSMUAfaK4cjTmbegN0Zph+Gng+DgVVs54EnAxcQb7j+7SmCtOgrAG6prlyNGZfwq2JXAfZ4I/PV4A/BXZqomAqymJCF6SPEHqY5D6eb6Wfw5tXkzFA1zZWjGa9kPwH3OCyntCafyJpw+YkgB2A44HPE652mjp+txBuUfXRajIGaF/Guw7zUZoN0allM3Ax8BZCVxJpLnsQfni/TTgf2zhm/2f2UrbnJjIG6IbmytG4RYT7lW0ckIPLKuBUQt+6Po38Urr9gJWEH9q6Gz1jlzPp14CamX5FxgDt+3NPFgKfoP0QnVpuBD4IPJN+9bXT3BYChwN/S3rn9hzLh+h3eELmAN3cXDlaswB4I+1dHs223A58Cngetuj30XaE+4qfAn5L+8fb4PJL4MX5it4pWQN0orlytO4A4BzCNF1tH8Azl/uBLxOGlNqiP752AV4KfJ3ppyR0ZVkLfAn4Q/pf6xz0azIHaEkfJoQJFl5PmDCh7YN62DLYov+oTJ+B6rMf8CbgIsItsbaPn8FlM3Ah4Vhakan8XZc9QEse9/044G3AZbR/sM92AlwMvBlb9LtiAfC7wHuBn9H+MTJz2UKoHKwkzA9Rut+QOUAdnhg8ltD16BJGm5Qk53Il8B7gMGzRb9ISwrwIHyW+RtPU8lPgrwjHsaZlD1Af77u1vQi/4D+i/W4msy2/Ak4nzB7lhCf1W0FoaPkyYc6Itr/vYcu1wCnAEzJ9Bn1wM5kD1Hkw57YH8GrgAkK/2bZPmmHL3YTRK8cTRrMozb6EH84f0M3GxgnCbPGnECbO0fxuIXOALmusKONvBSGkziK0nLd9Mg1bNhLum66kfzPr5HAIYZKOy+jurZtVk/t4cJZPoN9uJXOAbt9YUfplKeHy+TTiv6Q2Tr7DsnwK42dbpr+3rt7PHPzeDsryKZQje4Du2FhR+msRYajmqXRrpMnM5XpCcJQ26/7OTF85dPV+5mBoPj7Lp1Cm28gcoH2cwqptTya0lnexm8vUcithmOvR9HMk1P6EB6pdRPf6Z04tm4AfAm8AHpPlU1D2AC21g21T9iXcj7yA7jZMrCHMbn4iYaDBuBq8n9n2Zzrbso5wLKwkNFAqr9hhtNFf6C6NFUW7Ep4eeh7dG5s/tWwiNEKdRPcvJZcTxpufQXx/vyaXqR+oE3CobtOyB+gjGyuKBi0jnPxnEZ4I2vZJPtvSten4pqaCu4B6nwdU93In08/Ssq91e24nc4A63rp92wJ/RKhJxd6zaXK5gTAF2hE0Nx3fjsCxwMdo5tEWoyw3Ej4fpyvsjuwB6iMoumUhocvRycA1tB8Ksy13EZ4JdQL1dt5fNFn+k+h+LXOC6Z4NXamh6+HuIHOA2tm6254IvBP4Cd3t6P0QcC7wcuJvCS0j1NjeDpxPdwcoTC2bgH8G3kqYjEbdFhWgCyb/EGMvwg14dd9jCJezxxIuo7s4Bn4zYUKWcwldiK4iNJhtS2iwPGhyOZgwq9GT6WY5Bj1EqA1/k9AYdEe7u6MIdxAabyuL/UXdu8adVXOmWqC73gg1rstUI5DzC4y3u4j73qMPlH0aK4pyWUy4B3ca3e7O0/Wl1JFafZY9QJ0/sH/GoUN5F5bNk5/RyThXQF/dTeYAdabzfnss3R8J1eSylumRQM7Y3n/ZA7Tro01Un10I3Y6+AjxA+2HW1JKry5W67x4yB+iBjRVFXbIcOA74LPH3icZh+QXwAezUXrrsAep8gxqcju8XtB9+KcvURNIn4cTDmhbbQyX6wPNg00yHEILoYrrbeX+CMOx1qquR89pqmNj5X6MPwkMbK4rG0d6Eae7Oo/1hlZt4eKu5Qyc1n+wB+h8aK4rG3QrgJcDZNNcI9Vvgc8CLCDPLSzGyB+h/bKwo6pPBZ0LFPjp2ruV2Qm33JKxlanRRcyukjIV/MnBFXXurIi0EngL8CfB7hBm+9mDux8VsIDzU7UbgSuBywuX5dcQfw9Js7iei61rK8LOFCetIg7YQJhC5ZMi/LWA6SB9BmJhjA+HSaksje6eSRV3BGKDqmglCXzwG/is1JSpAU8LQAJUk0sLQWWck9VX2GmjXJ7OVpEZYA5WkadZAJakJBqgkTbMGKkmJDFBJaoIBKknTstdAbYWXJKyBStIg74FKUhMMUElKlBKg29W+F5LUDdkv4ZclrCNJ48AAlaQmpATo8tr3QpK6wRqoJCXKHqDWQCUJa6CSNCh7DXSnhHUkaRxEPSI7JUD3SFhHkrpuCQ3UQPeIfRNJGgMvSVlpImHZuYadlaSuWABcRWQWpj7j/XGj7q0kdcjzgENiV0oN0KMS15OkLvrL1BVTLuFXAYtG219J6oT/RFoOTjDCin/eQMEkKbcf0EKA/gantpM03v6Q9AwcKUAngDfnL58kZbEtCS3v1Biga4DH5y6lJGXwPkbLv+gAXTPk735Iemu+JLXh94GNbJ1nDwz5u9oC9GPAZUP+fmXeskpSbR4J3MTWOfZvwFuG/H1tAfpBYH/gvhl/vwE4ImOBJakOi4DvsXW23QDsDrxmyL/VFqAfmtyJFw35t9uBx2YqtCSNagHwSbbOrjuAAyZf89oh/15rDXTKqUP+/efAipoLLUl1+BuGt+s8deA1rx/ymiwBuhA4d8hrrgB2q7HQkjSqd7B1Vm0EjpnxupVDXpclQAF2AH425HVXA3vWUGhJGsUC4H+xdUZtAV425PVvGvLabAEKsA+weshrVxO6CkhSG5YAZzI8PF81yzpvHvL6rAEKsC9w45DXryfcU5CkJu0B/Jjh4TlXJr11yDrZA3Rqh4f1EZ0g3Cvdp3LRJSnds4Gb2TqHNgAvn2fdk4asV1uA/u953nw58KVZ1l0DvAtYOl/pJSnBDoTBPlvYOn/uAv5zhW28bci6jQXolFcDD82yjdXAGycLK0mjWgy8gjBD3LDMuZLpfp7zGdZa33iAQphk5IdzbOte4P0kTKMvSYTZlF4GXMvwjNlEmDBkScQ23zXLthoPUAhdCF4MXD/Pdq8G3kNotd8l8j0klWVnwqX2LcyeKVcSZpqP9e45trnVsniUUlQwAfwj8FVCt4F3Egbyz/QEQvK/a/L/HyQMDb0XWEu4HXDv5H/XD6x3z4ztPED41ZmyFlg38P+bJl8zaOY25rJucpt12AzcX9O2SvcIxu9R28uJqxl1wRLCfrfpGYSGoNn242ZCjnyWcC80VtTMcrkDdMoG4CPAZwj9rN5AOOhns/3kIklV3EG4Qj6dUNFKFRWgsfN4TkS+fqb7CVXkvQgNSbeOuD1JZbsDOIXwqPX3M1p4QuYArcuDwGmE2ZteSWg9k6Sqbgf+ijCI52Tqux3WyUv42awHPkG4X/EyQgdYSZrLj4BP8fD2jbqMVYBOWQ98fHKRpLZ0+h6oJHXZWNwDlaQuMkAlKZEBKkmJDFBJSmSASlKiqCHBtsJL0jRroJKUyACVpEQGqCQlMkAlKZEBKkmJHAsvSYmsgUpSIgNUkhIZoJKUyACVpEQGqCQlyhqg4/bsbUmKYYBKUiIv4SUpkTVQSUpkgEpSIgNUkhJFZeLiyI13IUAXAI8F9gceAWxDKPR6YA1wE3AtsLmtHZQ0tqLbhSYilg/Xtpvx9gFOB+4dsl8zl/uBz0+uI0lVXUhcJka9+LTmyvEwf0y14Jy53As8u4X9lTSeLiIiY8bhHugLgHOAnRLW3Qn4NnB8rXskqa961Q/0GYRL8VH2c1vgC8BzatkjSX3Wm1b4nYCzgaU1bGsbQojuXsO2JPVXbwL0FOBRNW5vV+D9NW5PUv9EZVxXA3Qf4LUZtvtnhO5PkjRML2qgL2b+PqpXAa8BDptcXgusmmedRcCfj7pzknoraz/Qv69tN+d25Rz78AAhLIcVdCHweuDBOda/PPO+Sxpfl5OxH+gZDRRgCbBplvf/DfA7FbbxpMnXDtvGJkLLvCTNdAUZ+4HGDv1MsS/hUnum24BnAT+tsI0rJl/72yH/tmjyPSRppqz3QJsI0GEd5jcCxwDXR2znesIIpo1D/m3HhP2S1H9jH6D3Dvm79wGXJWzrUuDUIX+/IWFbkvovayPSl2vbzdntBGwZeM97gB1G2N6OPHwc/RZCn1BJmukaxvwe6H2Ee5hTvktoeU91/+Q2plwH3DnC9iT1V9ZL+G0iX5/qOwN//lUN2xvcxiU1bE9SP439PVCATxImSIZ6Rg49fuDPX61he5L6Kes90O/XtpvzO23yPe9jtAlFljHdsf5qhneRkiSAG8nYkf7C5srBLsANk+/7yhG28zqmG4+eW8N+Seqvm8gYoD9qrhwAHEpoBPoVaX03dwJuJuz7B2rcL0n99GsyBui/NFeOf/cHhEvwlGGkZxL2+0y6P3m0pPZNVbiyBOilzZXjYZ5C6Hp0dMQ6Lyc8pXNllj2S1Ee3kjFAf95cObZyAGFW+So1yScDn8CnckqK81syBmjMWPQ2rWh7BySNpTuIyMTY+4Lb1befWd3T9g5IGktZO9Ivi3y9JI0TA1SSEmUfC9/UcE5JalrWAAVroZL6ywCVpETZA3SUyY0lqcuyB6izuUvqKwNUkhJlD9B9E9aRpK7bhgYC9LCEdSSp696UslLMWPgJwgPebEiS1Cd7M/3kimyTiUwtb2ymTJLUiPOIz8EHIdQoY1e8G3hkI8WSpLyOI60i+QGA9yau/LkmSiZJGe37RcYNAAACzElEQVRI/GM8JoCHgN0hPDfozoQNTAAvzV8+ScrmLNKy78ODG3lL4kYeBJ6UsXCSlMt/JS331gKPHtzQUsKTL1M2djvw+GxFlKT6/Q5h4vWUzPu7YRv8i8SNTQC/BPaqvYiSVL+DiXx0x8CyBnjMsI0uBP41caMTwGqsiUrqtmcBt5Gec6fMtfHfBzaPsPHbgGfWVFBJqssi4G3AJtLz7WZg+/ne6IwR3mAC2EAYEpUyTFSS6vYM4KeMlmsTwDFV3mw5cHUNb/Zj4NARCi1JozgA+BKwhdHz7OMxb/xEQkfRUd90M/B14I+AAwnhLEk57Q18CtjI6Bk2AaxiluxaMMdOvAw4c+SibG0tsI7Qh3QjcD8haAef5T71b4NmPut9A6FFbFCV9TZOvi7GesIPSoypcsZ4aPK9mnQv4SDpmgnCvklVPQp4O/BKYNuatnk78FTgxmH/OFeAArwbOLmmHZHUDWsIFZC+WQ4sqXF764AjgX+Z7QXzBSjA6cDr6tojSRoDG4DjgW/O9aJFFTb0fULHUYdsSirBesIMTefP98IqATpBmCtve+Bpo+2XJHXafYTw/G6VF1cJ0CnfJ9w7ORL7eErqnxuAo4D/W3WFKvdAZzoC+CKTc+FJUg98D3gJYWrPylJqkhcR7odekLCuJHXJWmAloa96VHhC3CX8oAcJM9JfBzwdO8hLGj8XAP8F+FbqBka9l/kF4CDgI4Qkl6SuuxY4FngOcM0oG0q5Bzqb3YG3EkYBWCOV1DUXAR8idE/aUscG6wzQKTsBLwROIMyCkuM9JGkumwlzFP8CuBD4BnB93W+SO9x2I/Qf3ZFwv3UhIWAhjFVdNvnnHYDFk39eCmw3xzbn+/ftJl8zm2VUHyc7uF91m68co1hM2PdcVmTcds7PXMHM+SFyrxcz38LgHBez/XlqbooNhLk07p98j6k/30MIy+zDVf8/pbd/UgBL4LEAAAAASUVORK5CYII=;labelBackgroundColor=none;" vertex="1" parent="1">
          <mxGeometry x="360" y="320" width="70" height="90" as="geometry" />
        </mxCell>
        <mxCell id="OipEP8MaM-20ByhYYCx5-33" style="edgeStyle=orthogonalEdgeStyle;rounded=0;orthogonalLoop=1;jettySize=auto;html=1;labelBackgroundColor=none;fontColor=default;" edge="1" parent="1" source="OipEP8MaM-20ByhYYCx5-4" target="OipEP8MaM-20ByhYYCx5-12">
          <mxGeometry relative="1" as="geometry" />
        </mxCell>
        <mxCell id="OipEP8MaM-20ByhYYCx5-35" value="tcp8089/9997" style="edgeLabel;html=1;align=center;verticalAlign=middle;resizable=0;points=[];" vertex="1" connectable="0" parent="OipEP8MaM-20ByhYYCx5-33">
          <mxGeometry x="-0.275" y="-3" relative="1" as="geometry">
            <mxPoint x="3" y="1" as="offset" />
          </mxGeometry>
        </mxCell>
        <mxCell id="OipEP8MaM-20ByhYYCx5-85" style="edgeStyle=orthogonalEdgeStyle;shape=connector;rounded=0;orthogonalLoop=1;jettySize=auto;html=1;exitX=1;exitY=0.5;exitDx=0;exitDy=0;entryX=0;entryY=0.5;entryDx=0;entryDy=0;labelBackgroundColor=none;strokeColor=default;fontFamily=Helvetica;fontSize=11;fontColor=default;startArrow=classic;startFill=1;endArrow=classic;endFill=1;" edge="1" parent="1" source="OipEP8MaM-20ByhYYCx5-4" target="OipEP8MaM-20ByhYYCx5-53">
          <mxGeometry relative="1" as="geometry" />
        </mxCell>
        <mxCell id="OipEP8MaM-20ByhYYCx5-86" value="tcp8191/9888" style="edgeLabel;html=1;align=center;verticalAlign=middle;resizable=0;points=[];fontSize=11;fontFamily=Helvetica;fontColor=default;" vertex="1" connectable="0" parent="OipEP8MaM-20ByhYYCx5-85">
          <mxGeometry x="-0.0163" y="3" relative="1" as="geometry">
            <mxPoint x="4" y="3" as="offset" />
          </mxGeometry>
        </mxCell>
        <mxCell id="OipEP8MaM-20ByhYYCx5-4" value="" style="shape=image;verticalLabelPosition=bottom;verticalAlign=top;imageAspect=0;image=data:image/png,iVBORw0KGgoAAAANSUhEUgAAAVIAAAG0CAYAAABgyK9wAAAACXBIWXMAAA7DAAAOwwHHb6hkAAAAGXRFWHRTb2Z0d2FyZQB3d3cuaW5rc2NhcGUub3Jnm+48GgAAIABJREFUeJzt3XecnWWd9/HPTCa9kgDSQlPUNYoNsNCWLkgVBKOrrrqgLMquHXRtqI/4sIKIj6LISxAWXQIICBIQRIqNYpAiGkhCSCGFEFJJnXn++M285syZMzPn+l13P9/363VDZnKu677ukzm/ufrVRrp2Az4FnA6MTvleIiL1NgH/C5wHPJ3WTdpSyvflwOeADwHDU7qHiEizNgO/AL4FPJl05kkH0tcDXwZOBNoTzltEJFYncB3wdeDxpDJNKpDuCnwR+AgwLKE8RUTS0glcD5wDzI3NLDbojcGqylcD+6FaqIiUQxswDfgoMAH4PbAlJjOv/YArgVdH5CEiUgRzgX8F7vMk9tRI27F+0CuB7T03FREpmG2A9wMjgHuBrpDEoTXSkcBPgemB6UREymImcBqwutkEIYF0CvBL4MDAQomIlM2jwHHAs828uNlAOhmr7k5zFkpEpGzmAQcAi4d6YTOj7GOAm1EQFZHWsgdwB9YaH9RQgbQDa87vn0ChRETKZhpwK1ahdPsWNnqVxPUC8Hm05l5E0jUCOANYSnLx60fewhyCTVCNLcBG4GJseoGISFbGA18F1pNMMA2erbQdsCSBG98A7BJ6cxGRBE3FYlFsPFvZnVfTfhx5w4XAKZ4nFhFJybHAM8TFtmuavdnriWvSXwmMdT+qiEh6xmF7g3jjWyfwtmZudFfEDT4b+5QiIhk4B4tZnlj3R4aYg7+/M+Mu4KzEHlFEJH2fwB/vDh0s4xnOTL+R4MOJiGTlfHwx75cDZbgrth1/aIZ3on1IRaSc2vF1Z27FVj71c54jszUETgcQESmYXYG1hMe/rzfK7HFHRl9I5bFERLL1ZcLj32P1mbzckckKbCqBiEjZjQWWEx4H94Levs0THDf+IVYdFhEpu3XYQqRQx0FvIPVs1jzTkUZEpKg8Ma1P7HySsOrsJmCUv7wiIoUzmvCZS0/0JO7AAmNI4qa23xcRKZlFhMXCjcCwdmAHYHjgzVYkU2YRkUJ5PvD1I4Dt24GJjpstc6QRESm65Y40E7yBNDRqi4iUgSe2TWwHJjgSrnSkEREpOk9sm+Stkb7kSCMiUnSe2OZu2iuQikgVeWLbxHZ8u9lvcKQRESk6TyAd145vYr1qpCJSRZ5K4sh2bB5UKAVSEakiTyAd0U74ZHxQIBWRavLEtuHtwMiMbiYiUnSe2DbC27Tf6EgjIlJ0mfaRbnGkEREpuq2ONCO8TXsFUhGpIk9sczftFUhFpIoUSEVEImUaSD39CCIiRbfZkWZkO7ZDfijVSEWkijyVxI52YJgjoQKpiFSRJ7a1K5CKiPTyxLZh7fQeyZz2zUREis4dSFUjFRExmQZSjdqLSBW5+0jVtBcRMZn2kapGKiJVlGnTvtORRkSk6LocadzTnzw3ExEpOk9sc9dIFUhFpIrcgdTTR6pAKiJVlGmNVH2kIlJF7j5S1UhFRIynkqg+UhGRGhpsEhGJpMEmEZFIrj7SDqAto5tJMY0HdgG26b4mA6OBccDwBq9fjx3HvQZYWXMtwHcmuEiRePpI2z2744MCaRlNAfYB3gy8CdgT2A0LnElZjgXUecAj3dcsYFGC9xBJkzu2PdOdOOSaFFdWyUA7cADwDeAhbH+E0H/npK7ZwPeB47EasEhRbUP4z/c88AXSCZk8knjsB1yE1QLzCpyDXRuBm4H3YF0IIkUyCWcgne9IqFpFsUwAzgIeI/9AGXKtBq4A9k38HRHxmUj4z/Ez4Auk4zJ5JBnKLsB3sYGfvINi7PV74FR8p9qKJGU8zkD6rCPh2EweSQayB3AZ1kzOOwAmfc0DPohvfrNIrHGE/8zOBxtlDU2ovq18TAHOx6YZ5R3w0r6eBN6Nb3qeiNdYMgyko7J5JunWAXwKWEX+AS7r635g7/i3UKQpYwj/GX0WfKO7I7J5JsHmfT5I/gEtz2szcDEa5JT0jcYZSBc6EiqQpm80cCH5zv8s2jUfOCTmTRUZwkjCfy4XgK9GqpHVdO0D/I38A1cRr63At9Evc0nHCMJ/Jhe2AYuBHQNv1oFOEk3L2cAF5BMongeew5oqK4AN2Dr6WlNqrl2AXcnnF+tfgNOAp3O4t1TXcGBTYJpFWmtfHOOBn2BzKbPwD2zu5gNY7fdx+gfNZgzH1uzvja3hfzOwP+n3Z74J+DO2Quo3Kd9LWocntrWB1UBCq7KakpKs3Ul/VdJK4OfA+4DtU36eDuBtwJeAh1N+ri3AJ1N+Hmkd7YT/DC4CXyCV5LwVWEI6QWYDcC1wLI23xMvKHsA5WC04rYD6YzSJX+K1Ef6ztxjCP8TqG03O8aQzuX4+8FlsJ5siaQMOBGZgNcmkn/taNAgl8UJ/7p6D8EC6JaunqbjpWKd2koHkcWwApgyzKl4O/JDkl7nOREuYJU4njkC6NDDR5qyepsI+QrLzQ5/C+j49x8bkbQ/gZyT7ftyNljGLX+jP4hKAZYGJNmb1NBV1Csk1a18CvopNIi67NwJ/ILlgejvVeF8ke6GfT1cg3ZDV01TQiViNPolA8VvgFdkWP3XtwMewfUqTeI9+gQagJFxol9tSsHN2QmtBEu5tJDOwtAWbVlTGZnyz9gDuIZlgenHGZZfyC+23dwXS9Vk9TYXsQXhfdKNrEXBwxmXPSzvwZZLpOz0947JLuW0g7OdrGdiywJBE67J6mooYDzxBfDD4C7BzxmUvgqMI/xmtvzYCB2VdcCmt0JbjcrA11SGJ1mT1NBXxC+KD6E209vEur8BmJsS8h8tozV9EEm4dgYHUM9+wK5GitoZPYPM6Y/wIO9iudiHEdthofVHni3YCZyaY39NYH/PN3f/32A64CjgcK5/IQEJjXBvAC4RF31UJFbbq9iZ+svlF9N/XYALF3+g5rbnGY7E5ojFlOzelskl1hB4m+TyEB9IXs3qaEhsBzCLuA//NBvmOwqY95R0o8wqkYEdB3BlRtk3AfimWT8ovdPrdCrBdgUISebZaazXnEReILmiQZwdwY2S+VQikYDXTP0WU7zHy3cRFii30bLQVYDXM4EQyoL0Inz5Re11B/+Z8G3B5RJ5VC6RgG0vHnCKgJr4MJDQmvuBJ9HxWT1NSd+D/cM+g8UqciyLyrGogBZuf650atR7bOEWkXmh350oIr8Yuz+ppSugk/MHnIRpvtHFuRJ5VD6Rgo/DeZbe3ZFhOKY/QKaGuQLosq6cpmWH4J94vxs4/qvcewrf0KsKV9Q5hn48o68EZl1WKL7SV8yKEj1AtyeppSuZf8H2QN2G75Nd7C+ls+lzFQNoO3OUs6x/R0TnSV+hGTq5A+lxWT1Miw4DZ+D7IjQY9pmC73OcdEMsSSMFq9KFNsp7rpBzKK8UVui/GKgiffKpA2t8p+D7Av6P/Lk5twK+d+RXlymvz7w8HlLH2eiSPwkphuQLp2sBECqT9/ZnwD+867Bjjev/uyKtoV16BtA375eQp8xHZF1cKKjSQri7qWu1tgPNTyHcD1u+4AfsFshrr3/g78Kgzz4PxrZS5AGu+19oD+LazHGI/1Gdi/5ahP9ufAX6TeIma8z20m3+zziH9RUFdga9vg/CdThYnVNjBTA0sUxLXF51lvdlxr/nYUsdabZRj+WeRa6Q9LiW8zJ3Y/gh5CO1ea+VrqvM9DhF6IOiadjRi2aO+dtiMqcAxjnT/h/4bZJ8FHOLIS/r7MuHbPbYBZ6RQFimf4JhY5eMqQnRih6WFOoPwM4GWYqdm1toT+Jbj/tLYMqxWGmo6amKL1TJDtCmQmgcJX7E1HDtWOdQl9D/36iJae+PmNFxE+Im3k4FjUyiLVFubmvbmNkeaI4AdA9OsBX5Q972DgeMd95fBPQdc6Uj3waQLItWnQGp+7UjzHkeaGfQdcWwD/tuRjzTn+440R2LnbEnrcjXtQwNp6E2KbjnwcGCaUfhqkfU1pPcB+zjykeY8hu1bGmIkmlPa6jTY5HAn4Wf4HAlMDEzzDHBvzdcjgW8E5iHhfuxI45mJIdWhwSaH3znSeGosV9H3H+gUGq9skmTdQPig0ztRl5c0T4NN2GFqoTyB9Ka6rzVnMRurCF+xtAPwmhTKIhXV6oF0EXZeeohdgFcFplmKHYbXox37sIbWlMTnOkeatydeCqmqtqKutV8JfDSD+yxwpNnXkeZ2+vbDdtIbjCdigXUcNjd1FH13yh+LnUo6kAkMvihgEtn/sizaufG3Y90qIe/D24HL0ilOP2ejw/ialcXhm64B9S2ErStdlERJS+zrhK8Pnp5LSaXWY4T9mz2RTzGlABYT9rOySYNN4d7oSBM6BUeSd1fg61+JtQ5EhtRO+BSoqs0jDfXqwNevAOalURAJ8ofA13cA/5RGQaRy2tpRYAzRTuND6gYTOtlf0vGQI820xEshVaTpT4FeRvjuQLOGfolkYB52XnmI3VMohxRfcOVSgTTMzo40cxIvhXh0AX8LTLN7CuWQ6tHKpkCTHGk8G0ZLOkKnu2nlmTRFgTRM6Pp6UCAtktBAul0qpZCqUY00kCeQeib9SzpC/y0mp1IKqRxPIG3lUf7QgaYt9D+bSfKzMPD1U1IphVSOaqRhQs9nWpdKKcSr/oiXoWhCvjSjS4E0TOj7pdposYTuAeBZsCItSD8kYUKniml3p2LxbKYy2IYxUk2ueaSp36RCQgOjPoTF4vnZ3Zp4KaRqujxLRFt5Av/qwNePTaUU4hVacegENqdREKkUHX4XaE3g68ekUgrxelng6zekUgqpGleNtJWFBtKejZqlGHYIfP3aVEohRZdJH2krCw2kEL5blKRnp8DXL0ulFFJ0Oo45ZZ5AunvShRC3HQNfvzyVUkjRhdZI1bQP5PlgaeOL4nh54OuXpFIKqRzVSMOsxHa8D/GKNAoiwYYDewem0ckG0hTNIw33dODr35RKKSTUNMIH/rSXrDTFE0hbeR4pwFOBr98HvWdF4Dm0MPSXplSDa9Q+uGM19CYVExpIJwN7plEQCbJv4Ou7gL+mURCpHvWRhgsNpAD7J14KCXVU4OvnAavSKIhUTldH3iUYwBTghwGvXwl8NKWy1As99wfgGOBnSRek26gU8y6r/wCeq/l6GuGtgr847jsO2BUY3f318O7vgVVaajcGn0Rvl8947PhnsNVwPfvejqR3dVxH9+t68vog6W/T+BNgQsr3CHUm4QO+mdiCNWOavbI4OmNqYJkWZVCmHsOw+aQh5XuB3g9K0sYFlqXq14v03zf2XEc+Zzfx3tf7WobP6TmtIdSyDJ+n2Wtqqk9sng0s0ybNIw23lfCz6rcB3p5CWaS/e+m/Y9OxznxCHepII8UTHBPVR+pznyPNaYmXQhq5o+7r3YG3BuaxEng0MM04YL/ANFIN2iHfqf7D2ozp9PadSTo6gV/Wfe90wisMMwnfBPoAtP9sy9KEfJ8/Eb436TbASSmURXrNpG9/+XDgw458bnGkUbO+hamP1Gcz9qEN9ZGkCyJ9XFz39YmEb523GbjNce8DHWmkItS095vhSHMottJJknc3/btcPu7I53asjzTEaLQUuEo02JSh2/DN4/tC0gUROoFP133vMOAgR17XONLsg/pHW5kGmyKsA65zpDsBmyAuyfkZMKvue1935LMGuMmRTlPbWpz6SONc5kjTjk3clmSsA75Y971jgLc58roKWO9IpyXALU410ji/B55wpDsZOCThsrSqzwCLa74eBnzDkU8X8ANnGVZiS1I3OdNLyXmWLWZRg10BnBrw+pfSKkgTLgQud6S7GBug2JJscVrKzcCldd87C9+WeXfj+6UItu69x3hgW2wdfe1a+RH0Hs9duwbfy1NzDvVv9K77L4os1tm7YtxGwtaVzkuipBUyEquNeNYNfyKB+7fqWvtFWMCqNRWb3+vJ78gm32+pvnmE/ey8BHZ2twJpnM/g+/CuBfaKvHcrBtKtwBEN3osbnfk92NQ7La1CgTQnY7B+Os+H+E/E7QzVioG00WDdqRH5ndDUOy2tQoE0R2fh/yB/JeK+rRZIr6L/0S2vwLbP8+T3+6bfaWkVmQTSuVk9Tcl0YDsGeT7MW7ApOx6tFEjvof/gxyhsE2Zvnpq6JPVCA+l6UI00SYfi/0CvBF7puGerBNInsI1f6l0ekee1Tb7H0lrm4gikLwUmUo10cD/H/8H+O3YERYhWCKQLsH1F6308Is81wC7NvcXSYhRIC2A74o5ouJuwfUurHkifA17V4LlPw0bvvfl+ptk3WFqOAmlBxIwgd2Fb9DU7EbrKgXQ58NoGz3w44fOfa69ZpHeGlpSfAmmB/Ji4IHIjtgJmKFUNpCtpvEJpP/yT7ruw/Ua15Z0MJjSQrgOLpgqkyYsdTe4JpkM186sYSFcBb2nwrIcRF0S7gPOHeD9F5hAYSNuwQBrSJzeP8DPCW9XLgYcIH0CqdT9wPANvNtxB9Y4weRJ4vO57pwBXE7f2ezbwBvLdm0GKbw5hMW59z39UI03PCdjGwzG1qMdp7V9eH8Pm2sa8h53AwVkXXEopuEYK4YF0TlZPUyHnE9/cXYENsrSSUdjuTkl0F/ww47JLebkC6brARAqk4dqxpY2xwWAzdlTJsGyLn4s9sW6RJIJoF/BTtP+uNCc0kK4FBdKsDAduJZmg8Dtsy7iqOgnrE04qiPZcV9Iav4QkjgJpwY3BNslIIiisxPoOq1TL2hk7ByvpAFp7XY2CqQzuaRRIC28b/JubNLruB/bO9AmSNww4G5v2lGYQ7bl+jibky8BcgXRtYCIF0ng7YVN8kgoMW7E+wLKtHW/DpnbNIpsAWntdS3MLHqT1hAbSNaBAmpdtgQdINjisBy4BdsvwOTzasGlhsQsWYq8bsZkBIrUyCaRPZ/U0LWAc8BuSDxCbsFkCRdtrcxLwUfKpgQ503Q1MSPOhpXQUSEtoJDCD9ALFE8Cnya+W2o4dLHcN4XOWs7oewga6RACewhFI1wQmUiBN3jBswniawaIT60r4ElZTTbN/cE/gDOB/sR2c0n6umO30eq5l6CRRMQqkJXcmcdvDhVxrsWbthcD7sV2Vtgss73hgGnAi8F/YAE7ozjkx1wvd9/5XkgmmW4EraO3luBIeSFe3YYF0XMBN5mCHjaVpCuVa0nclNtk+CftjNbm8mprrgKXYPNXajVI2Y7XYiVif4vY0PvojK38ApgPPdn/9fmzmQhJzRLdiG5w8iW0s/bfu+z2SQN61JgPfAcYmnG+VnYktl07TU4TFuMLWSKcGlinvawvwiQSffwr+M9qrfm3Alsk2mgc6HQv4ad17Lhb4pjW4t9chhM/lbuUrixV9wTVSUCBN8rqYZFfNnEF2k9TLcD1E4x3za51KusG0C+t+SfKokkMp7kBc0a7CBtLQjXIVSAe/bibZptou3Xnm/Vx5XmuAc2l+NdLJ2BSwtMt1BTCiyTIN5XAUTJu5sgikodOfVoECaRrXw9jqpSQdh/Xb5f1sWV5bsCNbdnS8XyeTfs20C9tAJmbj7lpHEn70T6tdlQmkWaxsKnsg7cIGQZJeAz8C+BQ2GJT386V9/Yr4vsj3kcxo/lDXI8AOkWXt8Q4UTAe7FEgDVCGQdmHv7dEJvzdgXQefA5YU4BmTvDZiI+9J/gL6CPEnFDRzPY0dLZOEo7FBtbz/PYp4FTaQhg5mKJCGXZuxKRtpGAl8mGR3k8rjWgp8E18TvhnnZfQczwGvT6jM70TBtNFV2ECqPtJsrotJd+/QN3ff4/kCPGsz13psAv9xpL8LUzvp7GnQ6FoJHJhQud+Bgmn9lUUgDd3Y+UVQjTTL65fY5s5pGgkcA1xG8Zr+C7Cm+2mk/z7U25HwqX7eaz32CyIJx5PdarcyXEWskSqQ5nA9SHpN2HptwOuA/wCuxwbAsnrOTuwHcgbwceDVKT9rM75Dds+/GfhAQuU+gWymc5XhKmSNtA2LphMDbjKX5DrVBzKV3qV/VfQscCzwWA73fhk2mLMnsEfd/yc78lsBLMRqmwuwZZWPAH+le6JygeyD/SLLSidwFnYSaqyTsKXDrb4Z9a7Yz1maQs+1X1XU4xZWYCtUqmwn8gmkS7H+wkbGYl0Dk7ANj0dj6+o7sN+8G7Fm67ruPy/BpuqUxV+xco/M6H7twA+w9/GiyLx+CRxA8TftTlva6+w9uqCYTXuRtOS1qfT5WTycJCJ0B7OV7d1/EGkVebQCAD4PfCOne0uY4JjoCaRtoTcRKZC8AinAF7EBL32GKuhF1LSX1rEb2SwbHez6EenOKZY4oU37F1QjlVYzH1sIkKczgMtJdstFydlKVCOV1rIDdkxJnrXSLjSdqahcNdJQqpFK2S0BTif/gdZTsdpxUnuaSo5Ca6Rz8ymmSOK+Rv610i7g19i8XSmGeYT9+62A8CaOAqlURTtwA/kH0i5s/9WsFgrI4IKb9qBAKq1tNHAP+QfSLuA2VDMtguAaqaZgSKt7CdupaVbeBcG2zbsRC+5SIgqkIra5yjuwM7HydhQKpmXTpXmkImYZto/r4rwLgh2CdxMKpmXR5qmRhgZekbKYAxyCTY/K2xHATGBc3gVpQaGVxS417UX6mo3VCIuwXdtB2NQoBdOCUyAV6e8x4HC6p7Xk7EBsNH983gWRgamPVKSxR7CTPNfkXRBsQ+dbUM00K8Hdl6qRigzsT9iRMOvyLgjWzL8VO8VA0hVcWVQgFRncvdjUqLV5FwQLphqAKh4NNok04X7gaIoRTA/ABqBUMy0QBVKR5tyPzTMtQjA9EDsMT/NM06GmvUiK7sMGoIrQZ3oEtgJKa/Pz51rZJNLK7gVOpBjHUB+JgmkhqEYqEu5O4ASKEUyPwrYC1BZ8OVIgFfH5DVYz3ZB3QbCBMAXTHHVQzAn52wHXZHAfScdWbMpQ2u7A//O4FPgYcYNHdwAnYQM/eTevjwH+B5gObE4gv28B+ySQT9LeCyzPuxCNLCNsE9N5GZRpamCZdBXrSuKD3IzOyHLeTzJzMo/Cmvl5v+9dwHVYBSnWtti+A3k/T/01NYFnG8r8wDIt1eF30sr2x9axxwbT27GaaRGa+ScDPyc+mD6PdRksiy5R+Wj6k0igngnuscF0JsUJpqdgzfzYYDoHOz2gCNO9Ck2BVMQmuCexjn0m8C5gY3SJ4p0KXA0Mi8znAazfdWt0iSpM80hFzEEks1roNiyIbYouUbzTgMuIrzD9CvhkfHGqSzVSkV5JrRa6GQtiWQ26DeZDwCUJ5HMJcEEC+VSSAqlIXz3nJcUG0xuxPtMiNPP/HbgogXw+D1yVQD5Vo8PvRBo4Erie+AnutwLvoRjN/P8EvhCZRxdwOnBPfHGqRYffiTR2DMk082+kOCugvgl8KjKPjcDxwKPxxSksHX4nkqB3kMzSy9soztSo/wb+LTKP1dgvmgXxxakGBVKRwSW1jn0mxdjopA24FBsMi7EIC6YvRpeoAoq61n45NoIq5ZRV98+RGd0HYBK2Pj/GHViz+CZgTHSJ/IYBP8NqlrdF5PM48FayWbbZo5Dr7AGeI2xd6fx8iilSGQdiQSzvdevrgX9O91FLaQFh7+NiTcgXyd592OmkeR9bMhqrHb8p53KUnvpIRfJxL7Zr1OqcyzEBuAXYNedyFIlG7UVK5A/AocALOZdjR6yvdFLO5SgtNe1F8vUwNjMg79Hv12Cbqaty5YiJetNE8vcAVjNdkXM5jgbOzbkMRRDctAdYSNgI1bMJFVZE+nojtqFyniP5W7ANr1tZaExcqCWiIsUxC5satSTHMgwDvk/8PqYtRUeNiBTLk9hilDyP+HgDtmpJmqTBJpHieRw4hHxrpkfneO+y0fQnkYL6G3AwtqY9D7vldN8icM0jVY1UpJhmYzXThTncO4ljqstK059EKuYpbD181rNl8t6lqlQUSEWKbw52ON/cjO/ZqtS0F6mo+dik/awC3MMZ3acS2tF0JpGymA8cADyW8n22YhuZSJN0+J1IuSzBaqZp1hhvIt95rKWjpr1I+TwPHIbta5q0rcDXU8i3yjSPVKSkVmGH892ecL7fBR5JOM+W8AzatESkrEYAM0hmw5L7iD/krwoWE/a+zaP7PyGJdASrSLEMA64gLoj+GZiccbmLSoFUpEW1AV8BOgkPor8Axmdf5MJyBdK5gYkUSEWKazq2KqmZz/Ic4JR8illoCqQiwt7A94Cn6V9DXQZcC5wEDM+rgAUXGkjntmGBdI+AmywEpiZX5oa2w86PKbs1wLtSvsdo4OaU7yFhjgU25l2IbhOAbYEO7CiTvI8zqfcLYErA698LLE+pLD0WYwcCNmteR1oliTQKODzvQiQgi9Mhh1GN96pKirS7/GryP/J5MAcCOwW8flRaBamh45hFRLKmlU0iInFUIxURiaVNS0REIqlGKiLSV3BlUYFURKSv0LioPlIRkTrBcVGj9iIifWkeqYhIJFcfqWqkIiK9gmukHRRz+tNSYJ8M7pO2LRncYz3VeK+qZEPeBSiRownbPGVpWgWp4Ypxswnb6WRhEiUVESmo1YTFxH+oaS8i0pcGm0REImlCvohIpEzmkWqtvYhIDU+NVIFURKoskyWi6g4QkSrLZEK+AqmIVJlqpCIikTIZtVcgFZEqU9NeRCRSJhPyFUhFpMpUIxURieCZ3qkaqYhIDdc8eQVSEZFervimpr2ISC817UVEIqlpLyISyR1IPbs/aeMSEakiT0XRvbGzaqUiUkWZNe1j0omIFFlmTfuedCIiVZPZqD0okIpINalpLyISKbMJ+e6biYgUnJr2IiKRNNgkIhJJNVIRkUjuPtIs04mIFJma9iIikdS0FxGJlOk8Um1aIiJVlOk80uGem4mIFFymTfuRznQiIkWWadNegVREqijTUXsFUhGpIvfGzp5AOsqRRkSk6DJt2o9wphMRKbIORxr3YJNqpCJSRa4ZSRpsEhHp5amRarBJRKSGp0aqeaQiIjXcNVIPBVIRqSJ3H6ma9iIiRk17EZFImTaUfOnuAAALHElEQVTtNf1JRKpITXsRkUiZTshXIBWRKlKNVEQkkvpIRUQijfYk8gbScc50IiJFNtaRxr2N3iRHGhGRohvjSOMebFIgFZEq8tRI3U17BVIRqSJPjdQ9aq9AKiJV5O4j9VAgFZEqcjftPTXSMcB4zw1FRApsgieRt0YKsEtEWhGRItrJkcbdtAcFUhGpnp09iRRIRURMG7CDJ6G3jxRgN2c6EZEi2hnnUfMxNdLXRaQVESmaA53p3EtEAd7gTCciUkSHehPG1Ej3ACZGpBcRKYpJwHu8iWMCaRtwRER6EZGiOAP/rnZRTXuAd0WkFREpggnAJ2MyiKmRAhwHbBuZh4hInr6Ec9pTj9ga6Tjg3JgCiIjk6J+AsyPzcK1sqg+8nwD2jyyIiEjWRgBX03/uaHDl0lMj/StwV83Xw4EZwO6hNxcRydG3gDfVfe8u4NHAfLoAftf9h2avvwAvAxbVfX8OznWqIiIZOwnopG8MWwRsD8wiLCb+ztO0bwOWAtOBLTXf3xO4m8hOWxGRlL0ZuAqLZT22YDFtGeGD8F1gwS8k+tZWe88Z4O81ki8iRbQ78Bz949bna17zWIO/H+y6G8ID6eM1N2wDbmjwmkeAKUk9uYhIAnYD5tI/Xl1P39rpEw1ek3ggfaKucKOBBxq8TsFURIpiN2wcp9GYT/3xIk82eN1g12/p/k9IoicbFHJn4OkGr30YNfNFJF9vBhbSPz7NpvGO+H9v8NohA2lojfTvAxR2F+CpBq+fC0zzPL2ISKSTgXU0DqIDzTKa3eD1iddInxqk0DvTeOrAWuD0kKcXEYkwEriA/lOcelrKg53N1Kh1PWQgvSsw0ZwhHmAccMsAaWcCrxr6PRARcXsDA4+838zQuzw16ksd7LoLwgPpvCYeZBjwFWxuVn36TcCl2H6mIiJJ2QX4CY3jzhZsc5Jm5ojOa5B+yEB6Z2CiZwIe7GDg2QHy2QzchG3FNzIgTxGRWnsCFwPraRxr5gMHBeQ3f4B8Eg2kzwY+5Hjge8DWQfJcAfw/4DC0zFREmvMW4Foa10B7aqHfxWJQiAUD5DfQdWcbFkgPC7jJInxHMe+Ldf4e3MRrNwDLsUGqtcAqYA32xqzGgnKP+q97XjfQ12ux2vBAX4eqzz/GRuy3alUMx7/reJm0YUdVlM1IYEzehXCYDLyfwXeduxv4LDawFGoRgw9G1burA4uoIbybQT8I/DPwTqz/dN9BXjsKmOq8j4i0rgeArwK3ReTRNvRL+nDtRxq7q/6twH5Yn8X12OCTiIjXRuA64ACsuR8TRMER4zocNwmN1gO5r/vaBhtwOhSrTm+P7SA1OaH7iEh1vAAswXZpWozN4bwBWJngPVyBNKum/UBWApd3X7V6+p16+tlGY03+cd3fm1Tzmp7g3k7fI6Lr++jq+4TG0HfGwHj6/nKZSO/zNuoHm4BN9RpMbR4ieejExhkGsxUbb6j1Ir3xoT6PLdj4QI/6/v313d/rUT+WsKo7T7rv8WLN/zdjYxcvYeMlPeMYteVJU/A2ep4aaVZBoYve3zLLMrpnXmp/GQxkmyH+vv6XSKix9D9yIU1pDETFDhyG2oQtP/RqJjAMVdPqCT6SnFI17aVXMx+EJJsuIjKw4BppHoNNIiJFFhzjPIffKZCKSJW5AmkWaUREyqIU80hFRIpMTXsRkUiZDDZp1F5Eqkx9pCIikdS0FxGJpMEmEZEIbTi6L71BUcFURKrIFds8TXvQgJOIVJMnkLqa9t6biYgUnauSqEAqItIr06a9AqmIVJGa9iIikVQjFRGJlGmNVKP2IlJFGmwSEYmkpr2ISCR3016BVETEuJv2noQKpCJSRUMdr96QloiKiPTyxDbNIxURqeGKbR34aqSu6m/CtgcOA14F7IA9xwvAbOAe4JncSiYiZeUOpB55Nu3fAXwaC6KDlePvwI+Ay4B1GZRLRMrPHdtuxGpzIddukYX12BG42VHW+cAxOZRXRMpnN8JjzI1l6SN9LfAQcJwj7a7Ar4DPJVoiEaki94T8LNN57IX1ee4UkUc78G3g7ERKJCJVVcmVTWOxrofJCeV3IfC2hPISkeqp5DZ65wCvSTC/YdjgUxFmHYhI8WTatM9i1H57bHQ+adOAd6WQr4iUnyu2eeeRZlEj/QAweojXdAJ/Bh4BVmMj+28HXjFEutOBGbEFFJHKcTXtAW4gfLj/tfHlHdIfB7n/VuDH2ET8Rg4HHhgk/SZgQoplF5Fyei3h8fCGog42jQDeMMDfrQOOAM4AlgzwmjuB/YGrB/j74cAbYwooIpVUqcGmHYFRDb7/EvBO4LdN5LEZ6x64foC/H6r5LyKtp1KDTeMG+P7nsDmlzeoCzgSWNfg7Ne1FpJ57P9IiNu1XN/jek8APHHktB77W4PsbHXmJSLVVqmm/GGua17oUG6X3uBLrFqjVqJYqIq2tUktEtwK/r/ve7RH5rWuQ36yI/ESkmiq3RPSmmj93AnMj86tN/0wC+YlI9VSqaQ/wU2Blzdf1Tf1QtctCr8H3C0REqq1So/YAq4ALuv/cDrwsMr9p3f9fC3wvMi8RqaZKjdr3uIDevs39I/LZFdi3+8/nAUtjCiUilVW5pj3AFmA6toLpQxH5fA5r2t8KfCeBcolINVVq1L7WAuAorEZ6kCP9fsBHsVH/d+OfQiUi1Ve5UftajwLHAv8XWyffrMnYwNIF3enr55KKiNSqZNO+1h+AjwMnBqQ5G3gv8AWsm0BEZDAtcRzzQ91Xs76aUjlEpJoqXyMVEUlbpftIRUSyoBqpiEikyq1sEhHJWiVXNomIZElNexGRSBpsEhGJVNkloiIiWcm0aa/BJhGpIg02iYhE0mCTiEgkdx/pWke6UZ6biYgU3EhHmpfAdo7vCrzmAOOjiywiUhxjgX8QHg97Tt/gTkfiH6b+WCIi2bmU8Dh4S20Ghzsy6ALemepjiYhk40js9IzQGNjvLLkHHZksBrZN68lERDKwLRbLQuPfzEaZneLIqAvrFvBuEC0ikqcOfF2bXcCBjTJsBx5zZqhz4kWkjC7BX4Ec0InOTLuAC9GKJxEphzbgIvzxrl/faH3mD0Rkfjm+eVgiIlkZCfwUf5y7vpmbHIJv9KrnehjYK/JBRUTS8ErgL/jj26buPJpyRcSNuoDVwGeAEd6nFRFJ0Ajgs8Aa4mLbt0NuOgVYGnnDLmA2NhtAa/NFJA/tWAyaTXw8exLH8viTE7hxz/Uo8G4UUEUkG+1YzHmUZGLYFuCt3sJcmFAheq4ngA8Aw7wFEhEZRDtwHHH9oI2uTw1206GmK3UAdwEHOR5oMGuwCC8ikqQOkt9Q6X+AfxnsBc3M+9weuBd4VRIlEhEpkfuxdfgvDfaiZifQ74wF0z0jCyUiUhazgEOBF4d6YbODP4uwHaKe8ZdJRKQ0HgAOo4kgCmGj6POwDUzvcxRKRKQsrscWJq1sNkHodKTnsf6CawLTiYgU3VbgPGza1PqQhDGbjLwb2yV/SkQeIiJFMB/4IHCPJ3HMBPkZwOuBX0XkISKSp03YfPnX4QyikNy2dwcD5xMx819EJEOdwHXAF7DDPKMkvX/occDHgSNSyFtEJNZqbAu9S0gggPZIK9jtBZyO1VD3AnZI6T4iIoNZCTyFrbm/BfgNgQNJzciq1tizbGsSMA47P3ocMIa+G0GPp+/5T5NqytjW/XV9nj1GdudXayLh/cDDgAmBacB2hRntSFf/zGXlfd8kW+uBjY50TU8FqrERX9BahTW9AdYCmxv8eR3Wv7kVq2WuxJaer+n+eg2wAJtplLr/D1RVibERgFj7AAAAAElFTkSuQmCC;labelBackgroundColor=none;" vertex="1" parent="1">
          <mxGeometry x="445" y="110" width="70" height="90" as="geometry" />
        </mxCell>
        <mxCell id="OipEP8MaM-20ByhYYCx5-5" value="" style="shape=image;verticalLabelPosition=bottom;verticalAlign=top;imageAspect=0;image=data:image/png,iVBORw0KGgoAAAANSUhEUgAAAVAAAAG0CAYAAABkPX9NAAAACXBIWXMAAA7DAAAOwwHHb6hkAAAAGXRFWHRTb2Z0d2FyZQB3d3cuaW5rc2NhcGUub3Jnm+48GgAAIABJREFUeJzt3Xm4JWVh5/FvLzRNN4sNiICyCAoIOBMliY64MEKMQQkZlGeMcTCaEXdbRw1xewTNGMw4KhKNqEFFjQsqIrjiEDQYJghBlAZ0WBqVRfat6b3v/PHem3u4fe699b6n3qo69X4/z1MPTfepOvWeU/U7b9W71ALyWAA8HzgJODzTe0jSfC4HPgJ8Adhc98YX1Ly9JcCLCMF5cM3blqRU1wF/B5wBrKtro3UF6DbAXwDvBB5d0zYlqW43A38N/AOwcdSN1RGgfwx8ENi/hm1JUhOuB94CfGOUjYwSoCuAU4ETR9kBSWrR+cCrCDXTaKkBegTwRWD3xPUlqSvuAF4M/CB2xUWRr18AvA34DLBj7JtJUgctB/4M2ARcHLNiTA10MfAx4BUxbyBJY+TzwMup2MBUNUC3B74GPCdxpyRpXHwbOB54aL4XVgnQZcC3CPc9JakE/4cwGGjOPqML59nIMkIr1RH17JMkjYUjgS8T+rjPaq5GpEXAOXjZLqlMBwJ7AOelrHw6MFHTcinw7PRySFJlRwJXUl9+vTZ2B15Z0xtfAxxH/WPuJWkuiwnBdyej59gGIiZFOpTQ+jTKG94FvHqyEJLUlhXAR4EtjJZp1xN6I81pW+CqEd/oa8CuIxZakup0BHAjo2Xbx+d7k3eMsPFNwMrRyylJWexKGGmUmnFbgN+dbeN7A2sSN7wOeEGNBZWkHJYC55Ieoj+cbcNnJW5wM6GhSJLGwVLgn0gP0WNmbvBQQhCmbOxNWYooSfnsCFxLWub9ZObGUqu052MXJUnj6Ymk9zg6emojT03cwF3Y2i5pvP0lafl3ydQGLkzcwGtyl0ySMltC+qX8H5C44mrsJC+pH44lLQf/mcQV39hIsSQpvwWEYecpWRi9wnrC8ChJ6ovU+T+iVzi/oQJJUlN2IlQOo/JwvgmVh7m0jr2VpA65D7godqWUAL0lYR1J6rrvxq5ggEpScEXsCikBel/COpLUdT+LXSElQOd91KckjaF7YldICdC1CetIUtdNECZVqiwlQOd8TrIkjbFNMS+2BipJ0zbGvNgAlaRp2Wug6xPWkaRxkD1Ao6q4kjRGsgfoloR1JGkcZA3QqCZ+SRozBqgkJTJAJSmRASpJiQxQSUpkgEpSoqxj4Q1QSX02EfNiA1SSpmUNUDvRS+oza6CSlMgAlaREBqgkJTJAJSmRASpJiQxQSUpkgEpSIgNUkhIZoJKUyACVpEQGqCQlMkAlKZEBKkmJDFBJSuR0dpKUKCrjFkduPCqdpQiLgX2BvYGdgQWTf//g5HILcDOwro2dUzGiMs4AVRsWAAcBh08uTwEeB2xTYd1fAz8HfgZcCvwIuCvPbqpABqg66ZHAc4GjgaOAXRO3s9fkcvTk/28BrgIumlwMVI0iOuMmIpZv17ab6ruFwO8B7wb+ldAAGXOspS6bgSuBDwN/AqzIXVD1yreIO96iXvyt5sqhMbQ9cAxwBuF+ZROBOd+yCbgMOBk4jOl7q9Iw55MxQM9vrhwaE/sBK4ELgA20H5jzLasJAX88IfClQedhgCqjJcBzgI8RGnTaDsRRljWEE+ZVhNZ/6VwyBuh5zZVDHbKMcGl+FnAP7QdfruV64DRCI1eVHgHqHwNUtXg08Grge8B62g+3ppc7CT8YLwCWj/hZanycQ8YA/WZz5VALpu5nXkzoHtR2iHVlWUu4x7sS2DP509U4yBqg5zZXDjVgIaFl+mTgGtoPqnFYNjPdqv+E2A9cnfd1DFDNYTvCPb7TCMMj2w6kcV+m7ps+nfi5JdQ9X8MA1Qy7Ai8DvkFoeW47dPq63Ax8nDDiattK34y65mwivnOHcvbX/sCxk8vhwKJ2d2devwZ+CPwbcAVwLXAHsBR4PPAk4BnA04ADW9rH+ewJvHJyuR/4LqHS8W3g3hb3S9VFZ1zML+w5te2mcjgMeC9hoo22a2PzLb8FvgScSAjIGLsBfwqcyXj0Rd0AfB94LWEcv7rrK8R9twboGFsMHAl8BLiJ9oNiruUewi2ENwCHUu+QyidMbvc84IEOlHWuZQthboCTiP/hUH5ZA/TrzZVDs9iO6fHmt9F+IMy1DHZMX5LjwxhiEaEmfhLjMbx0FXAqoRHKcfrti7oHSuSLv9ZcOTRgF+AEwq9jl2tYU/0lT6I79yl3Jox7P4Pu9zpYjS36bTNAe2JfxmOSjtsII3aOB3bI8UHUaKrf60mEwQJNTbGXstxO+FyPwWGlTcoaoF9trhxFOoTpk7urI4EGO5KP+/RwjyQEf9fH+N/F9I+Uw0rzMkDHyGLg2YTLttW0f6LOtjxIuPp4KeF2Qh8tBo4A/pYww33bn/lsy33AFzFMc8kaoGc3V47eWgYcB3yWULNo+4ScbbkN+CTwfEJfzNLsQ+h29F3Cg+za/j6GLQ8RejacgDPv18UA7aCpkUDnEg76tk+82ZZrCS3CT8NGjEE7AC8EPkPo3N/29zRsmepr+ipg9yyfQhmyBuhXmivH2JtqOT+P7jYCDd7PPDjLp9A/gxOwXEb73+F83+sBOT6EHssaoF9urhxjaU/gdcA/EZ7F0/aJNGx5iBDq/x14VJ6PoSiPA94EXAhspP3vd9hyOfAOnD2qiqwB+qXmyjE2HsN0d6OunkB3Ea4eTqD7XY3G2XK6P3P/KpyKby4GaAP2Bd4MXEJ3uxvdRHi077Po/kQifbQNYZjt6cCvaP94GLb8FHg7oRatwADN5NGEPpo/of0Df7blF8DfEJ7HPs79M/tmAd2f6OVywvH92EyfwbjIGqBfbK4cnbCE0OXoW3T3nuaVwLsJE3RoPOxPuIL5Ed08ri4lTM7S1z6/c8kaoP/YXDlatQ3hfuENtH8wD1um7mMdlKn8ak6X5zlYT2hwPJ4w0KAEX8UAHclBhIBq++AdXDYBFwGvJzRaqZ+WE54CehbdG2RxMWX02shaA/1Cc+VoxZPpTuvpeuA7wCsIY7ZVlsWEaQD/nu5MW3gN/Q9RAzTRwbQ/yuQhwpyrLwEekbe4GiMLgWcS5kxou0X/CmD7vMVtVdZL+M83V45G7Ud4IFgbB+R9hFsjL8TJITS/BcBTCJOeXE87x+w59HeorwEaaSfg/9HsAXgn8A/A8/DpjRrNkwjdo66m2WP4LU0UrgVZA/RzzZWjMZ+imQPuZuCjhM7VpbRoqlkHA++kmb6m6wltBn2TNUDPaq4cjXgcefvh3UK4b+XsRmraocBfA9eR7/j+Gc0966opWQP0s82VoxHvof6D6m6mH8VgTVNdcAih33COfs2nNFeMRhigEa6gnoPoPkJoHo3Pr1F3LSTMuv9xwn34Oo79DYT7sH1hgFa0PaNdvq8nPObiOMqcsV3jbRvCVdI3Gf021k8b3vecsgboZxorRn6Hk3aw/IIwTnjX5ndZymJPQkv+/aSHaF8mr8kaoJ9urhzZvZT4g+QcnBpO/bUH6Q837EsjaVSA9qXQKfZPWOfThMclSH10K/D+xHX7UgONEhugE1n2oh17JaxzVe17IXXLD9regZZF/RCUXANNuYd5W+17IXXLdYQG0lh9yZKoSmLJNdDdIl9/L2GyD6nPJgiX8rH6cgmftQbalw8J4mfbTjmopHF0e8I6fcqGyvpS7U4RO/PR3Vn2QuqetQnrGKCFiZ3TcF2WvZC6J+VYN0ALs13k6w1QlcIArajUAF1KfIf4lJZJaRwZoBWV2oi0LGEda6AqRckBaj/QClIenWENVKWwEakia6DVGaAqhR3pK+pLoWMZoNLsUuZ76EvlKkqpAZpyCe8kIipFn0YcxnIkUgUpT8Is+aBSWbYkrNOXypiX8BWkPKso5aCSNF5sha8gZVJka6AqRcqx3per0ygGaHUGqEphgFZU6j1QL+Gl2RmgFZX63PKu1ryPAZ6f+T3OB86LeH0T+5SiL+WIFVvuFCU3IkUpNUC7WgM9DDgx83vcStwJ2MQ+pehLOWLFljuFNdCKvISvznugKoUBWlGR1W7SGpG8B6pSlBygdmOqwFZ4aXYlB2iUUi/hUwJUKkVKgPalMuZIpAoMUKlefalcRSk1QEvtfSBpbk4mUoE1UKlefcmGKKXWQEstt5RLkedUkYWm3HJLqpFBIqkORV7CxzamFPkhNehsYFXm97g68vVN7FOKvpQjVmy5m1JkZazU1uiu/hCsonsneRf3KUVfytFVXT2nsiryV0NS7QzQCor8kCTNq8hsKLUGWuSXLWXUl3PKyUQkNa4vARrFS3hJdSgyG0qtgRb5ZUsZFXlOlRqgkuplgFZQ5IckaV5FZkOpNdAiv2wpoyLPqVIDVFK9DNAKivyQJM2ryMpYkYWWVLsiK1elBmiRX7aUUZHnlJfwkupQZDaUWgOVVK++BGhUOZxQubrjgYPb3gmpAYckrNOXyljUc+GdULm6gzFApb5zNiZJjSvy6rTUAC3yy5YyKvKc8h5odWdPLlLfHT+5xOhLZcx7oJlcjQGqMqQ0IvWF90ArKLkmLeVQ5DllR3pJdSiyMlZkoSXVrsjKVakBWuSXLWVU5DnlJbykOhSZDaXWQCXVywAtSJFftpRRX84puzFJalxfAjSK90Al1aHIbCi1Blrkly1lVOQ5VWqASqqXAVpBkR+SpHkVmQ2l1kCL/LKljIo8p0oNUEn1KjJLvISXVIcis8EJlbslZSJbVZMyIXYXv4+uTuxdZDY4oXK3HEL3Tti+SJkQu4vfR1cn9i4yQIu8b0GhX7aUUZHnlPdAJSmRASpJibyEl6RpWWdjMngkDVNkNpRaA5VUr6jnqXeYNVBJSmSAVtCXX0upK/qSDc5IL0lNKLUGKknDRGVcqWPhu3oJfzawqu2d6KmrE9bp4veRUo4m9CUbojgWvltW0b0TtmR+H9V1tVISy0YkSWpCqQHal19LSfWyFV5S4/pSuYpSag1UkobxHmgFXsJLGpmX8JI0zRqoJCUyQCvwEl7SyLyEl1SHvlSurIFKUhNKDVAv4SUNY0d6SWpCqTVQSRrGe6AVeAkvaWRewkvSNCdUriClBvrfgMPr3hGpg/ZLWKcv2RCl1ABNsR9pB5ak8WErvCQ1odRGJEkaxnugFaTcA/0ccFbdOyJ10AmEe/4x+pINUXyoXHU3AD9oeyekBjw9YZ2+dA20H6ikxvUlGwzQCvryaympRbbCS9I0a6CS1IRSA9RLeEnD2JFekppQag1UkobxHmgFXsJL9epLNkTxEl6SplkDlaREBmgFW9reAaln+pINUbf3vISXVIe+tCtEZWKpNdDNbe+ApPFXaoB6CS9pGDvSV2ANVKpXXypXUUqdULmrAZoykW1uKRNJx5ajiffoCyf27pBSA7SrN7z3A45qeydm+HHCOrHlaOI9+iLls1J1XsJX0NUaqKR22Q+0AhuRJI2s1AC1BirVqy/ZEKXUALUGKtWrL+eU90ArsAYq1asvARrFGqikOvTlnLIRqYK+fNlSDinneV/OKS/hK0j5svvy4yHNJyUXDNC6N95hKfdAS/2xUXlKroFGKTVArYFKsys5QKPKHjuUsy+6WgM9C7i4gfeJcUPCOrHlaOI9+iLls4qVEqBdHR6dValj4btaA72BZk6Q3JooR18+qy5KqSz0pWug90Ar6GqASl1gDbSiUhtGUgK01M9K5fEeaEWl1kBTLjf6UnZpPiUHaJRSA9RLeGl2JQeoHekr6GorvNQFJXekj1JqDXRjwjqldvlSeUqugUYpNUDXJ6yzpPa9kLpp24R1+hKgWZ8L3xcpAZpyUEnjqOQAjWINtDoDVKVYmrDOptr3YgwYoNUZoCpFSoCmnFNdZCt8BQaoNDsDtCJroNUZoCpFyrHelwCNUmqAriF+7G7Kr7I0jkqugUYpNUA3Aw9GrvOIHDsiddCOCev0JUC9B1rRfZGv3y3LXkjds3vCOutq34t2eA+0otgA3QVYlGNHpA7ZFtg5Yb2U0X1jr+Qa6D2Rr19ECFGpzw4kvqJwC3akr6RPNdBfJ6yzb907IXXMkQnrXFX7XrQn6yV8n2qsqxPWeW7dOyF1yG7A/0hY75K6d2ScTEQsd7a0jzmcQFzZJwjD1b4DvAjYrvldlrLZH/gl8efEBPD0FvY3l+uJK3vUi+9urhzZ7Um4b5NywEwA9wKfBI7Cqe40npYCRwNnAA+Qdh78hn41rmYN0NiGl647j/QAHVzuIITpc4BtGi2BFGcF8BLgbNJDc3B5X7O7n90NZAzQ2K4/XfdEQqf6OkJ0sJZ+FnAMziGqbtgbOJFQYVhPfcf6OuDRDZajCTeSMUAfaK4cjTmbegN0Zph+Gng+DgVVs54EnAxcQb7j+7SmCtOgrAG6prlyNGZfwq2JXAfZ4I/PV4A/BXZqomAqymJCF6SPEHqY5D6eb6Wfw5tXkzFA1zZWjGa9kPwH3OCyntCafyJpw+YkgB2A44HPE652mjp+txBuUfXRajIGaF/Guw7zUZoN0allM3Ax8BZCVxJpLnsQfni/TTgf2zhm/2f2UrbnJjIG6IbmytG4RYT7lW0ckIPLKuBUQt+6Po38Urr9gJWEH9q6Gz1jlzPp14CamX5FxgDt+3NPFgKfoP0QnVpuBD4IPJN+9bXT3BYChwN/S3rn9hzLh+h3eELmAN3cXDlaswB4I+1dHs223A58Cngetuj30XaE+4qfAn5L+8fb4PJL4MX5it4pWQN0orlytO4A4BzCNF1tH8Azl/uBLxOGlNqiP752AV4KfJ3ppyR0ZVkLfAn4Q/pf6xz0azIHaEkfJoQJFl5PmDCh7YN62DLYov+oTJ+B6rMf8CbgIsItsbaPn8FlM3Ah4Vhakan8XZc9QEse9/044G3AZbR/sM92AlwMvBlb9LtiAfC7wHuBn9H+MTJz2UKoHKwkzA9Rut+QOUAdnhg8ltD16BJGm5Qk53Il8B7gMGzRb9ISwrwIHyW+RtPU8lPgrwjHsaZlD1Af77u1vQi/4D+i/W4msy2/Ak4nzB7lhCf1W0FoaPkyYc6Itr/vYcu1wCnAEzJ9Bn1wM5kD1Hkw57YH8GrgAkK/2bZPmmHL3YTRK8cTRrMozb6EH84f0M3GxgnCbPGnECbO0fxuIXOALmusKONvBSGkziK0nLd9Mg1bNhLum66kfzPr5HAIYZKOy+jurZtVk/t4cJZPoN9uJXOAbt9YUfplKeHy+TTiv6Q2Tr7DsnwK42dbpr+3rt7PHPzeDsryKZQje4Du2FhR+msRYajmqXRrpMnM5XpCcJQ26/7OTF85dPV+5mBoPj7Lp1Cm28gcoH2cwqptTya0lnexm8vUcithmOvR9HMk1P6EB6pdRPf6Z04tm4AfAm8AHpPlU1D2AC21g21T9iXcj7yA7jZMrCHMbn4iYaDBuBq8n9n2Zzrbso5wLKwkNFAqr9hhtNFf6C6NFUW7Ep4eeh7dG5s/tWwiNEKdRPcvJZcTxpufQXx/vyaXqR+oE3CobtOyB+gjGyuKBi0jnPxnEZ4I2vZJPtvSten4pqaCu4B6nwdU93In08/Ssq91e24nc4A63rp92wJ/RKhJxd6zaXK5gTAF2hE0Nx3fjsCxwMdo5tEWoyw3Ej4fpyvsjuwB6iMoumUhocvRycA1tB8Ksy13EZ4JdQL1dt5fNFn+k+h+LXOC6Z4NXamh6+HuIHOA2tm6254IvBP4Cd3t6P0QcC7wcuJvCS0j1NjeDpxPdwcoTC2bgH8G3kqYjEbdFhWgCyb/EGMvwg14dd9jCJezxxIuo7s4Bn4zYUKWcwldiK4iNJhtS2iwPGhyOZgwq9GT6WY5Bj1EqA1/k9AYdEe7u6MIdxAabyuL/UXdu8adVXOmWqC73gg1rstUI5DzC4y3u4j73qMPlH0aK4pyWUy4B3ca3e7O0/Wl1JFafZY9QJ0/sH/GoUN5F5bNk5/RyThXQF/dTeYAdabzfnss3R8J1eSylumRQM7Y3n/ZA7Tro01Un10I3Y6+AjxA+2HW1JKry5W67x4yB+iBjRVFXbIcOA74LPH3icZh+QXwAezUXrrsAep8gxqcju8XtB9+KcvURNIn4cTDmhbbQyX6wPNg00yHEILoYrrbeX+CMOx1qquR89pqmNj5X6MPwkMbK4rG0d6Eae7Oo/1hlZt4eKu5Qyc1n+wB+h8aK4rG3QrgJcDZNNcI9Vvgc8CLCDPLSzGyB+h/bKwo6pPBZ0LFPjp2ruV2Qm33JKxlanRRcyukjIV/MnBFXXurIi0EngL8CfB7hBm+9mDux8VsIDzU7UbgSuBywuX5dcQfw9Js7iei61rK8LOFCetIg7YQJhC5ZMi/LWA6SB9BmJhjA+HSaksje6eSRV3BGKDqmglCXzwG/is1JSpAU8LQAJUk0sLQWWck9VX2GmjXJ7OVpEZYA5WkadZAJakJBqgkTbMGKkmJDFBJaoIBKknTstdAbYWXJKyBStIg74FKUhMMUElKlBKg29W+F5LUDdkv4ZclrCNJ48AAlaQmpATo8tr3QpK6wRqoJCXKHqDWQCUJa6CSNCh7DXSnhHUkaRxEPSI7JUD3SFhHkrpuCQ3UQPeIfRNJGgMvSVlpImHZuYadlaSuWABcRWQWpj7j/XGj7q0kdcjzgENiV0oN0KMS15OkLvrL1BVTLuFXAYtG219J6oT/RFoOTjDCin/eQMEkKbcf0EKA/gantpM03v6Q9AwcKUAngDfnL58kZbEtCS3v1Biga4DH5y6lJGXwPkbLv+gAXTPk735Iemu+JLXh94GNbJ1nDwz5u9oC9GPAZUP+fmXeskpSbR4J3MTWOfZvwFuG/H1tAfpBYH/gvhl/vwE4ImOBJakOi4DvsXW23QDsDrxmyL/VFqAfmtyJFw35t9uBx2YqtCSNagHwSbbOrjuAAyZf89oh/15rDXTKqUP+/efAipoLLUl1+BuGt+s8deA1rx/ymiwBuhA4d8hrrgB2q7HQkjSqd7B1Vm0EjpnxupVDXpclQAF2AH425HVXA3vWUGhJGsUC4H+xdUZtAV425PVvGvLabAEKsA+weshrVxO6CkhSG5YAZzI8PF81yzpvHvL6rAEKsC9w45DXryfcU5CkJu0B/Jjh4TlXJr11yDrZA3Rqh4f1EZ0g3Cvdp3LRJSnds4Gb2TqHNgAvn2fdk4asV1uA/u953nw58KVZ1l0DvAtYOl/pJSnBDoTBPlvYOn/uAv5zhW28bci6jQXolFcDD82yjdXAGycLK0mjWgy8gjBD3LDMuZLpfp7zGdZa33iAQphk5IdzbOte4P0kTKMvSYTZlF4GXMvwjNlEmDBkScQ23zXLthoPUAhdCF4MXD/Pdq8G3kNotd8l8j0klWVnwqX2LcyeKVcSZpqP9e45trnVsniUUlQwAfwj8FVCt4F3Egbyz/QEQvK/a/L/HyQMDb0XWEu4HXDv5H/XD6x3z4ztPED41ZmyFlg38P+bJl8zaOY25rJucpt12AzcX9O2SvcIxu9R28uJqxl1wRLCfrfpGYSGoNn242ZCjnyWcC80VtTMcrkDdMoG4CPAZwj9rN5AOOhns/3kIklV3EG4Qj6dUNFKFRWgsfN4TkS+fqb7CVXkvQgNSbeOuD1JZbsDOIXwqPX3M1p4QuYArcuDwGmE2ZteSWg9k6Sqbgf+ijCI52Tqux3WyUv42awHPkG4X/EyQgdYSZrLj4BP8fD2jbqMVYBOWQ98fHKRpLZ0+h6oJHXZWNwDlaQuMkAlKZEBKkmJDFBJSmSASlKiqCHBtsJL0jRroJKUyACVpEQGqCQlMkAlKZEBKkmJHAsvSYmsgUpSIgNUkhIZoJKUyACVpEQGqCQlyhqg4/bsbUmKYYBKUiIv4SUpkTVQSUpkgEpSIgNUkhJFZeLiyI13IUAXAI8F9gceAWxDKPR6YA1wE3AtsLmtHZQ0tqLbhSYilg/Xtpvx9gFOB+4dsl8zl/uBz0+uI0lVXUhcJka9+LTmyvEwf0y14Jy53As8u4X9lTSeLiIiY8bhHugLgHOAnRLW3Qn4NnB8rXskqa961Q/0GYRL8VH2c1vgC8BzatkjSX3Wm1b4nYCzgaU1bGsbQojuXsO2JPVXbwL0FOBRNW5vV+D9NW5PUv9EZVxXA3Qf4LUZtvtnhO5PkjRML2qgL2b+PqpXAa8BDptcXgusmmedRcCfj7pzknoraz/Qv69tN+d25Rz78AAhLIcVdCHweuDBOda/PPO+Sxpfl5OxH+gZDRRgCbBplvf/DfA7FbbxpMnXDtvGJkLLvCTNdAUZ+4HGDv1MsS/hUnum24BnAT+tsI0rJl/72yH/tmjyPSRppqz3QJsI0GEd5jcCxwDXR2znesIIpo1D/m3HhP2S1H9jH6D3Dvm79wGXJWzrUuDUIX+/IWFbkvovayPSl2vbzdntBGwZeM97gB1G2N6OPHwc/RZCn1BJmukaxvwe6H2Ee5hTvktoeU91/+Q2plwH3DnC9iT1V9ZL+G0iX5/qOwN//lUN2xvcxiU1bE9SP439PVCATxImSIZ6Rg49fuDPX61he5L6Kes90O/XtpvzO23yPe9jtAlFljHdsf5qhneRkiSAG8nYkf7C5srBLsANk+/7yhG28zqmG4+eW8N+Seqvm8gYoD9qrhwAHEpoBPoVaX03dwJuJuz7B2rcL0n99GsyBui/NFeOf/cHhEvwlGGkZxL2+0y6P3m0pPZNVbiyBOilzZXjYZ5C6Hp0dMQ6Lyc8pXNllj2S1Ee3kjFAf95cObZyAGFW+So1yScDn8CnckqK81syBmjMWPQ2rWh7BySNpTuIyMTY+4Lb1befWd3T9g5IGktZO9Ivi3y9JI0TA1SSEmUfC9/UcE5JalrWAAVroZL6ywCVpETZA3SUyY0lqcuyB6izuUvqKwNUkhJlD9B9E9aRpK7bhgYC9LCEdSSp696UslLMWPgJwgPebEiS1Cd7M/3kimyTiUwtb2ymTJLUiPOIz8EHIdQoY1e8G3hkI8WSpLyOI60i+QGA9yau/LkmSiZJGe37RcYNAAACzElEQVRI/GM8JoCHgN0hPDfozoQNTAAvzV8+ScrmLNKy78ODG3lL4kYeBJ6UsXCSlMt/JS331gKPHtzQUsKTL1M2djvw+GxFlKT6/Q5h4vWUzPu7YRv8i8SNTQC/BPaqvYiSVL+DiXx0x8CyBnjMsI0uBP41caMTwGqsiUrqtmcBt5Gec6fMtfHfBzaPsPHbgGfWVFBJqssi4G3AJtLz7WZg+/ne6IwR3mAC2EAYEpUyTFSS6vYM4KeMlmsTwDFV3mw5cHUNb/Zj4NARCi1JozgA+BKwhdHz7OMxb/xEQkfRUd90M/B14I+AAwnhLEk57Q18CtjI6Bk2AaxiluxaMMdOvAw4c+SibG0tsI7Qh3QjcD8haAef5T71b4NmPut9A6FFbFCV9TZOvi7GesIPSoypcsZ4aPK9mnQv4SDpmgnCvklVPQp4O/BKYNuatnk78FTgxmH/OFeAArwbOLmmHZHUDWsIFZC+WQ4sqXF764AjgX+Z7QXzBSjA6cDr6tojSRoDG4DjgW/O9aJFFTb0fULHUYdsSirBesIMTefP98IqATpBmCtve+Bpo+2XJHXafYTw/G6VF1cJ0CnfJ9w7ORL7eErqnxuAo4D/W3WFKvdAZzoC+CKTc+FJUg98D3gJYWrPylJqkhcR7odekLCuJHXJWmAloa96VHhC3CX8oAcJM9JfBzwdO8hLGj8XAP8F+FbqBka9l/kF4CDgI4Qkl6SuuxY4FngOcM0oG0q5Bzqb3YG3EkYBWCOV1DUXAR8idE/aUscG6wzQKTsBLwROIMyCkuM9JGkumwlzFP8CuBD4BnB93W+SO9x2I/Qf3ZFwv3UhIWAhjFVdNvnnHYDFk39eCmw3xzbn+/ftJl8zm2VUHyc7uF91m68co1hM2PdcVmTcds7PXMHM+SFyrxcz38LgHBez/XlqbooNhLk07p98j6k/30MIy+zDVf8/pbd/UgBL4LEAAAAASUVORK5CYII=;labelBackgroundColor=none;" vertex="1" parent="1">
          <mxGeometry x="530" y="320" width="70" height="90" as="geometry" />
        </mxCell>
        <mxCell id="OipEP8MaM-20ByhYYCx5-12" value="Indexer" style="text;html=1;align=center;verticalAlign=middle;resizable=0;points=[];autosize=1;strokeColor=none;fillColor=none;fontFamily=Georgia;fontStyle=2;fontSize=18;labelBackgroundColor=none;" vertex="1" parent="1">
          <mxGeometry x="435" y="280" width="90" height="40" as="geometry" />
        </mxCell>
        <mxCell id="OipEP8MaM-20ByhYYCx5-31" value="Cluster Manager&lt;br&gt;Monitoring Console&lt;br&gt;License Master" style="text;html=1;align=center;verticalAlign=middle;resizable=0;points=[];autosize=1;strokeColor=none;fillColor=none;fontFamily=Georgia;fontStyle=2;fontSize=18;labelBackgroundColor=none;" vertex="1" parent="1">
          <mxGeometry x="35" y="410" width="180" height="80" as="geometry" />
        </mxCell>
        <mxCell id="OipEP8MaM-20ByhYYCx5-32" value="Search Head&lt;br&gt;Deployment Server&lt;br&gt;Heavy Forwarder" style="text;html=1;align=center;verticalAlign=middle;resizable=0;points=[];autosize=1;strokeColor=none;fillColor=none;fontFamily=Georgia;fontStyle=2;fontSize=18;labelBackgroundColor=none;" vertex="1" parent="1">
          <mxGeometry x="390" y="30" width="180" height="80" as="geometry" />
        </mxCell>
        <mxCell id="OipEP8MaM-20ByhYYCx5-38" value="PR Site" style="text;html=1;align=center;verticalAlign=middle;resizable=0;points=[];autosize=1;strokeColor=none;fillColor=none;fontFamily=Georgia;fontStyle=2;fontSize=28;labelBackgroundColor=none;" vertex="1" parent="1">
          <mxGeometry x="285" y="-40" width="110" height="50" as="geometry" />
        </mxCell>
        <mxCell id="OipEP8MaM-20ByhYYCx5-40" value="" style="rounded=1;whiteSpace=wrap;html=1;fillColor=none;labelBackgroundColor=none;" vertex="1" parent="1">
          <mxGeometry x="880" y="280" width="320" height="150" as="geometry" />
        </mxCell>
        <mxCell id="OipEP8MaM-20ByhYYCx5-74" style="edgeStyle=orthogonalEdgeStyle;rounded=0;orthogonalLoop=1;jettySize=auto;html=1;exitX=0;exitY=0.75;exitDx=0;exitDy=0;entryX=1.003;entryY=0.713;entryDx=0;entryDy=0;entryPerimeter=0;" edge="1" parent="1" source="OipEP8MaM-20ByhYYCx5-47" target="OipEP8MaM-20ByhYYCx5-40">
          <mxGeometry relative="1" as="geometry" />
        </mxCell>
        <mxCell id="OipEP8MaM-20ByhYYCx5-80" value="tcp8089/9997" style="edgeLabel;html=1;align=center;verticalAlign=middle;resizable=0;points=[];fontSize=11;fontFamily=Helvetica;fontColor=default;" vertex="1" connectable="0" parent="OipEP8MaM-20ByhYYCx5-74">
          <mxGeometry x="0.0092" y="-1" relative="1" as="geometry">
            <mxPoint x="1" as="offset" />
          </mxGeometry>
        </mxCell>
        <mxCell id="OipEP8MaM-20ByhYYCx5-75" style="edgeStyle=orthogonalEdgeStyle;rounded=0;orthogonalLoop=1;jettySize=auto;html=1;exitX=0;exitY=0.25;exitDx=0;exitDy=0;entryX=1;entryY=0.413;entryDx=0;entryDy=0;entryPerimeter=0;startArrow=classic;startFill=1;endArrow=none;endFill=0;" edge="1" parent="1" source="OipEP8MaM-20ByhYYCx5-47" target="OipEP8MaM-20ByhYYCx5-40">
          <mxGeometry relative="1" as="geometry" />
        </mxCell>
        <mxCell id="OipEP8MaM-20ByhYYCx5-79" value="tcp8089" style="edgeLabel;html=1;align=center;verticalAlign=middle;resizable=0;points=[];fontSize=11;fontFamily=Helvetica;fontColor=default;" vertex="1" connectable="0" parent="OipEP8MaM-20ByhYYCx5-75">
          <mxGeometry x="-0.028" y="2" relative="1" as="geometry">
            <mxPoint y="-4" as="offset" />
          </mxGeometry>
        </mxCell>
        <mxCell id="OipEP8MaM-20ByhYYCx5-47" value="" style="shape=image;verticalLabelPosition=bottom;verticalAlign=top;imageAspect=0;image=data:image/png,iVBORw0KGgoAAAANSUhEUgAAAVAAAAG0CAYAAABkPX9NAAAACXBIWXMAAA7DAAAOwwHHb6hkAAAAGXRFWHRTb2Z0d2FyZQB3d3cuaW5rc2NhcGUub3Jnm+48GgAAIABJREFUeJzt3Xm4JUV98PHvXGYGZhhwZBMFF1BE4oJojAsiICpREXcSoyhqYtxF87rEPS5xfVU0McZojEtcEVQw7uD2CqLgyuqCigjKDsMsDDM3f9S9L+f2Pfferjpdfep0fz/Pc55n+kx3VXVPz+/8qru6axn57AI8F3gBsDZjPZK0kNOANwEnA9NNF76s6QKBXYHnAC8EdsxQviTF+gnwRuB4GgykTQbQWwIvAZ4BrG6wXElqylnA64HP00AgbSKArgaeB7wcM05Jk+EM4B+A745SyKgB9GHA+4E9RixHkto2Dfwn8CLg2pQCUgPoKuDtwLNGKEOSSvAb4BjgW7EbbpNQ2W2BU4AjMHhKmnxrgScB1wGnx2wYG0DvA3wD2DtyO0kq2RTwl8DtgC8BW+psFJNBHg6cSOi+S1JXfRF4PLBhqRXrBtAHA18AthuhUZI0KU4FHgFcv9hKdQLowYSU1sxTUp98GTgS2LzQCksF0H0IF1V3arBRTdkAbGz476o2Aesj25WirXpyWQ1sO+5GjGB7YOW4GzFjR9Ju7jZtGeU8gr0c2GFMdX8MeDILDLpfLIDuRHiO9I4NNeRKwvOoZwJXDHy2EiL8upn11nFTxI8JdpIE8EDg3cCdGyrvVcAbYjeafdRplM9W4KuEawnLR9wJSaprOeFFRlcxehzbAjwkpvJnNFDpt4E/j99vSWrMbsAHCMncKPHsMmD3OhXentCNTq3oeuBvR9ljSWrYg4HfMVoQPb5ORaN03X9Dc9cdJKlJNyOMKBoliD52sQoePELBZwN7NrSjkpTDckKXPjXO/ZpFRmz8KLHQi4FbN7mXkpTRKEH0OcMKPCyxsI3APZvfP0nKZjnwP6TFvD8w5KnMkxILe0me/ZOkrG4G/Ja0uPd3gwXdgjDWKbaQMyjjqQlJSvEg0oY4nUd4gxMQhh2lROH7Z945Scot9XroY2YL+HjCxidm3y1Jym830p5YOm22gNMjN9wK7J99tySpHS8gLQsF4NLIjT7Vwg5JUluWE+aOjw6gq4i7iLoFuGs7+yRJrXkgCQH0DpEbfKKtvZGklt1AZAC9e8TKW4D9WtsVSWpXVACdAtZEFL4BOLfJ1krSpIoNoJKkGVOE+WDqipkGWZI6zQxUkhKZgUpSIjNQSUo0RZjTuy4zUEmaMQWsGHcjJGkSTRE3X7sZqCTNiA2gkqQZZqCSlMhroJKUyAxUkhJ5DVSSEhlAJSmRXXhJSuRNJElKZAYqSYm8BipJicxAJSmRGagkJZoCtolY3wxUkmZMYVCUpCSxAdRgK0kzzEAlKZEBVJISTc18JEmRUjJQM1ZJwi68JCUzA5WkRGagkpTIDFSSEpmBSlIiM1BJSmQGKkmJzEAlKZEZqCQlMgOVpERmoJKUyAAqSYnswktSIjNQSUpkBipJicxAJSmRGagkJVqesI0BNN2fAYcCtwauB74LnDrWFpXrnsBBwO7AtcDXgTPG2qIyLQMOBO4H7ARcDnwZ+Pk4G9Un5wLTEZ/V42nmRNsP+AbDj+c3CCe+gnsDP2D4sfoEsN34mlacw4HzmH+ctgL/QlqC1Hc3EBcPh/4DLPbZvrVd6YYDgWtY/Jh+fWytK8sjgI0sfqw+PLbWleXZwBYWP1ZvHlvrJld0AD0/cgMDaH0rgIuod1wfMqY2lmIVcBVLH6ctwG3G1MZS3JOlg+c0cCPhcpHqiwqg3kTK68HAnjXXPTJnQybAQ4C1NdabAg7J25TiPZt605FvAxyduS295jCmvP48Yt3DsrViMtw1Yt17ZGvFZHhAxLoHZ2uFHMaU2b4R696Bfl/03yti3QOytaJ8K4DbRaz/F5naIcxAc9slYt3l1O/ud1HMdc2YYNs1a4n7oV1L3HmoCFPUu5aiNLtFrn+7HI2YEDeLWHfXbK0o35qEbbyRlElK8DRjrW+HyPV3z9KKyRATGLaLXL9LUkbB3KrxVggwA81tZeT6O2ZpxWSI3fe+ZqGxP8oQl90rgtdA8zKA1hebUfY1gKZk3gbQTOzC57Uicv0+n+irItfv67FKeZS1r8cqO4cx5RUbQPucgcYO4errM/EpSU9fj1V2XgPNK7YLH5uFdcUy4s/DvgaFlP+v2zTeCgFeA80tNgONDbhdkfIAQZ9/bGL1+QGNrOzC57Oc+GyhrwE0JUMygNZnAM3EDDSf2OwTDKAx7MLXZxc+EwNoPinB0ABanxlofWagmaT8mnnTqZ6UDHTbxlsxGcxA60sJoCnnomowA80nJSj0NQNNyZD6eqzMQAviTaR8Uo5TX7P7lB+bvl7XSzmv+nqssjMDLYsBNO82XZByjpiBZuJA+nz8YarPAFpfX/e7SGagZenrj1lKhtTXQNLX/S6S10DzSTlOfT22KUGhr91SA2hBzEDL0td/C7vw9fW1l1IkM9B8zEDrM4DW19f9LpIZaFn6+m9hAK2vr/tdJF+onI/jQOvzGmh9fd3vItmFL0tfj60BtL6UdwD09bzKLmUc6HSOhnSQ10DrsydUX0oA9f9sJmagZfHY1tfXY9XXt1AVyV/+fLwGmldfz0O78AUxgJbFY6ulrB53A3STlC6811Pq8RpofX3d7xS7JGzj/9lMzEDL4rGtr6/HardxN0A38ZpbPmagysEAWpAp4tN7/5Pn4w9afX08D1cCt0rYzik9MrELn48ZaF59O1Z3Ad5P2rxZfwV8BNiz0RbJZ+EL09d/C39sFvdy4CzgKYnbLwOOBs4DXkF/n+JqnBloWTy2GrQc+CDwRprphm8PvAH4DmmXAlThL5EmVdd/bNYAnwYeOuTvtgCnA18FvgdcAlwObAV2Jdxo+gvgcOBA5nf77wOcNlP2ORna3isbCTeS6n5uPZ5mTpy9iDuu08D5Y2np+N2X+GN14lha2o6VwNeYv8+bCNcy94koaxfgtcBVQ8r7E3DnphrdETcQdx5GB9DbtLYrk80AWl9KAP3cWFqa3xTwCebv71nAviOUuwtw0pBy/wDcdoRyuyZ7APVg12MArc8AepO3M39fP0za3feqZcCLCV39wfJ/CuzQQPldYAAthAG0vpQA+vmxtDSvpzF/Pz9G8+OD/2FIPf/ZcB2TygBaCANofSkB9AtjaWk+dwDWMXcfTyPfjd53Mv+YHpmprkkSFUAdxqQSeE7BWwnDjGatJ4z7vDFTfS8HflX57jiccymKjw5qUnUp6N4eeFTlu+OACzLWuQF4buW72wGPyFhn55iBSuP318z9f7UeeFcL9X4ZOLvy3VEt1NsZZqCaVF36IT+0snwiYYxmG/6jsvxnLdXbCWagKkGfz6llwL0q353cYv0nVJbvSL//PaKYgWpSdeU/+W7AjpXvvtFi/RcBlw4sr6KZMae94KycmlRdOQ+rj0ZfCVzWchvOrCxv13L9E8sMVBqv7SvLF46hDZdUls1Aa/IaqErQ5/eBrqwsbx5DG9ZXln1LW01moNJ4bagsjyN4VbPgG8bQholkBqpJ1ZXz8JrK8i3H0IbdK8ubxtCGiWQGKo3XbyrLewA3b7kN+1eWN7Zc/8QygKoEfb4Geh3w+8p392mx/r2YO9ncFdiFr81J5aTxO72y/Nct1l19dPO8FuueeM4Lr0nVpfPwS5XlR9NON36K8A7SQT9uod7O8CaSJlWXzsMTmDuUaAfC6+Zyewrh0c1BH2ih3s7wGqhK0KVgmOJq5r996XnAfhnr3IUwXfKgUzADjWIGqknVtfPwn5k7I8G2hHmf1maoa4owu+fgkKn1wDMz1NVpZqBSGa4H/oa5Xfk7Ap+l2QnfpoAPMn+++ZcCv2iwnt7YRNxcNDm7FV3inEj1PYD4Y/X1sbQ0v0cQpvEY3Nef0Mx04msJ7xqtHsv/aqDsroieVC52AwNoPQbQ+gygc/098/f3MkIXO3XOoiMJLyqplvs15j+P32fZA6hvrK7HAFqfAXS+1zJ8v38CPB5YUaOMKeAI4NsLlHUqsLrhdk+6qHjoW1ekMr0WuAp4B3PvVdwN+DRhyo+TCXfOzye8FHklsAbYFziEEDwX6vp/Dngi89/EpEhmoHmYgdZnBrqwxxHe2BR7fBb63Ai8HqcvXojzwksdcjwhmzy3gbLOAA4EXgVsaaC83nMYk1S+7xPemPSCxO0vA55MeEnJ95tqlBxIL02KzYTrlim+DXyUmbvGao5vY5Imx1WJ221ttBX6/3wbUx77AB9K2G5vwt3XOkNU1D/r8NplUbwG2qzlwIsJY/UOTtz+NcAPgAMabJe6YRq4NnE7ZeA10ObsC5wGvBVYNWJZ+xMu9r8OZ0jUXNVJ6OowgGbif85mPBF4H2EQ8zAbCVnlLwh3RCG8bWdv4B7MnVJh1grCcJODgL8iDJyWUqY99hpoRrED6asTUPXdiwgnaPU4bQW+ADwS2G6JMu4MvAm4fEg504RpFqozJ3aJA+nru4D4Y/XfY2npZMr+LLwB9CbPZ/gx+g5wz4TyVhOugV4/pMyfAzcbvclFMoDW93Pij9XHxtLSyRQdQDdHbnD31nalbIcy/9jdSHiv4qg35/YBfsT8Y/9ZunkN2gBa31nEH6uPjqWlkyn7o5wKE359grnXkDcRZjh8C6Nfc/oFcD/gfyrfPwZ4xohla7KlTDk83XgrBDiMKdXrgFsMLE8TZjc8ocE6NhAC5qmV798E7NpgPZosBtCCOIwp3u2ZP3fMO4GPZ6hrE/AE4JKB725OGGyvfjKAFsQMNN7zmdt1/yXwyoz1/ZFwXXXQU4HdMtapchlAC2IGGmdb4JjKd/9E2uDmGP8NnDOwvApnUOwrA2hBzEDjHAzsOLD8e8LNpNy2Ah+ofPeEFupVeQygBTEDjXN4ZfkztPdyh+Mry3ciDMBXv6Q8iWQAzcQMNE51DOzXWqz7IsL11kEHtli/ymAGWhAz0DjV+aDObLn+H1eW79Vy/Ro/M9CCpLxQuc//GDsP/HkT7b/g41eV5YVmXFR3pTyk0ef/s1mlvFC5r93+Vcx90fE1Y2jD5ZXlnYeupS4zgBbEDLS+GyvLK8fQhmr3LaU7p8lmAC2IU3rUtxlYP7C8I+2/T3XbyvJlQ9dSl6WM+jCAZuKkcnF+P/DnKWC/luuvvni5ibnCNVnMQAviXfg4P60s37fl+u9aWXaO7/4xgBbEABrnjMryY1usexVzA/Zm4Fst1q8yGEAL0tc76qlOriwfBtyupbofx9xroF8FrmipbpXDa6AFMQONcy5w9sDyNoQpOHJbBryg8t2HW6hX5TEDLYgZaLx3V5aPJrw9PqenMXeOpV/R7MubNTkMoAUxA433UeDigeVtZr5bm6m+fYC3Vb57M+29xERlsQtfEDPQeBuAF1e+25twfXR1w3XtApxEeAv9rLOADzVcjyaHGWhBzEDTfBL4UuW7A4GvEIJeE/YCvgvsO/DdjcCzMfvsMwNoQcxA00wDTwIurHx/f8JQp4NHLP9RhDGe+1a+fzWO/ew7A2hBzEDTXQkcAVxa+X4vwkyaHyJMQBfjDoTJ6U5k/sybnyVMmax+M4AWxAx0NOcAhzL3EU8IPzLHAOcRro0+EdhjgTJ2Ah5PCJDnMnyqjq8Af8Po881r8nkTqSBtvwyji84D7kG4E1+d8mM58PCZD4Rs9Q+E7HUtYW75Wy9R/nuBY/HNSwrMQAuynPguuV34+S4DHkaY8vgNwPYLrLf7zKdumc8FPj1y69QlBtCC2IVvzlbgXYQXfow6V9LJhPmXDJ6qSgmgXvrJxJtIzbuQ0JWvPnpZ16uBRxC6+lKVQ9gKYgaaxzRhAHyKC5psiDonpTtuFz4TA2h5zDC0mJRgaBc+E7vw5TGAqmlmoJmYgZbHbEGLsQtfEOdEKo8ZqBZjAC2IXfjyGEDVNANoJnbhy2MXXosxAy2IGWh5zEDVNANoJmag5TGAajFmoAUxAy2PXXgtxgBaEDPQ8piBqmkG0EzMQMtjBqrFmIEWxAy0PGagWowBtCBmoOUxA9ViDKAFMQMtT98y0AOBf0/Y7gHAm4GVzTankwygmZiBlqcvAXQ1IQB+G7hTwvYrgJcCPyBMqaKFGUAzMYCWpw9d+EMIc0m9lNF7QXcDTgNe2UBZk8ApPQripHLl6XIAXUZ44/6rgG0WWOdC4Ezg58DGme+2Be5CyDSHTRW9Eng9cH/C7KVXNtfkTjCAZrSVcIDrfh4ynmZOnL2IO66zn5Tu7CSYAt7P8H2+BvgXwjxQS7kT8A7gigXK+jFhquiuOob4c+pF42johLqBuGNrAM0kNYDuM47GtuC9DN/fT1F/ptJB2wOvA9YPKfMMYNXoTS7SMcSfUy8cR0MnlAG0EKkBdFgXddL9HfP3cwPwuAbK3o/Q3a+W/4EGyi7RU4g/p44dS0snU1QA9SZSebp2F35f4D2V764DHgYc30D55wL3Ab5Z+f7pNBOgSzPd0jaqoQ93LSdN124iHUe4CTRrC/BI4NQG61gHPJwwpGnQO4E1DdYzqQygmZiBlqdLGehhwOGV795As8Fz1nrgKODqge/2BP5PhrrGyQy0IGag5elSAK3evDidMNwol98MKf+5hBtOXWEALUjKpHJmoHl1pQu/J/DQyncvI/8PxL8Clw4s7ww8KXOdpTOAZmIGWp6uZKAPZ+75dRrwrRbq3QR8uPLdE1qoty1moAXxGmh5upKBVoe7faLFuk+oLB8E7NZi/aUxgGZiBlqermSg+1eWv9Ji3WcB1w4sTwH3brH+nMxAC2IGWp4uBNDtCA8SzFoH/LLF+m8Ezq58d68W6y+NATQTM9DydKELf3Pmnlt/oP39qgbsPVuuvyRdOKeKZAZani5koDtUlq8fQxuuqCzvPIY25GAXviApAdR/jLy6EEA3V5bH8TRQtQ2bxtCGHFISGDPQTMxAy9OFk/3ayvLutH/erK4sX9Zy/bmYgRbEa6BlmX0z1qS7krlBdAfgDi23oXrN85yW6y9JF86pIpmBlqUL2SeE/7DVu+AHtdyGu1WWT2+5/pIYQDMxgJalC9c/Z1UD1lEt1r03c4dR/Qn4SYv152QXviB24cvSlQwU4OTK8mG097LooyvLnyGMDe2rLp1XRTEDLUuXMtDvAJcMLC8nzJyZ22rg7yvffaiFektmBpqJGWhZuhRANwP/VvnuyeS/Fvpq4JYDy98gzPLZZ2agmZiBlqVrJ/q/MfcFx1PAB4G1meo7hPkzUL4xU13j4jXQgpiBlqVLGSjA5cBrKt/tQ7gmubLhuvYDPgusGPjuePK8/X7SGEAzMQMtS9cCKITpjL9X+e5BwBdo7k3x9yVccx2cD/4qnA99lgE0EzPQsnStCw/h7vfjmfuWeAhzJZ0G3HmEsqcIQfIU5j/r/rfARSOU3SVdPK+KYAAtSxczUAhvYzqC8ITSoLsCPwTezNzssY4HEbLO/0t4fd6gNzL/pcp9ZgaaUe1J5Gc+jxlPMyfOXsQf29+OpaXtuTshEx2279cB/0WYCmRYMF0FHAi8lvBY5kLH8N0Z21+Co/D/bE43EHds/cfIJCWA/nosLW3XLQld7sWOw1ZC9/vHwBnAhSx9Ym8Gjm1xP8YlJYA+eiwtnUxRAXR5QgXeRMqnq134QZcADyZMefw6QmZZtYzwMpC6L0E+F3ga/X7efTFeA83Ea6Bl6cuJvgV4O+GFH6PM1LkFeCtwDwyei/EaaCYOY8on5aTtQwY66JfAoYSnh1I8EXgpsLGxFnWTATQTM9Cy9C2AQvjPnZqFXthkQzqsLz2b1hlAy9LnNwalqE7boeHMQDOxC1+WPmago7hh3A0Yg5RgaAaaiRloPl4Dzc8MtB4z0EwMoGUxgMYxgNZjAM3ELnxZDKBx+tiFT2EXPhMz0LIYQOOYgdZjBpqJGWg+XgPNr48BNOW8MoBmYgZaFgNoHLvw9diFz8QMtCwG0Dh9zEBTmIFmYgaaj134/HzwoB4DaCZmoGUxgNZ3I3ZN6zKAZmIGWhYDaH197b77JFJBzEDzsQuflzeQ6jMDzcQMtCwG0Pr6moGmMIBmYgZaFgNofQbQ+uzCZ2IGmo9d+LzswtdnBpqJGWhZDKD19TUDTckmDaCZmIGWxQBaX18DaMo54nmViQE0H7vwefW1C59yjvjAQSZ24cviiV5fXzPQlC68P8yZmIGWxRO9vr4GUDPQgpiB5uMTI3n1NYCmBEMDaCYG0LL0NQNN+bHp6zVQu/AFsQtfFjOF+jaNuwFjkhIM+5qtZ2cGmk9KptDXLnxKBtrXoOAwpoKYgeaTctL2tVuaEkDNQOuzZ5OJATSflJPWAFpfX4+VAbQgBtB8Uk7avmZVZqD1GUAL4jXQfMxA6zMDrc8AWhAz0HxSbnL0NatKYQCtzwCaiRloPluIz6z6GhTswtfnONCCmIHmFfvL39egYBe+vthgmPJDrprMQPOKDaB9DQoG0PpiA6jd94zMQPMyA63HAFqfAbQgZqB5mYHWYwCtL6ULr0wMoHkZQOtJ2e++ZutmoAWxC5+XAbSeDQnbXNd4KyZD7DllAM3IDDQvr4HWYwCtb33k+n39UW6FGWheZqD1bEzY5trGWzEZ1hN3zXhdrobIDDS36yPXNwOtr68Z6FbislADaEYpAdRBufVdHbn+VVlaUb6NxJ9X1+RoyISI+WHu6w9NK8xA84r9Tx4bcLtiK/HZd58DQ0xW2efjlJ0BNK+YgHgd/b0GCnBl5Pp9DgyXRKzb12vFrfAmUl6/iVj38lyNmBC/i1j3GuKvL3dJzLG6OFsrZAaa2fkR6/4qWysmw9kR6/b9WMUE0IuytUJmoJl9h/qvHzs3Z0MmwJcj1j0zWysmw6kR616YrRUCwt3PmM+zx9PMifVJ6h3Xw8fVwEJsA5yOx6qOlYQf3KWO0/XA9mNq46S6gbh4aADNbA1wMosf049hbwBgN+A0Fj9W7xpb68qyN4sH0RuB546tdZMrewB9Tmu70h3LgKOB7xNO7GnC2MevA0eOsV0lWkH4j/9TwuWP2UzqJODgMbarRKuBlwMXcNP/z2sIvZ57jLFdk8wAWrjtgJ0IgUKLWw3cnNC91+LWEI6VPZnRRAXQ5WNqZJ9tJO3Z7z5aT/zLM/rKRzbHwGFMkpTIdF+SEhlAJSmRXXhJSmQGKkmJzEAlKZEZqCQlMgOVpERmoJKUyAxUkhKZgUpSIjNQSUpkBipJiQygkpTILrwkJTIDlaREZqCSlMgMVJISmYFKUiIzUElKZAYqSYnMQCUpkRmoJCUyA5WkRGagkpTIDFSSEhlAJSmRXXhJSmQGKkmJzEAlKZEZqCQlMgOVpEQpAXS7xlshSeO3koSYOB35+TWwvJn2SlIxnk58PIzeYBp4Qks7JElt2AY4n5YC6E/wWqik7jiKtFiYtNE08NBWdkuS8vshLQfQb7axV5KU2UNJj4PJG04DB7ewc5KUyzLgNMYUQL+P10IlTa5HM1oMHGnj6ZkGSNKkWQ6czZgD6LnAtpl3VJKa9lJGj38jFzANvCXzjkpSk/YB1jM/ll095LvGAugNwLuHfH8jcGDW3ZWkZqxk+I2jM4AXDfm+0QA6BXxsyN/9ElibcaclqQnvYX78+gWwG/DMIX/XaAAFWAGcPOTvTyFEd0kq0VOZH7f+CNxh5u+fPeTvGw+gAKuAbw1Z5+M4tElSeY4ANjM3Xl0P3HdgnefRUgCF0GX/0ZD13oZBVFI5DmP+TaPNwMMq6z2fFgMowC0I1w+q636A8IYTSRqnxwEbmRuftgBPGbLusbQcQAFuTbiJVF3/eGB14k5L0qheSBglNBiXtgLPWGD97HfhF7InwzPRc4H9I3dakkaxBvgk8+PRVuC5i2z34iHbtBJAIWSiFwzZbj3wLLwuKim/QxiezG0i3IVfzEuGbNdaAAXYiTCcadj2pwP3qVGGJMXaBfgPQpZZjT1XEALrUl42ZNtWAyiEcaLvW6CMrYSB+PvVLEuSFrMGeDVwLcNjzo+AO9Ys6x8XKKPVADrrScCVC5S1Ffgq8Aicn15SvJsDrwIuY3iM2Qy8kbiHe16xQFljCaAAt2L4U0uDn0sJw54eBWyfUIek/tgdeCsLZ5yzWWfK5cJXLVLmvM+ymT/UtZn0RzUfCbwBuMsS690AXANcB1xFGIJw3cDfX0PIXgE2EMZ3DXMtYazXMJuBdYu0YbFtq+1pwnUz5TZlqf3rqpvR3d7MKmC7cTcikynCv10dBwDHsPCxuIgQBD/KTXEixmuA18ZskDsDHTQFHM3wO2R+/Pjxk/r5I2EI0ipG808x9bb9a72V8MuwL3Ak4a68JKW6jHDnfC/CI+QbRiwvKiaOq7uzFTiJ8BD/Qdx0jVSS6vgTIXDejvBC9/UNlRsVE5c3VOkovjvz2Z9wbcNHPyUt5ifABwkD45sWnVTGXGcY9RqoJJXsLRR8DVSSSjYR10AlqUQGUElKZACVpEQGUElKFPXKTQOoJN3EDFSSEhlAJSmRAVSSEhlAJSmRAVSSEhlAJSmRAVSSEhlAJSmRAVSSEhlAJSmRAVSSEhlAJSmRAVSSEmV9G1NU4ZI0YbJmoAZQSV1mAJWkRAZQSUpkAJWkRFExcXlCBcsIk8qP03Lg/sC9gX2BPYC1M591wBnAccB542qgpIkUPTJpOvIzzqFPtwXeCVwxpF3Vz0bgWeNppqQJ9TXi4mF0AN2mtV25yQrgFcCGhPa+egztlTSZvkHmAJrS7R/FWuJ/Faqft7XcZkmT6RQ6FEBXAd9LaOOwzxtabLekyfQtMgfQla3tCnwkoX2LfY5tse2SJs+3yRxAt21pR/4yoW1LfbYAh7TUfkmT57tkDqDbtbQjpye0rc7n18D2Le2DpMkSdckwZUhSG4Pp9yeM8VzM74HXEDLKuwIPIlzn/O0S2+0FPHbE9knqpuzjQFc31dJFvHyR+rcA/0y4wTTMCuA5wLWLlHFixrZLmlxnkLkL30b399ML1L0ROKJmGbcBfrZAOWc13F5J3fBDMgfQHVr4yUIuAAAE/ElEQVTYidOG1LsVeHRkObsC5wwp6zdNNVRSp5xF5mugbTyJNKxdHye+630Z8BRCt3/Q9SmNktR52af0aGMc6OVDvnt9Ylk/AL5Q+e7ixLIkdVv2ANrGk0jVtyj9CDh/hPI+U1k+c4SyJHVX9gC6ImGbWF+vLI960+dXS5QvSZB5UjloJwM9hXD9ctYlI5a3aeDPfwS+OWJ5krqpExnoJuDdDdZ5x4E/v5f5N5UkCVoYSH+Xplq6hDWExy6ngc+NWNb7Zsq5AthpxLIkddcvyDwO9IDWdgUOBTYT7sqnPoO/Izc9lfSMhtolqZt+ReYAeq/WdiV4xky9T03c/riZ7U/ASfEkLe5CMgfQ+7W2Kzc5FvgTcKvI7Q4iXO/8f4RMVJIW81syB9CDW9uVuZ5MmK+k7g2lWwJ/AD5GuJ4qSUu5iMwB9EGt7cp8DyC8aWkpK4D3EF7KLEl1XUzmAHpka7uSbg3jnX5Z0mS6hIh4mDIofhK6w+vG3QBJEyn7QPo2XmcnSeOQPYBOQgYqSSnMQCUpUfYA6oyWkrrKDFSSEmUPoDdL2EaSJkH294HeMmEbSZoEUXO+pQTQPRK2kaRJEP3CodgnkTYDqxtqrCSVYg1wIxHxcIr4+YaWA/duqMGSVIqXkjBt+/OJz0I/3Ex7JakIewDXEx8L2YUwB1HMRuuJfzenJJXqw8QHz2tnNz4hYeOP5N8nScruAMKL12Nj4JtmC3hkwsZbGd/LlSWpCVPAacTHv3XArrOFrCDMlx5byEXAznn3T5KyeR7xcW8aeHu1oNclFnQyCXeuJGnMDgA2EB/z1gO7Vwu7BbAxobBp4F/z7J8kZbE78GvS4t1xCxX6gcQCp4HXNLt/kpTFzsDPSItz61hkBNLuwDWJBU8Db2lyLyWpYXsB55Ae4161VAX/OELh08CHgO0a2FFJatJDSbtZPvu5iBqPsW8LnDdCJdPADwiRXpLGbWfg3wlDL1Nj2lZCAK7lANJvKM1+rgdeBqxM3GlJGsVawvPtVzJaLJsG3hNb+QsaqHSaMFH9KwmD7u8G3BonppOUxzbAAwkZ53U0E8N+DKwaVtli775bBnwSOGrEHVrKNYT0+EbCDkMYm7VxyDqDBtcftJ7wbH/V1YSDMUoZVVfVWGepuhZSPQZLuW6mjlzWEV5lmNvmmbpGtYLu/FBvT3M9uVWk3aO4+QLfT7HwLBXLWXgKoMX+fbZl7rXG1TPfwdxjsWamnB0I2ebsZ1uacynh7XO/G/aXS708dDvgK8ADGmyQJE2CDcAhwBkLrbDUG+k3Ep6T/3lzbZKk4m0AHsUiwRPqTelxNXAY8KMGGiVJpdsEPB746lIr1p0T6U/AocB3RmiUJJXuKsJwpS/WWTnmJSCbgE8RxnfeNb5dklS0XxDu4J9Zd4PYtyhtJrx8+XLgQQnbS1KJTgKOAH4fs1HKtMYQ3r50EOGBfEmaVOuBZwJHEgbcRxklg7yY8Pam9cD9COOxJGlSfBF4NDVuFi0kehL5BdwGeDHwdBYYsS9JhfgZIV59ZdSCmgqgs24BHEsIpLsusa4ktWWakGm+A/ga859KTNJ0AJ21LfBYwrWFgzLVIUkL2US4q34BcArweSJvENWRK4AOugshkB4N7NhCfZLm20h4uiZGyvsPhr1zYjFbGJhffcDgux2unVkP5r4X4+qZv6t+LiPco6m+P6Nx/wvXLYnNdhfIgwAAAABJRU5ErkJggg==;labelBackgroundColor=none;" vertex="1" parent="1">
          <mxGeometry x="1360" y="320" width="70" height="90" as="geometry" />
        </mxCell>
        <mxCell id="OipEP8MaM-20ByhYYCx5-48" style="edgeStyle=orthogonalEdgeStyle;rounded=0;orthogonalLoop=1;jettySize=auto;html=1;entryX=0;entryY=0.5;entryDx=0;entryDy=0;verticalAlign=middle;startArrow=classic;startFill=1;labelBackgroundColor=none;fontColor=default;" edge="1" parent="1" source="OipEP8MaM-20ByhYYCx5-50" target="OipEP8MaM-20ByhYYCx5-54">
          <mxGeometry relative="1" as="geometry" />
        </mxCell>
        <mxCell id="OipEP8MaM-20ByhYYCx5-49" value="tcp9887" style="edgeLabel;html=1;align=center;verticalAlign=middle;resizable=0;points=[];labelBackgroundColor=default;" vertex="1" connectable="0" parent="OipEP8MaM-20ByhYYCx5-48">
          <mxGeometry x="-0.175" y="-3" relative="1" as="geometry">
            <mxPoint x="7" y="-3" as="offset" />
          </mxGeometry>
        </mxCell>
        <mxCell id="OipEP8MaM-20ByhYYCx5-50" value="" style="shape=image;verticalLabelPosition=bottom;verticalAlign=top;imageAspect=0;image=data:image/png,iVBORw0KGgoAAAANSUhEUgAAAVAAAAG0CAYAAABkPX9NAAAACXBIWXMAAA7DAAAOwwHHb6hkAAAAGXRFWHRTb2Z0d2FyZQB3d3cuaW5rc2NhcGUub3Jnm+48GgAAIABJREFUeJzt3Xm4JWVh5/FvLzRNN4sNiICyCAoIOBMliY64MEKMQQkZlGeMcTCaEXdbRw1xewTNGMw4KhKNqEFFjQsqIrjiEDQYJghBlAZ0WBqVRfat6b3v/PHem3u4fe699b6n3qo69X4/z1MPTfepOvWeU/U7b9W71ALyWAA8HzgJODzTe0jSfC4HPgJ8Adhc98YX1Ly9JcCLCMF5cM3blqRU1wF/B5wBrKtro3UF6DbAXwDvBB5d0zYlqW43A38N/AOwcdSN1RGgfwx8ENi/hm1JUhOuB94CfGOUjYwSoCuAU4ETR9kBSWrR+cCrCDXTaKkBegTwRWD3xPUlqSvuAF4M/CB2xUWRr18AvA34DLBj7JtJUgctB/4M2ARcHLNiTA10MfAx4BUxbyBJY+TzwMup2MBUNUC3B74GPCdxpyRpXHwbOB54aL4XVgnQZcC3CPc9JakE/4cwGGjOPqML59nIMkIr1RH17JMkjYUjgS8T+rjPaq5GpEXAOXjZLqlMBwJ7AOelrHw6MFHTcinw7PRySFJlRwJXUl9+vTZ2B15Z0xtfAxxH/WPuJWkuiwnBdyej59gGIiZFOpTQ+jTKG94FvHqyEJLUlhXAR4EtjJZp1xN6I81pW+CqEd/oa8CuIxZakup0BHAjo2Xbx+d7k3eMsPFNwMrRyylJWexKGGmUmnFbgN+dbeN7A2sSN7wOeEGNBZWkHJYC55Ieoj+cbcNnJW5wM6GhSJLGwVLgn0gP0WNmbvBQQhCmbOxNWYooSfnsCFxLWub9ZObGUqu052MXJUnj6Ymk9zg6emojT03cwF3Y2i5pvP0lafl3ydQGLkzcwGtyl0ySMltC+qX8H5C44mrsJC+pH44lLQf/mcQV39hIsSQpvwWEYecpWRi9wnrC8ChJ6ovU+T+iVzi/oQJJUlN2IlQOo/JwvgmVh7m0jr2VpA65D7godqWUAL0lYR1J6rrvxq5ggEpScEXsCikBel/COpLUdT+LXSElQOd91KckjaF7YldICdC1CetIUtdNECZVqiwlQOd8TrIkjbFNMS+2BipJ0zbGvNgAlaRp2Wug6xPWkaRxkD1Ao6q4kjRGsgfoloR1JGkcZA3QqCZ+SRozBqgkJTJAJSmRASpJiQxQSUpkgEpSoqxj4Q1QSX02EfNiA1SSpmUNUDvRS+oza6CSlMgAlaREBqgkJTJAJSmRASpJiQxQSUpkgEpSIgNUkhIZoJKUyACVpEQGqCQlMkAlKZEBKkmJDFBJSuR0dpKUKCrjFkduPCqdpQiLgX2BvYGdgQWTf//g5HILcDOwro2dUzGiMs4AVRsWAAcBh08uTwEeB2xTYd1fAz8HfgZcCvwIuCvPbqpABqg66ZHAc4GjgaOAXRO3s9fkcvTk/28BrgIumlwMVI0iOuMmIpZv17ab6ruFwO8B7wb+ldAAGXOspS6bgSuBDwN/AqzIXVD1yreIO96iXvyt5sqhMbQ9cAxwBuF+ZROBOd+yCbgMOBk4jOl7q9Iw55MxQM9vrhwaE/sBK4ELgA20H5jzLasJAX88IfClQedhgCqjJcBzgI8RGnTaDsRRljWEE+ZVhNZ/6VwyBuh5zZVDHbKMcGl+FnAP7QdfruV64DRCI1eVHgHqHwNUtXg08Grge8B62g+3ppc7CT8YLwCWj/hZanycQ8YA/WZz5VALpu5nXkzoHtR2iHVlWUu4x7sS2DP509U4yBqg5zZXDjVgIaFl+mTgGtoPqnFYNjPdqv+E2A9cnfd1DFDNYTvCPb7TCMMj2w6kcV+m7ps+nfi5JdQ9X8MA1Qy7Ai8DvkFoeW47dPq63Ax8nDDiattK34y65mwivnOHcvbX/sCxk8vhwKJ2d2devwZ+CPwbcAVwLXAHsBR4PPAk4BnA04ADW9rH+ewJvHJyuR/4LqHS8W3g3hb3S9VFZ1zML+w5te2mcjgMeC9hoo22a2PzLb8FvgScSAjIGLsBfwqcyXj0Rd0AfB94LWEcv7rrK8R9twboGFsMHAl8BLiJ9oNiruUewi2ENwCHUu+QyidMbvc84IEOlHWuZQthboCTiP/hUH5ZA/TrzZVDs9iO6fHmt9F+IMy1DHZMX5LjwxhiEaEmfhLjMbx0FXAqoRHKcfrti7oHSuSLv9ZcOTRgF+AEwq9jl2tYU/0lT6I79yl3Jox7P4Pu9zpYjS36bTNAe2JfxmOSjtsII3aOB3bI8UHUaKrf60mEwQJNTbGXstxO+FyPwWGlTcoaoF9trhxFOoTpk7urI4EGO5KP+/RwjyQEf9fH+N/F9I+Uw0rzMkDHyGLg2YTLttW0f6LOtjxIuPp4KeF2Qh8tBo4A/pYww33bn/lsy33AFzFMc8kaoGc3V47eWgYcB3yWULNo+4ScbbkN+CTwfEJfzNLsQ+h29F3Cg+za/j6GLQ8RejacgDPv18UA7aCpkUDnEg76tk+82ZZrCS3CT8NGjEE7AC8EPkPo3N/29zRsmepr+ipg9yyfQhmyBuhXmivH2JtqOT+P7jYCDd7PPDjLp9A/gxOwXEb73+F83+sBOT6EHssaoF9urhxjaU/gdcA/EZ7F0/aJNGx5iBDq/x14VJ6PoSiPA94EXAhspP3vd9hyOfAOnD2qiqwB+qXmyjE2HsN0d6OunkB3Ea4eTqD7XY3G2XK6P3P/KpyKby4GaAP2Bd4MXEJ3uxvdRHi077Po/kQifbQNYZjt6cCvaP94GLb8FHg7oRatwADN5NGEPpo/of0Df7blF8DfEJ7HPs79M/tmAd2f6OVywvH92EyfwbjIGqBfbK4cnbCE0OXoW3T3nuaVwLsJE3RoPOxPuIL5Ed08ri4lTM7S1z6/c8kaoP/YXDlatQ3hfuENtH8wD1um7mMdlKn8ak6X5zlYT2hwPJ4w0KAEX8UAHclBhIBq++AdXDYBFwGvJzRaqZ+WE54CehbdG2RxMWX02shaA/1Cc+VoxZPpTuvpeuA7wCsIY7ZVlsWEaQD/nu5MW3gN/Q9RAzTRwbQ/yuQhwpyrLwEekbe4GiMLgWcS5kxou0X/CmD7vMVtVdZL+M83V45G7Ud4IFgbB+R9hFsjL8TJITS/BcBTCJOeXE87x+w59HeorwEaaSfg/9HsAXgn8A/A8/DpjRrNkwjdo66m2WP4LU0UrgVZA/RzzZWjMZ+imQPuZuCjhM7VpbRoqlkHA++kmb6m6wltBn2TNUDPaq4cjXgcefvh3UK4b+XsRmraocBfA9eR7/j+Gc0966opWQP0s82VoxHvof6D6m6mH8VgTVNdcAih33COfs2nNFeMRhigEa6gnoPoPkJoHo3Pr1F3LSTMuv9xwn34Oo79DYT7sH1hgFa0PaNdvq8nPObiOMqcsV3jbRvCVdI3Gf021k8b3vecsgboZxorRn6Hk3aw/IIwTnjX5ndZymJPQkv+/aSHaF8mr8kaoJ9urhzZvZT4g+QcnBpO/bUH6Q837EsjaVSA9qXQKfZPWOfThMclSH10K/D+xHX7UgONEhugE1n2oh17JaxzVe17IXXLD9regZZF/RCUXANNuYd5W+17IXXLdYQG0lh9yZKoSmLJNdDdIl9/L2GyD6nPJgiX8rH6cgmftQbalw8J4mfbTjmopHF0e8I6fcqGyvpS7U4RO/PR3Vn2QuqetQnrGKCFiZ3TcF2WvZC6J+VYN0ALs13k6w1QlcIArajUAF1KfIf4lJZJaRwZoBWV2oi0LGEda6AqRckBaj/QClIenWENVKWwEakia6DVGaAqhR3pK+pLoWMZoNLsUuZ76EvlKkqpAZpyCe8kIipFn0YcxnIkUgUpT8Is+aBSWbYkrNOXypiX8BWkPKso5aCSNF5sha8gZVJka6AqRcqx3per0ygGaHUGqEphgFZU6j1QL+Gl2RmgFZX63PKu1ryPAZ6f+T3OB86LeH0T+5SiL+WIFVvuFCU3IkUpNUC7WgM9DDgx83vcStwJ2MQ+pehLOWLFljuFNdCKvISvznugKoUBWlGR1W7SGpG8B6pSlBygdmOqwFZ4aXYlB2iUUi/hUwJUKkVKgPalMuZIpAoMUKlefalcRSk1QEvtfSBpbk4mUoE1UKlefcmGKKXWQEstt5RLkedUkYWm3HJLqpFBIqkORV7CxzamFPkhNehsYFXm97g68vVN7FOKvpQjVmy5m1JkZazU1uiu/hCsonsneRf3KUVfytFVXT2nsiryV0NS7QzQCor8kCTNq8hsKLUGWuSXLWXUl3PKyUQkNa4vARrFS3hJdSgyG0qtgRb5ZUsZFXlOlRqgkuplgFZQ5IckaV5FZkOpNdAiv2wpoyLPqVIDVFK9DNAKivyQJM2ryMpYkYWWVLsiK1elBmiRX7aUUZHnlJfwkupQZDaUWgOVVK++BGhUOZxQubrjgYPb3gmpAYckrNOXyljUc+GdULm6gzFApb5zNiZJjSvy6rTUAC3yy5YyKvKc8h5odWdPLlLfHT+5xOhLZcx7oJlcjQGqMqQ0IvWF90ArKLkmLeVQ5DllR3pJdSiyMlZkoSXVrsjKVakBWuSXLWVU5DnlJbykOhSZDaXWQCXVywAtSJFftpRRX84puzFJalxfAjSK90Al1aHIbCi1Blrkly1lVOQ5VWqASqqXAVpBkR+SpHkVmQ2l1kCL/LKljIo8p0oNUEn1KjJLvISXVIcis8EJlbslZSJbVZMyIXYXv4+uTuxdZDY4oXK3HEL3Tti+SJkQu4vfR1cn9i4yQIu8b0GhX7aUUZHnlPdAJSmRASpJibyEl6RpWWdjMngkDVNkNpRaA5VUr6jnqXeYNVBJSmSAVtCXX0upK/qSDc5IL0lNKLUGKknDRGVcqWPhu3oJfzawqu2d6KmrE9bp4veRUo4m9CUbojgWvltW0b0TtmR+H9V1tVISy0YkSWpCqQHal19LSfWyFV5S4/pSuYpSag1UkobxHmgFXsJLGpmX8JI0zRqoJCUyQCvwEl7SyLyEl1SHvlSurIFKUhNKDVAv4SUNY0d6SWpCqTVQSRrGe6AVeAkvaWRewkvSNCdUriClBvrfgMPr3hGpg/ZLWKcv2RCl1ABNsR9pB5ak8WErvCQ1odRGJEkaxnugFaTcA/0ccFbdOyJ10AmEe/4x+pINUXyoXHU3AD9oeyekBjw9YZ2+dA20H6ikxvUlGwzQCvryaympRbbCS9I0a6CS1IRSA9RLeEnD2JFekppQag1UkobxHmgFXsJL9epLNkTxEl6SplkDlaREBmgFW9reAaln+pINUbf3vISXVIe+tCtEZWKpNdDNbe+ApPFXaoB6CS9pGDvSV2ANVKpXXypXUUqdULmrAZoykW1uKRNJx5ajiffoCyf27pBSA7SrN7z3A45qeydm+HHCOrHlaOI9+iLls1J1XsJX0NUaqKR22Q+0AhuRJI2s1AC1BirVqy/ZEKXUALUGKtWrL+eU90ArsAYq1asvARrFGqikOvTlnLIRqYK+fNlSDinneV/OKS/hK0j5svvy4yHNJyUXDNC6N95hKfdAS/2xUXlKroFGKTVArYFKsys5QKPKHjuUsy+6WgM9C7i4gfeJcUPCOrHlaOI9+iLls4qVEqBdHR6dValj4btaA72BZk6Q3JooR18+qy5KqSz0pWug90Ar6GqASl1gDbSiUhtGUgK01M9K5fEeaEWl1kBTLjf6UnZpPiUHaJRSA9RLeGl2JQeoHekr6GorvNQFJXekj1JqDXRjwjqldvlSeUqugUYpNUDXJ6yzpPa9kLpp24R1+hKgWZ8L3xcpAZpyUEnjqOQAjWINtDoDVKVYmrDOptr3YgwYoNUZoCpFSoCmnFNdZCt8BQaoNDsDtCJroNUZoCpFyrHelwCNUmqAriF+7G7Kr7I0jkqugUYpNUA3Aw9GrvOIHDsiddCOCev0JUC9B1rRfZGv3y3LXkjds3vCOutq34t2eA+0otgA3QVYlGNHpA7ZFtg5Yb2U0X1jr+Qa6D2Rr19ECFGpzw4kvqJwC3akr6RPNdBfJ6yzb907IXXMkQnrXFX7XrQn6yV8n2qsqxPWeW7dOyF1yG7A/0hY75K6d2ScTEQsd7a0jzmcQFzZJwjD1b4DvAjYrvldlrLZH/gl8efEBPD0FvY3l+uJK3vUi+9urhzZ7Um4b5NywEwA9wKfBI7Cqe40npYCRwNnAA+Qdh78hn41rmYN0NiGl647j/QAHVzuIITpc4BtGi2BFGcF8BLgbNJDc3B5X7O7n90NZAzQ2K4/XfdEQqf6OkJ0sJZ+FnAMziGqbtgbOJFQYVhPfcf6OuDRDZajCTeSMUAfaK4cjTmbegN0Zph+Gng+DgVVs54EnAxcQb7j+7SmCtOgrAG6prlyNGZfwq2JXAfZ4I/PV4A/BXZqomAqymJCF6SPEHqY5D6eb6Wfw5tXkzFA1zZWjGa9kPwH3OCyntCafyJpw+YkgB2A44HPE652mjp+txBuUfXRajIGaF/Guw7zUZoN0allM3Ax8BZCVxJpLnsQfni/TTgf2zhm/2f2UrbnJjIG6IbmytG4RYT7lW0ckIPLKuBUQt+6Po38Urr9gJWEH9q6Gz1jlzPp14CamX5FxgDt+3NPFgKfoP0QnVpuBD4IPJN+9bXT3BYChwN/S3rn9hzLh+h3eELmAN3cXDlaswB4I+1dHs223A58Cngetuj30XaE+4qfAn5L+8fb4PJL4MX5it4pWQN0orlytO4A4BzCNF1tH8Azl/uBLxOGlNqiP752AV4KfJ3ppyR0ZVkLfAn4Q/pf6xz0azIHaEkfJoQJFl5PmDCh7YN62DLYov+oTJ+B6rMf8CbgIsItsbaPn8FlM3Ah4Vhakan8XZc9QEse9/044G3AZbR/sM92AlwMvBlb9LtiAfC7wHuBn9H+MTJz2UKoHKwkzA9Rut+QOUAdnhg8ltD16BJGm5Qk53Il8B7gMGzRb9ISwrwIHyW+RtPU8lPgrwjHsaZlD1Af77u1vQi/4D+i/W4msy2/Ak4nzB7lhCf1W0FoaPkyYc6Itr/vYcu1wCnAEzJ9Bn1wM5kD1Hkw57YH8GrgAkK/2bZPmmHL3YTRK8cTRrMozb6EH84f0M3GxgnCbPGnECbO0fxuIXOALmusKONvBSGkziK0nLd9Mg1bNhLum66kfzPr5HAIYZKOy+jurZtVk/t4cJZPoN9uJXOAbt9YUfplKeHy+TTiv6Q2Tr7DsnwK42dbpr+3rt7PHPzeDsryKZQje4Du2FhR+msRYajmqXRrpMnM5XpCcJQ26/7OTF85dPV+5mBoPj7Lp1Cm28gcoH2cwqptTya0lnexm8vUcithmOvR9HMk1P6EB6pdRPf6Z04tm4AfAm8AHpPlU1D2AC21g21T9iXcj7yA7jZMrCHMbn4iYaDBuBq8n9n2Zzrbso5wLKwkNFAqr9hhtNFf6C6NFUW7Ep4eeh7dG5s/tWwiNEKdRPcvJZcTxpufQXx/vyaXqR+oE3CobtOyB+gjGyuKBi0jnPxnEZ4I2vZJPtvSten4pqaCu4B6nwdU93In08/Ssq91e24nc4A63rp92wJ/RKhJxd6zaXK5gTAF2hE0Nx3fjsCxwMdo5tEWoyw3Ej4fpyvsjuwB6iMoumUhocvRycA1tB8Ksy13EZ4JdQL1dt5fNFn+k+h+LXOC6Z4NXamh6+HuIHOA2tm6254IvBP4Cd3t6P0QcC7wcuJvCS0j1NjeDpxPdwcoTC2bgH8G3kqYjEbdFhWgCyb/EGMvwg14dd9jCJezxxIuo7s4Bn4zYUKWcwldiK4iNJhtS2iwPGhyOZgwq9GT6WY5Bj1EqA1/k9AYdEe7u6MIdxAabyuL/UXdu8adVXOmWqC73gg1rstUI5DzC4y3u4j73qMPlH0aK4pyWUy4B3ca3e7O0/Wl1JFafZY9QJ0/sH/GoUN5F5bNk5/RyThXQF/dTeYAdabzfnss3R8J1eSylumRQM7Y3n/ZA7Tro01Un10I3Y6+AjxA+2HW1JKry5W67x4yB+iBjRVFXbIcOA74LPH3icZh+QXwAezUXrrsAep8gxqcju8XtB9+KcvURNIn4cTDmhbbQyX6wPNg00yHEILoYrrbeX+CMOx1qquR89pqmNj5X6MPwkMbK4rG0d6Eae7Oo/1hlZt4eKu5Qyc1n+wB+h8aK4rG3QrgJcDZNNcI9Vvgc8CLCDPLSzGyB+h/bKwo6pPBZ0LFPjp2ruV2Qm33JKxlanRRcyukjIV/MnBFXXurIi0EngL8CfB7hBm+9mDux8VsIDzU7UbgSuBywuX5dcQfw9Js7iei61rK8LOFCetIg7YQJhC5ZMi/LWA6SB9BmJhjA+HSaksje6eSRV3BGKDqmglCXzwG/is1JSpAU8LQAJUk0sLQWWck9VX2GmjXJ7OVpEZYA5WkadZAJakJBqgkTbMGKkmJDFBJaoIBKknTstdAbYWXJKyBStIg74FKUhMMUElKlBKg29W+F5LUDdkv4ZclrCNJ48AAlaQmpATo8tr3QpK6wRqoJCXKHqDWQCUJa6CSNCh7DXSnhHUkaRxEPSI7JUD3SFhHkrpuCQ3UQPeIfRNJGgMvSVlpImHZuYadlaSuWABcRWQWpj7j/XGj7q0kdcjzgENiV0oN0KMS15OkLvrL1BVTLuFXAYtG219J6oT/RFoOTjDCin/eQMEkKbcf0EKA/gantpM03v6Q9AwcKUAngDfnL58kZbEtCS3v1Biga4DH5y6lJGXwPkbLv+gAXTPk735Iemu+JLXh94GNbJ1nDwz5u9oC9GPAZUP+fmXeskpSbR4J3MTWOfZvwFuG/H1tAfpBYH/gvhl/vwE4ImOBJakOi4DvsXW23QDsDrxmyL/VFqAfmtyJFw35t9uBx2YqtCSNagHwSbbOrjuAAyZf89oh/15rDXTKqUP+/efAipoLLUl1+BuGt+s8deA1rx/ymiwBuhA4d8hrrgB2q7HQkjSqd7B1Vm0EjpnxupVDXpclQAF2AH425HVXA3vWUGhJGsUC4H+xdUZtAV425PVvGvLabAEKsA+weshrVxO6CkhSG5YAZzI8PF81yzpvHvL6rAEKsC9w45DXryfcU5CkJu0B/Jjh4TlXJr11yDrZA3Rqh4f1EZ0g3Cvdp3LRJSnds4Gb2TqHNgAvn2fdk4asV1uA/u953nw58KVZ1l0DvAtYOl/pJSnBDoTBPlvYOn/uAv5zhW28bci6jQXolFcDD82yjdXAGycLK0mjWgy8gjBD3LDMuZLpfp7zGdZa33iAQphk5IdzbOte4P0kTKMvSYTZlF4GXMvwjNlEmDBkScQ23zXLthoPUAhdCF4MXD/Pdq8G3kNotd8l8j0klWVnwqX2LcyeKVcSZpqP9e45trnVsniUUlQwAfwj8FVCt4F3Egbyz/QEQvK/a/L/HyQMDb0XWEu4HXDv5H/XD6x3z4ztPED41ZmyFlg38P+bJl8zaOY25rJucpt12AzcX9O2SvcIxu9R28uJqxl1wRLCfrfpGYSGoNn242ZCjnyWcC80VtTMcrkDdMoG4CPAZwj9rN5AOOhns/3kIklV3EG4Qj6dUNFKFRWgsfN4TkS+fqb7CVXkvQgNSbeOuD1JZbsDOIXwqPX3M1p4QuYArcuDwGmE2ZteSWg9k6Sqbgf+ijCI52Tqux3WyUv42awHPkG4X/EyQgdYSZrLj4BP8fD2jbqMVYBOWQ98fHKRpLZ0+h6oJHXZWNwDlaQuMkAlKZEBKkmJDFBJSmSASlKiqCHBtsJL0jRroJKUyACVpEQGqCQlMkAlKZEBKkmJHAsvSYmsgUpSIgNUkhIZoJKUyACVpEQGqCQlyhqg4/bsbUmKYYBKUiIv4SUpkTVQSUpkgEpSIgNUkhJFZeLiyI13IUAXAI8F9gceAWxDKPR6YA1wE3AtsLmtHZQ0tqLbhSYilg/Xtpvx9gFOB+4dsl8zl/uBz0+uI0lVXUhcJka9+LTmyvEwf0y14Jy53As8u4X9lTSeLiIiY8bhHugLgHOAnRLW3Qn4NnB8rXskqa961Q/0GYRL8VH2c1vgC8BzatkjSX3Wm1b4nYCzgaU1bGsbQojuXsO2JPVXbwL0FOBRNW5vV+D9NW5PUv9EZVxXA3Qf4LUZtvtnhO5PkjRML2qgL2b+PqpXAa8BDptcXgusmmedRcCfj7pzknoraz/Qv69tN+d25Rz78AAhLIcVdCHweuDBOda/PPO+Sxpfl5OxH+gZDRRgCbBplvf/DfA7FbbxpMnXDtvGJkLLvCTNdAUZ+4HGDv1MsS/hUnum24BnAT+tsI0rJl/72yH/tmjyPSRppqz3QJsI0GEd5jcCxwDXR2znesIIpo1D/m3HhP2S1H9jH6D3Dvm79wGXJWzrUuDUIX+/IWFbkvovayPSl2vbzdntBGwZeM97gB1G2N6OPHwc/RZCn1BJmukaxvwe6H2Ee5hTvktoeU91/+Q2plwH3DnC9iT1V9ZL+G0iX5/qOwN//lUN2xvcxiU1bE9SP439PVCATxImSIZ6Rg49fuDPX61he5L6Kes90O/XtpvzO23yPe9jtAlFljHdsf5qhneRkiSAG8nYkf7C5srBLsANk+/7yhG28zqmG4+eW8N+Seqvm8gYoD9qrhwAHEpoBPoVaX03dwJuJuz7B2rcL0n99GsyBui/NFeOf/cHhEvwlGGkZxL2+0y6P3m0pPZNVbiyBOilzZXjYZ5C6Hp0dMQ6Lyc8pXNllj2S1Ee3kjFAf95cObZyAGFW+So1yScDn8CnckqK81syBmjMWPQ2rWh7BySNpTuIyMTY+4Lb1befWd3T9g5IGktZO9Ivi3y9JI0TA1SSEmUfC9/UcE5JalrWAAVroZL6ywCVpETZA3SUyY0lqcuyB6izuUvqKwNUkhJlD9B9E9aRpK7bhgYC9LCEdSSp696UslLMWPgJwgPebEiS1Cd7M/3kimyTiUwtb2ymTJLUiPOIz8EHIdQoY1e8G3hkI8WSpLyOI60i+QGA9yau/LkmSiZJGe37RcYNAAACzElEQVRI/GM8JoCHgN0hPDfozoQNTAAvzV8+ScrmLNKy78ODG3lL4kYeBJ6UsXCSlMt/JS331gKPHtzQUsKTL1M2djvw+GxFlKT6/Q5h4vWUzPu7YRv8i8SNTQC/BPaqvYiSVL+DiXx0x8CyBnjMsI0uBP41caMTwGqsiUrqtmcBt5Gec6fMtfHfBzaPsPHbgGfWVFBJqssi4G3AJtLz7WZg+/ne6IwR3mAC2EAYEpUyTFSS6vYM4KeMlmsTwDFV3mw5cHUNb/Zj4NARCi1JozgA+BKwhdHz7OMxb/xEQkfRUd90M/B14I+AAwnhLEk57Q18CtjI6Bk2AaxiluxaMMdOvAw4c+SibG0tsI7Qh3QjcD8haAef5T71b4NmPut9A6FFbFCV9TZOvi7GesIPSoypcsZ4aPK9mnQv4SDpmgnCvklVPQp4O/BKYNuatnk78FTgxmH/OFeAArwbOLmmHZHUDWsIFZC+WQ4sqXF764AjgX+Z7QXzBSjA6cDr6tojSRoDG4DjgW/O9aJFFTb0fULHUYdsSirBesIMTefP98IqATpBmCtve+Bpo+2XJHXafYTw/G6VF1cJ0CnfJ9w7ORL7eErqnxuAo4D/W3WFKvdAZzoC+CKTc+FJUg98D3gJYWrPylJqkhcR7odekLCuJHXJWmAloa96VHhC3CX8oAcJM9JfBzwdO8hLGj8XAP8F+FbqBka9l/kF4CDgI4Qkl6SuuxY4FngOcM0oG0q5Bzqb3YG3EkYBWCOV1DUXAR8idE/aUscG6wzQKTsBLwROIMyCkuM9JGkumwlzFP8CuBD4BnB93W+SO9x2I/Qf3ZFwv3UhIWAhjFVdNvnnHYDFk39eCmw3xzbn+/ftJl8zm2VUHyc7uF91m68co1hM2PdcVmTcds7PXMHM+SFyrxcz38LgHBez/XlqbooNhLk07p98j6k/30MIy+zDVf8/pbd/UgBL4LEAAAAASUVORK5CYII=;labelBackgroundColor=none;" vertex="1" parent="1">
          <mxGeometry x="920" y="320" width="70" height="90" as="geometry" />
        </mxCell>
        <mxCell id="OipEP8MaM-20ByhYYCx5-89" style="edgeStyle=orthogonalEdgeStyle;shape=connector;rounded=0;orthogonalLoop=1;jettySize=auto;html=1;exitX=1;exitY=0.5;exitDx=0;exitDy=0;entryX=0.5;entryY=0;entryDx=0;entryDy=0;labelBackgroundColor=none;strokeColor=default;fontFamily=Helvetica;fontSize=11;fontColor=default;startArrow=classic;startFill=1;endArrow=classic;endFill=1;" edge="1" parent="1" source="OipEP8MaM-20ByhYYCx5-53" target="OipEP8MaM-20ByhYYCx5-47">
          <mxGeometry relative="1" as="geometry" />
        </mxCell>
        <mxCell id="OipEP8MaM-20ByhYYCx5-90" value="tcp8089" style="edgeLabel;html=1;align=center;verticalAlign=middle;resizable=0;points=[];fontSize=11;fontFamily=Helvetica;fontColor=default;" vertex="1" connectable="0" parent="OipEP8MaM-20ByhYYCx5-89">
          <mxGeometry x="-0.1175" relative="1" as="geometry">
            <mxPoint x="-9" as="offset" />
          </mxGeometry>
        </mxCell>
        <mxCell id="OipEP8MaM-20ByhYYCx5-53" value="" style="shape=image;verticalLabelPosition=bottom;verticalAlign=top;imageAspect=0;image=data:image/png,iVBORw0KGgoAAAANSUhEUgAAAVIAAAG0CAYAAABgyK9wAAAACXBIWXMAAA7DAAAOwwHHb6hkAAAAGXRFWHRTb2Z0d2FyZQB3d3cuaW5rc2NhcGUub3Jnm+48GgAAIABJREFUeJzt3XecnWWd9/HPTCa9kgDSQlPUNYoNsNCWLkgVBKOrrrqgLMquHXRtqI/4sIKIj6LISxAWXQIICBIQRIqNYpAiGkhCSCGFEFJJnXn++M285syZMzPn+l13P9/363VDZnKu677ukzm/ufrVRrp2Az4FnA6MTvleIiL1NgH/C5wHPJ3WTdpSyvflwOeADwHDU7qHiEizNgO/AL4FPJl05kkH0tcDXwZOBNoTzltEJFYncB3wdeDxpDJNKpDuCnwR+AgwLKE8RUTS0glcD5wDzI3NLDbojcGqylcD+6FaqIiUQxswDfgoMAH4PbAlJjOv/YArgVdH5CEiUgRzgX8F7vMk9tRI27F+0CuB7T03FREpmG2A9wMjgHuBrpDEoTXSkcBPgemB6UREymImcBqwutkEIYF0CvBL4MDAQomIlM2jwHHAs828uNlAOhmr7k5zFkpEpGzmAQcAi4d6YTOj7GOAm1EQFZHWsgdwB9YaH9RQgbQDa87vn0ChRETKZhpwK1ahdPsWNnqVxPUC8Hm05l5E0jUCOANYSnLx60fewhyCTVCNLcBG4GJseoGISFbGA18F1pNMMA2erbQdsCSBG98A7BJ6cxGRBE3FYlFsPFvZnVfTfhx5w4XAKZ4nFhFJybHAM8TFtmuavdnriWvSXwmMdT+qiEh6xmF7g3jjWyfwtmZudFfEDT4b+5QiIhk4B4tZnlj3R4aYg7+/M+Mu4KzEHlFEJH2fwB/vDh0s4xnOTL+R4MOJiGTlfHwx75cDZbgrth1/aIZ3on1IRaSc2vF1Z27FVj71c54jszUETgcQESmYXYG1hMe/rzfK7HFHRl9I5bFERLL1ZcLj32P1mbzckckKbCqBiEjZjQWWEx4H94Levs0THDf+IVYdFhEpu3XYQqRQx0FvIPVs1jzTkUZEpKg8Ma1P7HySsOrsJmCUv7wiIoUzmvCZS0/0JO7AAmNI4qa23xcRKZlFhMXCjcCwdmAHYHjgzVYkU2YRkUJ5PvD1I4Dt24GJjpstc6QRESm65Y40E7yBNDRqi4iUgSe2TWwHJjgSrnSkEREpOk9sm+Stkb7kSCMiUnSe2OZu2iuQikgVeWLbxHZ8u9lvcKQRESk6TyAd145vYr1qpCJSRZ5K4sh2bB5UKAVSEakiTyAd0U74ZHxQIBWRavLEtuHtwMiMbiYiUnSe2DbC27Tf6EgjIlJ0mfaRbnGkEREpuq2ONCO8TXsFUhGpIk9sczftFUhFpIoUSEVEImUaSD39CCIiRbfZkWZkO7ZDfijVSEWkijyVxI52YJgjoQKpiFSRJ7a1K5CKiPTyxLZh7fQeyZz2zUREis4dSFUjFRExmQZSjdqLSBW5+0jVtBcRMZn2kapGKiJVlGnTvtORRkSk6LocadzTnzw3ExEpOk9sc9dIFUhFpIrcgdTTR6pAKiJVlGmNVH2kIlJF7j5S1UhFRIynkqg+UhGRGhpsEhGJpMEmEZFIrj7SDqAto5tJMY0HdgG26b4mA6OBccDwBq9fjx3HvQZYWXMtwHcmuEiRePpI2z2744MCaRlNAfYB3gy8CdgT2A0LnElZjgXUecAj3dcsYFGC9xBJkzu2PdOdOOSaFFdWyUA7cADwDeAhbH+E0H/npK7ZwPeB47EasEhRbUP4z/c88AXSCZk8knjsB1yE1QLzCpyDXRuBm4H3YF0IIkUyCWcgne9IqFpFsUwAzgIeI/9AGXKtBq4A9k38HRHxmUj4z/Ez4Auk4zJ5JBnKLsB3sYGfvINi7PV74FR8p9qKJGU8zkD6rCPh2EweSQayB3AZ1kzOOwAmfc0DPohvfrNIrHGE/8zOBxtlDU2ovq18TAHOx6YZ5R3w0r6eBN6Nb3qeiNdYMgyko7J5JunWAXwKWEX+AS7r635g7/i3UKQpYwj/GX0WfKO7I7J5JsHmfT5I/gEtz2szcDEa5JT0jcYZSBc6EiqQpm80cCH5zv8s2jUfOCTmTRUZwkjCfy4XgK9GqpHVdO0D/I38A1cRr63At9Evc0nHCMJ/Jhe2AYuBHQNv1oFOEk3L2cAF5BMongeew5oqK4AN2Dr6WlNqrl2AXcnnF+tfgNOAp3O4t1TXcGBTYJpFWmtfHOOBn2BzKbPwD2zu5gNY7fdx+gfNZgzH1uzvja3hfzOwP+n3Z74J+DO2Quo3Kd9LWocntrWB1UBCq7KakpKs3Ul/VdJK4OfA+4DtU36eDuBtwJeAh1N+ri3AJ1N+Hmkd7YT/DC4CXyCV5LwVWEI6QWYDcC1wLI23xMvKHsA5WC04rYD6YzSJX+K1Ef6ztxjCP8TqG03O8aQzuX4+8FlsJ5siaQMOBGZgNcmkn/taNAgl8UJ/7p6D8EC6JaunqbjpWKd2koHkcWwApgyzKl4O/JDkl7nOREuYJU4njkC6NDDR5qyepsI+QrLzQ5/C+j49x8bkbQ/gZyT7ftyNljGLX+jP4hKAZYGJNmb1NBV1Csk1a18CvopNIi67NwJ/ILlgejvVeF8ke6GfT1cg3ZDV01TQiViNPolA8VvgFdkWP3XtwMewfUqTeI9+gQagJFxol9tSsHN2QmtBEu5tJDOwtAWbVlTGZnyz9gDuIZlgenHGZZfyC+23dwXS9Vk9TYXsQXhfdKNrEXBwxmXPSzvwZZLpOz0947JLuW0g7OdrGdiywJBE67J6mooYDzxBfDD4C7BzxmUvgqMI/xmtvzYCB2VdcCmt0JbjcrA11SGJ1mT1NBXxC+KD6E209vEur8BmJsS8h8tozV9EEm4dgYHUM9+wK5GitoZPYPM6Y/wIO9iudiHEdthofVHni3YCZyaY39NYH/PN3f/32A64CjgcK5/IQEJjXBvAC4RF31UJFbbq9iZ+svlF9N/XYALF3+g5rbnGY7E5ojFlOzelskl1hB4m+TyEB9IXs3qaEhsBzCLuA//NBvmOwqY95R0o8wqkYEdB3BlRtk3AfimWT8ovdPrdCrBdgUISebZaazXnEReILmiQZwdwY2S+VQikYDXTP0WU7zHy3cRFii30bLQVYDXM4EQyoL0Inz5Re11B/+Z8G3B5RJ5VC6RgG0vHnCKgJr4MJDQmvuBJ9HxWT1NSd+D/cM+g8UqciyLyrGogBZuf650atR7bOEWkXmh350oIr8Yuz+ppSugk/MHnIRpvtHFuRJ5VD6Rgo/DeZbe3ZFhOKY/QKaGuQLosq6cpmWH4J94vxs4/qvcewrf0KsKV9Q5hn48o68EZl1WKL7SV8yKEj1AtyeppSuZf8H2QN2G75Nd7C+ls+lzFQNoO3OUs6x/R0TnSV+hGTq5A+lxWT1Miw4DZ+D7IjQY9pmC73OcdEMsSSMFq9KFNsp7rpBzKK8UVui/GKgiffKpA2t8p+D7Av6P/Lk5twK+d+RXlymvz7w8HlLH2eiSPwkphuQLp2sBECqT9/ZnwD+867Bjjev/uyKtoV16BtA375eQp8xHZF1cKKjSQri7qWu1tgPNTyHcD1u+4AfsFshrr3/g78Kgzz4PxrZS5AGu+19oD+LazHGI/1Gdi/5ahP9ufAX6TeIma8z20m3+zziH9RUFdga9vg/CdThYnVNjBTA0sUxLXF51lvdlxr/nYUsdabZRj+WeRa6Q9LiW8zJ3Y/gh5CO1ea+VrqvM9DhF6IOiadjRi2aO+dtiMqcAxjnT/h/4bZJ8FHOLIS/r7MuHbPbYBZ6RQFimf4JhY5eMqQnRih6WFOoPwM4GWYqdm1toT+Jbj/tLYMqxWGmo6amKL1TJDtCmQmgcJX7E1HDtWOdQl9D/36iJae+PmNFxE+Im3k4FjUyiLVFubmvbmNkeaI4AdA9OsBX5Q972DgeMd95fBPQdc6Uj3waQLItWnQGp+7UjzHkeaGfQdcWwD/tuRjzTn+440R2LnbEnrcjXtQwNp6E2KbjnwcGCaUfhqkfU1pPcB+zjykeY8hu1bGmIkmlPa6jTY5HAn4Wf4HAlMDEzzDHBvzdcjgW8E5iHhfuxI45mJIdWhwSaH3znSeGosV9H3H+gUGq9skmTdQPig0ztRl5c0T4NN2GFqoTyB9Ka6rzVnMRurCF+xtAPwmhTKIhXV6oF0EXZeeohdgFcFplmKHYbXox37sIbWlMTnOkeatydeCqmqtqKutV8JfDSD+yxwpNnXkeZ2+vbDdtIbjCdigXUcNjd1FH13yh+LnUo6kAkMvihgEtn/sizaufG3Y90qIe/D24HL0ilOP2ejw/ialcXhm64B9S2ErStdlERJS+zrhK8Pnp5LSaXWY4T9mz2RTzGlABYT9rOySYNN4d7oSBM6BUeSd1fg61+JtQ5EhtRO+BSoqs0jDfXqwNevAOalURAJ8ofA13cA/5RGQaRy2tpRYAzRTuND6gYTOtlf0vGQI820xEshVaTpT4FeRvjuQLOGfolkYB52XnmI3VMohxRfcOVSgTTMzo40cxIvhXh0AX8LTLN7CuWQ6tHKpkCTHGk8G0ZLOkKnu2nlmTRFgTRM6Pp6UCAtktBAul0qpZCqUY00kCeQeib9SzpC/y0mp1IKqRxPIG3lUf7QgaYt9D+bSfKzMPD1U1IphVSOaqRhQs9nWpdKKcSr/oiXoWhCvjSjS4E0TOj7pdposYTuAeBZsCItSD8kYUKniml3p2LxbKYy2IYxUk2ueaSp36RCQgOjPoTF4vnZ3Zp4KaRqujxLRFt5Av/qwNePTaUU4hVacegENqdREKkUHX4XaE3g68ekUgrxelng6zekUgqpGleNtJWFBtKejZqlGHYIfP3aVEohRZdJH2krCw2kEL5blKRnp8DXL0ulFFJ0Oo45ZZ5AunvShRC3HQNfvzyVUkjRhdZI1bQP5PlgaeOL4nh54OuXpFIKqRzVSMOsxHa8D/GKNAoiwYYDewem0ckG0hTNIw33dODr35RKKSTUNMIH/rSXrDTFE0hbeR4pwFOBr98HvWdF4Dm0MPSXplSDa9Q+uGM19CYVExpIJwN7plEQCbJv4Ou7gL+mURCpHvWRhgsNpAD7J14KCXVU4OvnAavSKIhUTldH3iUYwBTghwGvXwl8NKWy1As99wfgGOBnSRek26gU8y6r/wCeq/l6GuGtgr847jsO2BUY3f318O7vgVVaajcGn0Rvl8947PhnsNVwPfvejqR3dVxH9+t68vog6W/T+BNgQsr3CHUm4QO+mdiCNWOavbI4OmNqYJkWZVCmHsOw+aQh5XuB3g9K0sYFlqXq14v03zf2XEc+Zzfx3tf7WobP6TmtIdSyDJ+n2Wtqqk9sng0s0ybNIw23lfCz6rcB3p5CWaS/e+m/Y9OxznxCHepII8UTHBPVR+pznyPNaYmXQhq5o+7r3YG3BuaxEng0MM04YL/ANFIN2iHfqf7D2ozp9PadSTo6gV/Wfe90wisMMwnfBPoAtP9sy9KEfJ8/Eb436TbASSmURXrNpG9/+XDgw458bnGkUbO+hamP1Gcz9qEN9ZGkCyJ9XFz39YmEb523GbjNce8DHWmkItS095vhSHMottJJknc3/btcPu7I53asjzTEaLQUuEo02JSh2/DN4/tC0gUROoFP133vMOAgR17XONLsg/pHW5kGmyKsA65zpDsBmyAuyfkZMKvue1935LMGuMmRTlPbWpz6SONc5kjTjk3clmSsA75Y971jgLc58roKWO9IpyXALU410ji/B55wpDsZOCThsrSqzwCLa74eBnzDkU8X8ANnGVZiS1I3OdNLyXmWLWZRg10BnBrw+pfSKkgTLgQud6S7GBug2JJscVrKzcCldd87C9+WeXfj+6UItu69x3hgW2wdfe1a+RH0Hs9duwbfy1NzDvVv9K77L4os1tm7YtxGwtaVzkuipBUyEquNeNYNfyKB+7fqWvtFWMCqNRWb3+vJ78gm32+pvnmE/ey8BHZ2twJpnM/g+/CuBfaKvHcrBtKtwBEN3osbnfk92NQ7La1CgTQnY7B+Os+H+E/E7QzVioG00WDdqRH5ndDUOy2tQoE0R2fh/yB/JeK+rRZIr6L/0S2vwLbP8+T3+6bfaWkVmQTSuVk9Tcl0YDsGeT7MW7ApOx6tFEjvof/gxyhsE2Zvnpq6JPVCA+l6UI00SYfi/0CvBF7puGerBNInsI1f6l0ekee1Tb7H0lrm4gikLwUmUo10cD/H/8H+O3YERYhWCKQLsH1F6308Is81wC7NvcXSYhRIC2A74o5ouJuwfUurHkifA17V4LlPw0bvvfl+ptk3WFqOAmlBxIwgd2Fb9DU7EbrKgXQ58NoGz3w44fOfa69ZpHeGlpSfAmmB/Ji4IHIjtgJmKFUNpCtpvEJpP/yT7ruw/Ua15Z0MJjSQrgOLpgqkyYsdTe4JpkM186sYSFcBb2nwrIcRF0S7gPOHeD9F5hAYSNuwQBrSJzeP8DPCW9XLgYcIH0CqdT9wPANvNtxB9Y4weRJ4vO57pwBXE7f2ezbwBvLdm0GKbw5hMW59z39UI03PCdjGwzG1qMdp7V9eH8Pm2sa8h53AwVkXXEopuEYK4YF0TlZPUyHnE9/cXYENsrSSUdjuTkl0F/ww47JLebkC6brARAqk4dqxpY2xwWAzdlTJsGyLn4s9sW6RJIJoF/BTtP+uNCc0kK4FBdKsDAduJZmg8Dtsy7iqOgnrE04qiPZcV9Iav4QkjgJpwY3BNslIIiisxPoOq1TL2hk7ByvpAFp7XY2CqQzuaRRIC28b/JubNLruB/bO9AmSNww4G5v2lGYQ7bl+jibky8BcgXRtYCIF0ng7YVN8kgoMW7E+wLKtHW/DpnbNIpsAWntdS3MLHqT1hAbSNaBAmpdtgQdINjisBy4BdsvwOTzasGlhsQsWYq8bsZkBIrUyCaRPZ/U0LWAc8BuSDxCbsFkCRdtrcxLwUfKpgQ503Q1MSPOhpXQUSEtoJDCD9ALFE8Cnya+W2o4dLHcN4XOWs7oewga6RACewhFI1wQmUiBN3jBswniawaIT60r4ElZTTbN/cE/gDOB/sR2c0n6umO30eq5l6CRRMQqkJXcmcdvDhVxrsWbthcD7sV2Vtgss73hgGnAi8F/YAE7ozjkx1wvd9/5XkgmmW4EraO3luBIeSFe3YYF0XMBN5mCHjaVpCuVa0nclNtk+CftjNbm8mprrgKXYPNXajVI2Y7XYiVif4vY0PvojK38ApgPPdn/9fmzmQhJzRLdiG5w8iW0s/bfu+z2SQN61JgPfAcYmnG+VnYktl07TU4TFuMLWSKcGlinvawvwiQSffwr+M9qrfm3Alsk2mgc6HQv4ad17Lhb4pjW4t9chhM/lbuUrixV9wTVSUCBN8rqYZFfNnEF2k9TLcD1E4x3za51KusG0C+t+SfKokkMp7kBc0a7CBtLQjXIVSAe/bibZptou3Xnm/Vx5XmuAc2l+NdLJ2BSwtMt1BTCiyTIN5XAUTJu5sgikodOfVoECaRrXw9jqpSQdh/Xb5f1sWV5bsCNbdnS8XyeTfs20C9tAJmbj7lpHEn70T6tdlQmkWaxsKnsg7cIGQZJeAz8C+BQ2GJT386V9/Yr4vsj3kcxo/lDXI8AOkWXt8Q4UTAe7FEgDVCGQdmHv7dEJvzdgXQefA5YU4BmTvDZiI+9J/gL6CPEnFDRzPY0dLZOEo7FBtbz/PYp4FTaQhg5mKJCGXZuxKRtpGAl8mGR3k8rjWgp8E18TvhnnZfQczwGvT6jM70TBtNFV2ECqPtJsrotJd+/QN3ff4/kCPGsz13psAv9xpL8LUzvp7GnQ6FoJHJhQud+Bgmn9lUUgDd3Y+UVQjTTL65fY5s5pGgkcA1xG8Zr+C7Cm+2mk/z7U25HwqX7eaz32CyIJx5PdarcyXEWskSqQ5nA9SHpN2HptwOuA/wCuxwbAsnrOTuwHcgbwceDVKT9rM75Dds+/GfhAQuU+gWymc5XhKmSNtA2LphMDbjKX5DrVBzKV3qV/VfQscCzwWA73fhk2mLMnsEfd/yc78lsBLMRqmwuwZZWPAH+le6JygeyD/SLLSidwFnYSaqyTsKXDrb4Z9a7Yz1maQs+1X1XU4xZWYCtUqmwn8gmkS7H+wkbGYl0Dk7ANj0dj6+o7sN+8G7Fm67ruPy/BpuqUxV+xco/M6H7twA+w9/GiyLx+CRxA8TftTlva6+w9uqCYTXuRtOS1qfT5WTycJCJ0B7OV7d1/EGkVebQCAD4PfCOne0uY4JjoCaRtoTcRKZC8AinAF7EBL32GKuhF1LSX1rEb2SwbHez6EenOKZY4oU37F1QjlVYzH1sIkKczgMtJdstFydlKVCOV1rIDdkxJnrXSLjSdqahcNdJQqpFK2S0BTif/gdZTsdpxUnuaSo5Ca6Rz8ymmSOK+Rv610i7g19i8XSmGeYT9+62A8CaOAqlURTtwA/kH0i5s/9WsFgrI4IKb9qBAKq1tNHAP+QfSLuA2VDMtguAaqaZgSKt7CdupaVbeBcG2zbsRC+5SIgqkIra5yjuwM7HydhQKpmXTpXmkImYZto/r4rwLgh2CdxMKpmXR5qmRhgZekbKYAxyCTY/K2xHATGBc3gVpQaGVxS417UX6mo3VCIuwXdtB2NQoBdOCUyAV6e8x4HC6p7Xk7EBsNH983gWRgamPVKSxR7CTPNfkXRBsQ+dbUM00K8Hdl6qRigzsT9iRMOvyLgjWzL8VO8VA0hVcWVQgFRncvdjUqLV5FwQLphqAKh4NNok04X7gaIoRTA/ABqBUMy0QBVKR5tyPzTMtQjA9EDsMT/NM06GmvUiK7sMGoIrQZ3oEtgJKa/Pz51rZJNLK7gVOpBjHUB+JgmkhqEYqEu5O4ASKEUyPwrYC1BZ8OVIgFfH5DVYz3ZB3QbCBMAXTHHVQzAn52wHXZHAfScdWbMpQ2u7A//O4FPgYcYNHdwAnYQM/eTevjwH+B5gObE4gv28B+ySQT9LeCyzPuxCNLCNsE9N5GZRpamCZdBXrSuKD3IzOyHLeTzJzMo/Cmvl5v+9dwHVYBSnWtti+A3k/T/01NYFnG8r8wDIt1eF30sr2x9axxwbT27GaaRGa+ScDPyc+mD6PdRksiy5R+Wj6k0igngnuscF0JsUJpqdgzfzYYDoHOz2gCNO9Ck2BVMQmuCexjn0m8C5gY3SJ4p0KXA0Mi8znAazfdWt0iSpM80hFzEEks1roNiyIbYouUbzTgMuIrzD9CvhkfHGqSzVSkV5JrRa6GQtiWQ26DeZDwCUJ5HMJcEEC+VSSAqlIXz3nJcUG0xuxPtMiNPP/HbgogXw+D1yVQD5Vo8PvRBo4Erie+AnutwLvoRjN/P8EvhCZRxdwOnBPfHGqRYffiTR2DMk082+kOCugvgl8KjKPjcDxwKPxxSksHX4nkqB3kMzSy9soztSo/wb+LTKP1dgvmgXxxakGBVKRwSW1jn0mxdjopA24FBsMi7EIC6YvRpeoAoq61n45NoIq5ZRV98+RGd0HYBK2Pj/GHViz+CZgTHSJ/IYBP8NqlrdF5PM48FayWbbZo5Dr7AGeI2xd6fx8iilSGQdiQSzvdevrgX9O91FLaQFh7+NiTcgXyd592OmkeR9bMhqrHb8p53KUnvpIRfJxL7Zr1OqcyzEBuAXYNedyFIlG7UVK5A/AocALOZdjR6yvdFLO5SgtNe1F8vUwNjMg79Hv12Cbqaty5YiJetNE8vcAVjNdkXM5jgbOzbkMRRDctAdYSNgI1bMJFVZE+nojtqFyniP5W7ANr1tZaExcqCWiIsUxC5satSTHMgwDvk/8PqYtRUeNiBTLk9hilDyP+HgDtmpJmqTBJpHieRw4hHxrpkfneO+y0fQnkYL6G3AwtqY9D7vldN8icM0jVY1UpJhmYzXThTncO4ljqstK059EKuYpbD181rNl8t6lqlQUSEWKbw52ON/cjO/ZqtS0F6mo+dik/awC3MMZ3acS2tF0JpGymA8cADyW8n22YhuZSJN0+J1IuSzBaqZp1hhvIt95rKWjpr1I+TwPHIbta5q0rcDXU8i3yjSPVKSkVmGH892ecL7fBR5JOM+W8AzatESkrEYAM0hmw5L7iD/krwoWE/a+zaP7PyGJdASrSLEMA64gLoj+GZiccbmLSoFUpEW1AV8BOgkPor8Axmdf5MJyBdK5gYkUSEWKazq2KqmZz/Ic4JR8illoCqQiwt7A94Cn6V9DXQZcC5wEDM+rgAUXGkjntmGBdI+AmywEpiZX5oa2w86PKbs1wLtSvsdo4OaU7yFhjgU25l2IbhOAbYEO7CiTvI8zqfcLYErA698LLE+pLD0WYwcCNmteR1oliTQKODzvQiQgi9Mhh1GN96pKirS7/GryP/J5MAcCOwW8flRaBamh45hFRLKmlU0iInFUIxURiaVNS0REIqlGKiLSV3BlUYFURKSv0LioPlIRkTrBcVGj9iIifWkeqYhIJFcfqWqkIiK9gmukHRRz+tNSYJ8M7pO2LRncYz3VeK+qZEPeBSiRownbPGVpWgWp4Ypxswnb6WRhEiUVESmo1YTFxH+oaS8i0pcGm0REImlCvohIpEzmkWqtvYhIDU+NVIFURKoskyWi6g4QkSrLZEK+AqmIVJlqpCIikTIZtVcgFZEqU9NeRCRSJhPyFUhFpMpUIxURieCZ3qkaqYhIDdc8eQVSEZFervimpr2ISC817UVEIqlpLyISyR1IPbs/aeMSEakiT0XRvbGzaqUiUkWZNe1j0omIFFlmTfuedCIiVZPZqD0okIpINalpLyISKbMJ+e6biYgUnJr2IiKRNNgkIhJJNVIRkUjuPtIs04mIFJma9iIikdS0FxGJlOk8Um1aIiJVlOk80uGem4mIFFymTfuRznQiIkWWadNegVREqijTUXsFUhGpIvfGzp5AOsqRRkSk6DJt2o9wphMRKbIORxr3YJNqpCJSRa4ZSRpsEhHp5amRarBJRKSGp0aqeaQiIjXcNVIPBVIRqSJ3H6ma9iIiRk17EZFImTaUfOnuAAALHElEQVTtNf1JRKpITXsRkUiZTshXIBWRKlKNVEQkkvpIRUQijfYk8gbScc50IiJFNtaRxr2N3iRHGhGRohvjSOMebFIgFZEq8tRI3U17BVIRqSJPjdQ9aq9AKiJV5O4j9VAgFZEqcjftPTXSMcB4zw1FRApsgieRt0YKsEtEWhGRItrJkcbdtAcFUhGpnp09iRRIRURMG7CDJ6G3jxRgN2c6EZEi2hnnUfMxNdLXRaQVESmaA53p3EtEAd7gTCciUkSHehPG1Ej3ACZGpBcRKYpJwHu8iWMCaRtwRER6EZGiOAP/rnZRTXuAd0WkFREpggnAJ2MyiKmRAhwHbBuZh4hInr6Ec9pTj9ga6Tjg3JgCiIjk6J+AsyPzcK1sqg+8nwD2jyyIiEjWRgBX03/uaHDl0lMj/StwV83Xw4EZwO6hNxcRydG3gDfVfe8u4NHAfLoAftf9h2avvwAvAxbVfX8OznWqIiIZOwnopG8MWwRsD8wiLCb+ztO0bwOWAtOBLTXf3xO4m8hOWxGRlL0ZuAqLZT22YDFtGeGD8F1gwS8k+tZWe88Z4O81ki8iRbQ78Bz949bna17zWIO/H+y6G8ID6eM1N2wDbmjwmkeAKUk9uYhIAnYD5tI/Xl1P39rpEw1ek3ggfaKucKOBBxq8TsFURIpiN2wcp9GYT/3xIk82eN1g12/p/k9IoicbFHJn4OkGr30YNfNFJF9vBhbSPz7NpvGO+H9v8NohA2lojfTvAxR2F+CpBq+fC0zzPL2ISKSTgXU0DqIDzTKa3eD1iddInxqk0DvTeOrAWuD0kKcXEYkwEriA/lOcelrKg53N1Kh1PWQgvSsw0ZwhHmAccMsAaWcCrxr6PRARcXsDA4+838zQuzw16ksd7LoLwgPpvCYeZBjwFWxuVn36TcCl2H6mIiJJ2QX4CY3jzhZsc5Jm5ojOa5B+yEB6Z2CiZwIe7GDg2QHy2QzchG3FNzIgTxGRWnsCFwPraRxr5gMHBeQ3f4B8Eg2kzwY+5Hjge8DWQfJcAfw/4DC0zFREmvMW4Foa10B7aqHfxWJQiAUD5DfQdWcbFkgPC7jJInxHMe+Ldf4e3MRrNwDLsUGqtcAqYA32xqzGgnKP+q97XjfQ12ux2vBAX4eqzz/GRuy3alUMx7/reJm0YUdVlM1IYEzehXCYDLyfwXeduxv4LDawFGoRgw9G1burA4uoIbybQT8I/DPwTqz/dN9BXjsKmOq8j4i0rgeArwK3ReTRNvRL+nDtRxq7q/6twH5Yn8X12OCTiIjXRuA64ACsuR8TRMER4zocNwmN1gO5r/vaBhtwOhSrTm+P7SA1OaH7iEh1vAAswXZpWozN4bwBWJngPVyBNKum/UBWApd3X7V6+p16+tlGY03+cd3fm1Tzmp7g3k7fI6Lr++jq+4TG0HfGwHj6/nKZSO/zNuoHm4BN9RpMbR4ieejExhkGsxUbb6j1Ir3xoT6PLdj4QI/6/v313d/rUT+WsKo7T7rv8WLN/zdjYxcvYeMlPeMYteVJU/A2ep4aaVZBoYve3zLLMrpnXmp/GQxkmyH+vv6XSKix9D9yIU1pDETFDhyG2oQtP/RqJjAMVdPqCT6SnFI17aVXMx+EJJsuIjKw4BppHoNNIiJFFhzjPIffKZCKSJW5AmkWaUREyqIU80hFRIpMTXsRkUiZDDZp1F5Eqkx9pCIikdS0FxGJpMEmEZEIbTi6L71BUcFURKrIFds8TXvQgJOIVJMnkLqa9t6biYgUnauSqEAqItIr06a9AqmIVJGa9iIikVQjFRGJlGmNVKP2IlJFGmwSEYmkpr2ISCR3016BVETEuJv2noQKpCJSRUMdr96QloiKiPTyxDbNIxURqeGKbR34aqSu6m/CtgcOA14F7IA9xwvAbOAe4JncSiYiZeUOpB55Nu3fAXwaC6KDlePvwI+Ay4B1GZRLRMrPHdtuxGpzIddukYX12BG42VHW+cAxOZRXRMpnN8JjzI1l6SN9LfAQcJwj7a7Ar4DPJVoiEaki94T8LNN57IX1ee4UkUc78G3g7ERKJCJVVcmVTWOxrofJCeV3IfC2hPISkeqp5DZ65wCvSTC/YdjgUxFmHYhI8WTatM9i1H57bHQ+adOAd6WQr4iUnyu2eeeRZlEj/QAweojXdAJ/Bh4BVmMj+28HXjFEutOBGbEFFJHKcTXtAW4gfLj/tfHlHdIfB7n/VuDH2ET8Rg4HHhgk/SZgQoplF5Fyei3h8fCGog42jQDeMMDfrQOOAM4AlgzwmjuB/YGrB/j74cAbYwooIpVUqcGmHYFRDb7/EvBO4LdN5LEZ6x64foC/H6r5LyKtp1KDTeMG+P7nsDmlzeoCzgSWNfg7Ne1FpJ57P9IiNu1XN/jek8APHHktB77W4PsbHXmJSLVVqmm/GGua17oUG6X3uBLrFqjVqJYqIq2tUktEtwK/r/ve7RH5rWuQ36yI/ESkmiq3RPSmmj93AnMj86tN/0wC+YlI9VSqaQ/wU2Blzdf1Tf1QtctCr8H3C0REqq1So/YAq4ALuv/cDrwsMr9p3f9fC3wvMi8RqaZKjdr3uIDevs39I/LZFdi3+8/nAUtjCiUilVW5pj3AFmA6toLpQxH5fA5r2t8KfCeBcolINVVq1L7WAuAorEZ6kCP9fsBHsVH/d+OfQiUi1Ve5UftajwLHAv8XWyffrMnYwNIF3enr55KKiNSqZNO+1h+AjwMnBqQ5G3gv8AWsm0BEZDAtcRzzQ91Xs76aUjlEpJoqXyMVEUlbpftIRUSyoBqpiEikyq1sEhHJWiVXNomIZElNexGRSBpsEhGJVNkloiIiWcm0aa/BJhGpIg02iYhE0mCTiEgkdx/pWke6UZ6biYgU3EhHmpfAdo7vCrzmAOOjiywiUhxjgX8QHg97Tt/gTkfiH6b+WCIi2bmU8Dh4S20Ghzsy6ALemepjiYhk40js9IzQGNjvLLkHHZksBrZN68lERDKwLRbLQuPfzEaZneLIqAvrFvBuEC0ikqcOfF2bXcCBjTJsBx5zZqhz4kWkjC7BX4Ec0InOTLuAC9GKJxEphzbgIvzxrl/faH3mD0Rkfjm+eVgiIlkZCfwUf5y7vpmbHIJv9KrnehjYK/JBRUTS8ErgL/jj26buPJpyRcSNuoDVwGeAEd6nFRFJ0Ajgs8Aa4mLbt0NuOgVYGnnDLmA2NhtAa/NFJA/tWAyaTXw8exLH8viTE7hxz/Uo8G4UUEUkG+1YzHmUZGLYFuCt3sJcmFAheq4ngA8Aw7wFEhEZRDtwHHH9oI2uTw1206GmK3UAdwEHOR5oMGuwCC8ikqQOkt9Q6X+AfxnsBc3M+9weuBd4VRIlEhEpkfuxdfgvDfaiZifQ74wF0z0jCyUiUhazgEOBF4d6YbODP4uwHaKe8ZdJRKQ0HgAOo4kgCmGj6POwDUzvcxRKRKQsrscWJq1sNkHodKTnsf6CawLTiYgU3VbgPGza1PqQhDGbjLwb2yV/SkQeIiJFMB/4IHCPJ3HMBPkZwOuBX0XkISKSp03YfPnX4QyikNy2dwcD5xMx819EJEOdwHXAF7DDPKMkvX/occDHgSNSyFtEJNZqbAu9S0gggPZIK9jtBZyO1VD3AnZI6T4iIoNZCTyFrbm/BfgNgQNJzciq1tizbGsSMA47P3ocMIa+G0GPp+/5T5NqytjW/XV9nj1GdudXayLh/cDDgAmBacB2hRntSFf/zGXlfd8kW+uBjY50TU8FqrERX9BahTW9AdYCmxv8eR3Wv7kVq2WuxJaer+n+eg2wAJtplLr/D1RVibERgFj7AAAAAElFTkSuQmCC;labelBackgroundColor=none;" vertex="1" parent="1">
          <mxGeometry x="1005" y="110" width="70" height="90" as="geometry" />
        </mxCell>
        <mxCell id="OipEP8MaM-20ByhYYCx5-54" value="" style="shape=image;verticalLabelPosition=bottom;verticalAlign=top;imageAspect=0;image=data:image/png,iVBORw0KGgoAAAANSUhEUgAAAVAAAAG0CAYAAABkPX9NAAAACXBIWXMAAA7DAAAOwwHHb6hkAAAAGXRFWHRTb2Z0d2FyZQB3d3cuaW5rc2NhcGUub3Jnm+48GgAAIABJREFUeJzt3Xm4JWVh5/FvLzRNN4sNiICyCAoIOBMliY64MEKMQQkZlGeMcTCaEXdbRw1xewTNGMw4KhKNqEFFjQsqIrjiEDQYJghBlAZ0WBqVRfat6b3v/PHem3u4fe699b6n3qo69X4/z1MPTfepOvWeU/U7b9W71ALyWAA8HzgJODzTe0jSfC4HPgJ8Adhc98YX1Ly9JcCLCMF5cM3blqRU1wF/B5wBrKtro3UF6DbAXwDvBB5d0zYlqW43A38N/AOwcdSN1RGgfwx8ENi/hm1JUhOuB94CfGOUjYwSoCuAU4ETR9kBSWrR+cCrCDXTaKkBegTwRWD3xPUlqSvuAF4M/CB2xUWRr18AvA34DLBj7JtJUgctB/4M2ARcHLNiTA10MfAx4BUxbyBJY+TzwMup2MBUNUC3B74GPCdxpyRpXHwbOB54aL4XVgnQZcC3CPc9JakE/4cwGGjOPqML59nIMkIr1RH17JMkjYUjgS8T+rjPaq5GpEXAOXjZLqlMBwJ7AOelrHw6MFHTcinw7PRySFJlRwJXUl9+vTZ2B15Z0xtfAxxH/WPuJWkuiwnBdyej59gGIiZFOpTQ+jTKG94FvHqyEJLUlhXAR4EtjJZp1xN6I81pW+CqEd/oa8CuIxZakup0BHAjo2Xbx+d7k3eMsPFNwMrRyylJWexKGGmUmnFbgN+dbeN7A2sSN7wOeEGNBZWkHJYC55Ieoj+cbcNnJW5wM6GhSJLGwVLgn0gP0WNmbvBQQhCmbOxNWYooSfnsCFxLWub9ZObGUqu052MXJUnj6Ymk9zg6emojT03cwF3Y2i5pvP0lafl3ydQGLkzcwGtyl0ySMltC+qX8H5C44mrsJC+pH44lLQf/mcQV39hIsSQpvwWEYecpWRi9wnrC8ChJ6ovU+T+iVzi/oQJJUlN2IlQOo/JwvgmVh7m0jr2VpA65D7godqWUAL0lYR1J6rrvxq5ggEpScEXsCikBel/COpLUdT+LXSElQOd91KckjaF7YldICdC1CetIUtdNECZVqiwlQOd8TrIkjbFNMS+2BipJ0zbGvNgAlaRp2Wug6xPWkaRxkD1Ao6q4kjRGsgfoloR1JGkcZA3QqCZ+SRozBqgkJTJAJSmRASpJiQxQSUpkgEpSoqxj4Q1QSX02EfNiA1SSpmUNUDvRS+oza6CSlMgAlaREBqgkJTJAJSmRASpJiQxQSUpkgEpSIgNUkhIZoJKUyACVpEQGqCQlMkAlKZEBKkmJDFBJSuR0dpKUKCrjFkduPCqdpQiLgX2BvYGdgQWTf//g5HILcDOwro2dUzGiMs4AVRsWAAcBh08uTwEeB2xTYd1fAz8HfgZcCvwIuCvPbqpABqg66ZHAc4GjgaOAXRO3s9fkcvTk/28BrgIumlwMVI0iOuMmIpZv17ab6ruFwO8B7wb+ldAAGXOspS6bgSuBDwN/AqzIXVD1yreIO96iXvyt5sqhMbQ9cAxwBuF+ZROBOd+yCbgMOBk4jOl7q9Iw55MxQM9vrhwaE/sBK4ELgA20H5jzLasJAX88IfClQedhgCqjJcBzgI8RGnTaDsRRljWEE+ZVhNZ/6VwyBuh5zZVDHbKMcGl+FnAP7QdfruV64DRCI1eVHgHqHwNUtXg08Grge8B62g+3ppc7CT8YLwCWj/hZanycQ8YA/WZz5VALpu5nXkzoHtR2iHVlWUu4x7sS2DP509U4yBqg5zZXDjVgIaFl+mTgGtoPqnFYNjPdqv+E2A9cnfd1DFDNYTvCPb7TCMMj2w6kcV+m7ps+nfi5JdQ9X8MA1Qy7Ai8DvkFoeW47dPq63Ax8nDDiattK34y65mwivnOHcvbX/sCxk8vhwKJ2d2devwZ+CPwbcAVwLXAHsBR4PPAk4BnA04ADW9rH+ewJvHJyuR/4LqHS8W3g3hb3S9VFZ1zML+w5te2mcjgMeC9hoo22a2PzLb8FvgScSAjIGLsBfwqcyXj0Rd0AfB94LWEcv7rrK8R9twboGFsMHAl8BLiJ9oNiruUewi2ENwCHUu+QyidMbvc84IEOlHWuZQthboCTiP/hUH5ZA/TrzZVDs9iO6fHmt9F+IMy1DHZMX5LjwxhiEaEmfhLjMbx0FXAqoRHKcfrti7oHSuSLv9ZcOTRgF+AEwq9jl2tYU/0lT6I79yl3Jox7P4Pu9zpYjS36bTNAe2JfxmOSjtsII3aOB3bI8UHUaKrf60mEwQJNTbGXstxO+FyPwWGlTcoaoF9trhxFOoTpk7urI4EGO5KP+/RwjyQEf9fH+N/F9I+Uw0rzMkDHyGLg2YTLttW0f6LOtjxIuPp4KeF2Qh8tBo4A/pYww33bn/lsy33AFzFMc8kaoGc3V47eWgYcB3yWULNo+4ScbbkN+CTwfEJfzNLsQ+h29F3Cg+za/j6GLQ8RejacgDPv18UA7aCpkUDnEg76tk+82ZZrCS3CT8NGjEE7AC8EPkPo3N/29zRsmepr+ipg9yyfQhmyBuhXmivH2JtqOT+P7jYCDd7PPDjLp9A/gxOwXEb73+F83+sBOT6EHssaoF9urhxjaU/gdcA/EZ7F0/aJNGx5iBDq/x14VJ6PoSiPA94EXAhspP3vd9hyOfAOnD2qiqwB+qXmyjE2HsN0d6OunkB3Ea4eTqD7XY3G2XK6P3P/KpyKby4GaAP2Bd4MXEJ3uxvdRHi077Po/kQifbQNYZjt6cCvaP94GLb8FHg7oRatwADN5NGEPpo/of0Df7blF8DfEJ7HPs79M/tmAd2f6OVywvH92EyfwbjIGqBfbK4cnbCE0OXoW3T3nuaVwLsJE3RoPOxPuIL5Ed08ri4lTM7S1z6/c8kaoP/YXDlatQ3hfuENtH8wD1um7mMdlKn8ak6X5zlYT2hwPJ4w0KAEX8UAHclBhIBq++AdXDYBFwGvJzRaqZ+WE54CehbdG2RxMWX02shaA/1Cc+VoxZPpTuvpeuA7wCsIY7ZVlsWEaQD/nu5MW3gN/Q9RAzTRwbQ/yuQhwpyrLwEekbe4GiMLgWcS5kxou0X/CmD7vMVtVdZL+M83V45G7Ud4IFgbB+R9hFsjL8TJITS/BcBTCJOeXE87x+w59HeorwEaaSfg/9HsAXgn8A/A8/DpjRrNkwjdo66m2WP4LU0UrgVZA/RzzZWjMZ+imQPuZuCjhM7VpbRoqlkHA++kmb6m6wltBn2TNUDPaq4cjXgcefvh3UK4b+XsRmraocBfA9eR7/j+Gc0966opWQP0s82VoxHvof6D6m6mH8VgTVNdcAih33COfs2nNFeMRhigEa6gnoPoPkJoHo3Pr1F3LSTMuv9xwn34Oo79DYT7sH1hgFa0PaNdvq8nPObiOMqcsV3jbRvCVdI3Gf021k8b3vecsgboZxorRn6Hk3aw/IIwTnjX5ndZymJPQkv+/aSHaF8mr8kaoJ9urhzZvZT4g+QcnBpO/bUH6Q837EsjaVSA9qXQKfZPWOfThMclSH10K/D+xHX7UgONEhugE1n2oh17JaxzVe17IXXLD9regZZF/RCUXANNuYd5W+17IXXLdYQG0lh9yZKoSmLJNdDdIl9/L2GyD6nPJgiX8rH6cgmftQbalw8J4mfbTjmopHF0e8I6fcqGyvpS7U4RO/PR3Vn2QuqetQnrGKCFiZ3TcF2WvZC6J+VYN0ALs13k6w1QlcIArajUAF1KfIf4lJZJaRwZoBWV2oi0LGEda6AqRckBaj/QClIenWENVKWwEakia6DVGaAqhR3pK+pLoWMZoNLsUuZ76EvlKkqpAZpyCe8kIipFn0YcxnIkUgUpT8Is+aBSWbYkrNOXypiX8BWkPKso5aCSNF5sha8gZVJka6AqRcqx3per0ygGaHUGqEphgFZU6j1QL+Gl2RmgFZX63PKu1ryPAZ6f+T3OB86LeH0T+5SiL+WIFVvuFCU3IkUpNUC7WgM9DDgx83vcStwJ2MQ+pehLOWLFljuFNdCKvISvznugKoUBWlGR1W7SGpG8B6pSlBygdmOqwFZ4aXYlB2iUUi/hUwJUKkVKgPalMuZIpAoMUKlefalcRSk1QEvtfSBpbk4mUoE1UKlefcmGKKXWQEstt5RLkedUkYWm3HJLqpFBIqkORV7CxzamFPkhNehsYFXm97g68vVN7FOKvpQjVmy5m1JkZazU1uiu/hCsonsneRf3KUVfytFVXT2nsiryV0NS7QzQCor8kCTNq8hsKLUGWuSXLWXUl3PKyUQkNa4vARrFS3hJdSgyG0qtgRb5ZUsZFXlOlRqgkuplgFZQ5IckaV5FZkOpNdAiv2wpoyLPqVIDVFK9DNAKivyQJM2ryMpYkYWWVLsiK1elBmiRX7aUUZHnlJfwkupQZDaUWgOVVK++BGhUOZxQubrjgYPb3gmpAYckrNOXyljUc+GdULm6gzFApb5zNiZJjSvy6rTUAC3yy5YyKvKc8h5odWdPLlLfHT+5xOhLZcx7oJlcjQGqMqQ0IvWF90ArKLkmLeVQ5DllR3pJdSiyMlZkoSXVrsjKVakBWuSXLWVU5DnlJbykOhSZDaXWQCXVywAtSJFftpRRX84puzFJalxfAjSK90Al1aHIbCi1Blrkly1lVOQ5VWqASqqXAVpBkR+SpHkVmQ2l1kCL/LKljIo8p0oNUEn1KjJLvISXVIcis8EJlbslZSJbVZMyIXYXv4+uTuxdZDY4oXK3HEL3Tti+SJkQu4vfR1cn9i4yQIu8b0GhX7aUUZHnlPdAJSmRASpJibyEl6RpWWdjMngkDVNkNpRaA5VUr6jnqXeYNVBJSmSAVtCXX0upK/qSDc5IL0lNKLUGKknDRGVcqWPhu3oJfzawqu2d6KmrE9bp4veRUo4m9CUbojgWvltW0b0TtmR+H9V1tVISy0YkSWpCqQHal19LSfWyFV5S4/pSuYpSag1UkobxHmgFXsJLGpmX8JI0zRqoJCUyQCvwEl7SyLyEl1SHvlSurIFKUhNKDVAv4SUNY0d6SWpCqTVQSRrGe6AVeAkvaWRewkvSNCdUriClBvrfgMPr3hGpg/ZLWKcv2RCl1ABNsR9pB5ak8WErvCQ1odRGJEkaxnugFaTcA/0ccFbdOyJ10AmEe/4x+pINUXyoXHU3AD9oeyekBjw9YZ2+dA20H6ikxvUlGwzQCvryaympRbbCS9I0a6CS1IRSA9RLeEnD2JFekppQag1UkobxHmgFXsJL9epLNkTxEl6SplkDlaREBmgFW9reAaln+pINUbf3vISXVIe+tCtEZWKpNdDNbe+ApPFXaoB6CS9pGDvSV2ANVKpXXypXUUqdULmrAZoykW1uKRNJx5ajiffoCyf27pBSA7SrN7z3A45qeydm+HHCOrHlaOI9+iLls1J1XsJX0NUaqKR22Q+0AhuRJI2s1AC1BirVqy/ZEKXUALUGKtWrL+eU90ArsAYq1asvARrFGqikOvTlnLIRqYK+fNlSDinneV/OKS/hK0j5svvy4yHNJyUXDNC6N95hKfdAS/2xUXlKroFGKTVArYFKsys5QKPKHjuUsy+6WgM9C7i4gfeJcUPCOrHlaOI9+iLls4qVEqBdHR6dValj4btaA72BZk6Q3JooR18+qy5KqSz0pWug90Ar6GqASl1gDbSiUhtGUgK01M9K5fEeaEWl1kBTLjf6UnZpPiUHaJRSA9RLeGl2JQeoHekr6GorvNQFJXekj1JqDXRjwjqldvlSeUqugUYpNUDXJ6yzpPa9kLpp24R1+hKgWZ8L3xcpAZpyUEnjqOQAjWINtDoDVKVYmrDOptr3YgwYoNUZoCpFSoCmnFNdZCt8BQaoNDsDtCJroNUZoCpFyrHelwCNUmqAriF+7G7Kr7I0jkqugUYpNUA3Aw9GrvOIHDsiddCOCev0JUC9B1rRfZGv3y3LXkjds3vCOutq34t2eA+0otgA3QVYlGNHpA7ZFtg5Yb2U0X1jr+Qa6D2Rr19ECFGpzw4kvqJwC3akr6RPNdBfJ6yzb907IXXMkQnrXFX7XrQn6yV8n2qsqxPWeW7dOyF1yG7A/0hY75K6d2ScTEQsd7a0jzmcQFzZJwjD1b4DvAjYrvldlrLZH/gl8efEBPD0FvY3l+uJK3vUi+9urhzZ7Um4b5NywEwA9wKfBI7Cqe40npYCRwNnAA+Qdh78hn41rmYN0NiGl647j/QAHVzuIITpc4BtGi2BFGcF8BLgbNJDc3B5X7O7n90NZAzQ2K4/XfdEQqf6OkJ0sJZ+FnAMziGqbtgbOJFQYVhPfcf6OuDRDZajCTeSMUAfaK4cjTmbegN0Zph+Gng+DgVVs54EnAxcQb7j+7SmCtOgrAG6prlyNGZfwq2JXAfZ4I/PV4A/BXZqomAqymJCF6SPEHqY5D6eb6Wfw5tXkzFA1zZWjGa9kPwH3OCyntCafyJpw+YkgB2A44HPE652mjp+txBuUfXRajIGaF/Guw7zUZoN0allM3Ax8BZCVxJpLnsQfni/TTgf2zhm/2f2UrbnJjIG6IbmytG4RYT7lW0ckIPLKuBUQt+6Po38Urr9gJWEH9q6Gz1jlzPp14CamX5FxgDt+3NPFgKfoP0QnVpuBD4IPJN+9bXT3BYChwN/S3rn9hzLh+h3eELmAN3cXDlaswB4I+1dHs223A58Cngetuj30XaE+4qfAn5L+8fb4PJL4MX5it4pWQN0orlytO4A4BzCNF1tH8Azl/uBLxOGlNqiP752AV4KfJ3ppyR0ZVkLfAn4Q/pf6xz0azIHaEkfJoQJFl5PmDCh7YN62DLYov+oTJ+B6rMf8CbgIsItsbaPn8FlM3Ah4Vhakan8XZc9QEse9/044G3AZbR/sM92AlwMvBlb9LtiAfC7wHuBn9H+MTJz2UKoHKwkzA9Rut+QOUAdnhg8ltD16BJGm5Qk53Il8B7gMGzRb9ISwrwIHyW+RtPU8lPgrwjHsaZlD1Af77u1vQi/4D+i/W4msy2/Ak4nzB7lhCf1W0FoaPkyYc6Itr/vYcu1wCnAEzJ9Bn1wM5kD1Hkw57YH8GrgAkK/2bZPmmHL3YTRK8cTRrMozb6EH84f0M3GxgnCbPGnECbO0fxuIXOALmusKONvBSGkziK0nLd9Mg1bNhLum66kfzPr5HAIYZKOy+jurZtVk/t4cJZPoN9uJXOAbt9YUfplKeHy+TTiv6Q2Tr7DsnwK42dbpr+3rt7PHPzeDsryKZQje4Du2FhR+msRYajmqXRrpMnM5XpCcJQ26/7OTF85dPV+5mBoPj7Lp1Cm28gcoH2cwqptTya0lnexm8vUcithmOvR9HMk1P6EB6pdRPf6Z04tm4AfAm8AHpPlU1D2AC21g21T9iXcj7yA7jZMrCHMbn4iYaDBuBq8n9n2Zzrbso5wLKwkNFAqr9hhtNFf6C6NFUW7Ep4eeh7dG5s/tWwiNEKdRPcvJZcTxpufQXx/vyaXqR+oE3CobtOyB+gjGyuKBi0jnPxnEZ4I2vZJPtvSten4pqaCu4B6nwdU93In08/Ssq91e24nc4A63rp92wJ/RKhJxd6zaXK5gTAF2hE0Nx3fjsCxwMdo5tEWoyw3Ej4fpyvsjuwB6iMoumUhocvRycA1tB8Ksy13EZ4JdQL1dt5fNFn+k+h+LXOC6Z4NXamh6+HuIHOA2tm6254IvBP4Cd3t6P0QcC7wcuJvCS0j1NjeDpxPdwcoTC2bgH8G3kqYjEbdFhWgCyb/EGMvwg14dd9jCJezxxIuo7s4Bn4zYUKWcwldiK4iNJhtS2iwPGhyOZgwq9GT6WY5Bj1EqA1/k9AYdEe7u6MIdxAabyuL/UXdu8adVXOmWqC73gg1rstUI5DzC4y3u4j73qMPlH0aK4pyWUy4B3ca3e7O0/Wl1JFafZY9QJ0/sH/GoUN5F5bNk5/RyThXQF/dTeYAdabzfnss3R8J1eSylumRQM7Y3n/ZA7Tro01Un10I3Y6+AjxA+2HW1JKry5W67x4yB+iBjRVFXbIcOA74LPH3icZh+QXwAezUXrrsAep8gxqcju8XtB9+KcvURNIn4cTDmhbbQyX6wPNg00yHEILoYrrbeX+CMOx1qquR89pqmNj5X6MPwkMbK4rG0d6Eae7Oo/1hlZt4eKu5Qyc1n+wB+h8aK4rG3QrgJcDZNNcI9Vvgc8CLCDPLSzGyB+h/bKwo6pPBZ0LFPjp2ruV2Qm33JKxlanRRcyukjIV/MnBFXXurIi0EngL8CfB7hBm+9mDux8VsIDzU7UbgSuBywuX5dcQfw9Js7iei61rK8LOFCetIg7YQJhC5ZMi/LWA6SB9BmJhjA+HSaksje6eSRV3BGKDqmglCXzwG/is1JSpAU8LQAJUk0sLQWWck9VX2GmjXJ7OVpEZYA5WkadZAJakJBqgkTbMGKkmJDFBJaoIBKknTstdAbYWXJKyBStIg74FKUhMMUElKlBKg29W+F5LUDdkv4ZclrCNJ48AAlaQmpATo8tr3QpK6wRqoJCXKHqDWQCUJa6CSNCh7DXSnhHUkaRxEPSI7JUD3SFhHkrpuCQ3UQPeIfRNJGgMvSVlpImHZuYadlaSuWABcRWQWpj7j/XGj7q0kdcjzgENiV0oN0KMS15OkLvrL1BVTLuFXAYtG219J6oT/RFoOTjDCin/eQMEkKbcf0EKA/gantpM03v6Q9AwcKUAngDfnL58kZbEtCS3v1Biga4DH5y6lJGXwPkbLv+gAXTPk735Iemu+JLXh94GNbJ1nDwz5u9oC9GPAZUP+fmXeskpSbR4J3MTWOfZvwFuG/H1tAfpBYH/gvhl/vwE4ImOBJakOi4DvsXW23QDsDrxmyL/VFqAfmtyJFw35t9uBx2YqtCSNagHwSbbOrjuAAyZf89oh/15rDXTKqUP+/efAipoLLUl1+BuGt+s8deA1rx/ymiwBuhA4d8hrrgB2q7HQkjSqd7B1Vm0EjpnxupVDXpclQAF2AH425HVXA3vWUGhJGsUC4H+xdUZtAV425PVvGvLabAEKsA+weshrVxO6CkhSG5YAZzI8PF81yzpvHvL6rAEKsC9w45DXryfcU5CkJu0B/Jjh4TlXJr11yDrZA3Rqh4f1EZ0g3Cvdp3LRJSnds4Gb2TqHNgAvn2fdk4asV1uA/u953nw58KVZ1l0DvAtYOl/pJSnBDoTBPlvYOn/uAv5zhW28bci6jQXolFcDD82yjdXAGycLK0mjWgy8gjBD3LDMuZLpfp7zGdZa33iAQphk5IdzbOte4P0kTKMvSYTZlF4GXMvwjNlEmDBkScQ23zXLthoPUAhdCF4MXD/Pdq8G3kNotd8l8j0klWVnwqX2LcyeKVcSZpqP9e45trnVsniUUlQwAfwj8FVCt4F3Egbyz/QEQvK/a/L/HyQMDb0XWEu4HXDv5H/XD6x3z4ztPED41ZmyFlg38P+bJl8zaOY25rJucpt12AzcX9O2SvcIxu9R28uJqxl1wRLCfrfpGYSGoNn242ZCjnyWcC80VtTMcrkDdMoG4CPAZwj9rN5AOOhns/3kIklV3EG4Qj6dUNFKFRWgsfN4TkS+fqb7CVXkvQgNSbeOuD1JZbsDOIXwqPX3M1p4QuYArcuDwGmE2ZteSWg9k6Sqbgf+ijCI52Tqux3WyUv42awHPkG4X/EyQgdYSZrLj4BP8fD2jbqMVYBOWQ98fHKRpLZ0+h6oJHXZWNwDlaQuMkAlKZEBKkmJDFBJSmSASlKiqCHBtsJL0jRroJKUyACVpEQGqCQlMkAlKZEBKkmJHAsvSYmsgUpSIgNUkhIZoJKUyACVpEQGqCQlyhqg4/bsbUmKYYBKUiIv4SUpkTVQSUpkgEpSIgNUkhJFZeLiyI13IUAXAI8F9gceAWxDKPR6YA1wE3AtsLmtHZQ0tqLbhSYilg/Xtpvx9gFOB+4dsl8zl/uBz0+uI0lVXUhcJka9+LTmyvEwf0y14Jy53As8u4X9lTSeLiIiY8bhHugLgHOAnRLW3Qn4NnB8rXskqa961Q/0GYRL8VH2c1vgC8BzatkjSX3Wm1b4nYCzgaU1bGsbQojuXsO2JPVXbwL0FOBRNW5vV+D9NW5PUv9EZVxXA3Qf4LUZtvtnhO5PkjRML2qgL2b+PqpXAa8BDptcXgusmmedRcCfj7pzknoraz/Qv69tN+d25Rz78AAhLIcVdCHweuDBOda/PPO+Sxpfl5OxH+gZDRRgCbBplvf/DfA7FbbxpMnXDtvGJkLLvCTNdAUZ+4HGDv1MsS/hUnum24BnAT+tsI0rJl/72yH/tmjyPSRppqz3QJsI0GEd5jcCxwDXR2znesIIpo1D/m3HhP2S1H9jH6D3Dvm79wGXJWzrUuDUIX+/IWFbkvovayPSl2vbzdntBGwZeM97gB1G2N6OPHwc/RZCn1BJmukaxvwe6H2Ee5hTvktoeU91/+Q2plwH3DnC9iT1V9ZL+G0iX5/qOwN//lUN2xvcxiU1bE9SP439PVCATxImSIZ6Rg49fuDPX61he5L6Kes90O/XtpvzO23yPe9jtAlFljHdsf5qhneRkiSAG8nYkf7C5srBLsANk+/7yhG28zqmG4+eW8N+Seqvm8gYoD9qrhwAHEpoBPoVaX03dwJuJuz7B2rcL0n99GsyBui/NFeOf/cHhEvwlGGkZxL2+0y6P3m0pPZNVbiyBOilzZXjYZ5C6Hp0dMQ6Lyc8pXNllj2S1Ee3kjFAf95cObZyAGFW+So1yScDn8CnckqK81syBmjMWPQ2rWh7BySNpTuIyMTY+4Lb1befWd3T9g5IGktZO9Ivi3y9JI0TA1SSEmUfC9/UcE5JalrWAAVroZL6ywCVpETZA3SUyY0lqcuyB6izuUvqKwNUkhJlD9B9E9aRpK7bhgYC9LCEdSSp696UslLMWPgJwgPebEiS1Cd7M/3kimyTiUwtb2ymTJLUiPOIz8EHIdQoY1e8G3hkI8WSpLyOI60i+QGA9yau/LkmSiZJGe37RcYNAAACzElEQVRI/GM8JoCHgN0hPDfozoQNTAAvzV8+ScrmLNKy78ODG3lL4kYeBJ6UsXCSlMt/JS331gKPHtzQUsKTL1M2djvw+GxFlKT6/Q5h4vWUzPu7YRv8i8SNTQC/BPaqvYiSVL+DiXx0x8CyBnjMsI0uBP41caMTwGqsiUrqtmcBt5Gec6fMtfHfBzaPsPHbgGfWVFBJqssi4G3AJtLz7WZg+/ne6IwR3mAC2EAYEpUyTFSS6vYM4KeMlmsTwDFV3mw5cHUNb/Zj4NARCi1JozgA+BKwhdHz7OMxb/xEQkfRUd90M/B14I+AAwnhLEk57Q18CtjI6Bk2AaxiluxaMMdOvAw4c+SibG0tsI7Qh3QjcD8haAef5T71b4NmPut9A6FFbFCV9TZOvi7GesIPSoypcsZ4aPK9mnQv4SDpmgnCvklVPQp4O/BKYNuatnk78FTgxmH/OFeAArwbOLmmHZHUDWsIFZC+WQ4sqXF764AjgX+Z7QXzBSjA6cDr6tojSRoDG4DjgW/O9aJFFTb0fULHUYdsSirBesIMTefP98IqATpBmCtve+Bpo+2XJHXafYTw/G6VF1cJ0CnfJ9w7ORL7eErqnxuAo4D/W3WFKvdAZzoC+CKTc+FJUg98D3gJYWrPylJqkhcR7odekLCuJHXJWmAloa96VHhC3CX8oAcJM9JfBzwdO8hLGj8XAP8F+FbqBka9l/kF4CDgI4Qkl6SuuxY4FngOcM0oG0q5Bzqb3YG3EkYBWCOV1DUXAR8idE/aUscG6wzQKTsBLwROIMyCkuM9JGkumwlzFP8CuBD4BnB93W+SO9x2I/Qf3ZFwv3UhIWAhjFVdNvnnHYDFk39eCmw3xzbn+/ftJl8zm2VUHyc7uF91m68co1hM2PdcVmTcds7PXMHM+SFyrxcz38LgHBez/XlqbooNhLk07p98j6k/30MIy+zDVf8/pbd/UgBL4LEAAAAASUVORK5CYII=;labelBackgroundColor=none;" vertex="1" parent="1">
          <mxGeometry x="1090" y="320" width="70" height="90" as="geometry" />
        </mxCell>
        <mxCell id="OipEP8MaM-20ByhYYCx5-82" style="edgeStyle=orthogonalEdgeStyle;shape=connector;rounded=0;orthogonalLoop=1;jettySize=auto;html=1;entryX=0.5;entryY=1;entryDx=0;entryDy=0;labelBackgroundColor=none;strokeColor=default;fontFamily=Helvetica;fontSize=11;fontColor=default;startArrow=classic;startFill=1;endArrow=none;endFill=0;" edge="1" parent="1" source="OipEP8MaM-20ByhYYCx5-55" target="OipEP8MaM-20ByhYYCx5-53">
          <mxGeometry relative="1" as="geometry" />
        </mxCell>
        <mxCell id="OipEP8MaM-20ByhYYCx5-83" value="tcp8089/9997" style="edgeLabel;html=1;align=center;verticalAlign=middle;resizable=0;points=[];fontSize=11;fontFamily=Helvetica;fontColor=default;" vertex="1" connectable="0" parent="OipEP8MaM-20ByhYYCx5-82">
          <mxGeometry x="0.25" y="-1" relative="1" as="geometry">
            <mxPoint as="offset" />
          </mxGeometry>
        </mxCell>
        <mxCell id="OipEP8MaM-20ByhYYCx5-55" value="Indexer" style="text;html=1;align=center;verticalAlign=middle;resizable=0;points=[];autosize=1;strokeColor=none;fillColor=none;fontFamily=Georgia;fontStyle=2;fontSize=18;labelBackgroundColor=none;" vertex="1" parent="1">
          <mxGeometry x="995" y="280" width="90" height="40" as="geometry" />
        </mxCell>
        <mxCell id="OipEP8MaM-20ByhYYCx5-56" value="Cluster Manager&lt;br&gt;Monitoring Console&lt;br&gt;License Master" style="text;html=1;align=center;verticalAlign=middle;resizable=0;points=[];autosize=1;strokeColor=none;fillColor=none;fontFamily=Georgia;fontStyle=2;fontSize=18;labelBackgroundColor=none;" vertex="1" parent="1">
          <mxGeometry x="1305" y="410" width="180" height="80" as="geometry" />
        </mxCell>
        <mxCell id="OipEP8MaM-20ByhYYCx5-57" value="Search Head&lt;br&gt;Deployment Server&lt;br&gt;Heavy Forwarder" style="text;html=1;align=center;verticalAlign=middle;resizable=0;points=[];autosize=1;strokeColor=none;fillColor=none;fontFamily=Georgia;fontStyle=2;fontSize=18;labelBackgroundColor=none;" vertex="1" parent="1">
          <mxGeometry x="950" y="30" width="180" height="80" as="geometry" />
        </mxCell>
        <mxCell id="OipEP8MaM-20ByhYYCx5-58" value="DR Site" style="text;html=1;align=center;verticalAlign=middle;resizable=0;points=[];autosize=1;strokeColor=none;fillColor=none;fontFamily=Georgia;fontStyle=2;fontSize=28;labelBackgroundColor=none;" vertex="1" parent="1">
          <mxGeometry x="1120" y="-40" width="120" height="50" as="geometry" />
        </mxCell>
        <mxCell id="OipEP8MaM-20ByhYYCx5-59" style="edgeStyle=orthogonalEdgeStyle;rounded=0;orthogonalLoop=1;jettySize=auto;html=1;exitX=0.5;exitY=1;exitDx=0;exitDy=0;labelBackgroundColor=none;fontColor=default;" edge="1" parent="1" source="OipEP8MaM-20ByhYYCx5-37" target="OipEP8MaM-20ByhYYCx5-37">
          <mxGeometry relative="1" as="geometry" />
        </mxCell>
      </root>
    </mxGraphModel>
  </diagram>
</mxfile>
